<svg width="0" height="0" style="position:absolute"><symbol fill="none" stroke="currentColor" viewBox="0 0 24 24" id="academic-cap" xmlns="http://www.w3.org/2000/svg"><path d="M12 14l9-5-9-5-9 5 9 5zm0 0l6.16-3.422a12.083 12.083 0 01.665 6.479A11.952 11.952 0 0012 20.055a11.952 11.952 0 00-6.824-2.998 12.078 12.078 0 01.665-6.479L12 14zm-4 6v-7.5l4-2.222" stroke-width="1.5" stroke-linecap="round" stroke-linejoin="round"/></symbol><symbol fill="none" stroke="currentColor" viewBox="0 0 24 24" id="adjustments" xmlns="http://www.w3.org/2000/svg"><path d="M12 6V4m0 2a2 2 0 100 4m0-4a2 2 0 110 4m-6 8a2 2 0 100-4m0 4a2 2 0 110-4m0 4v2m0-6V4m6 6v10m6-2a2 2 0 100-4m0 4a2 2 0 110-4m0 4v2m0-6V4" stroke-width="1.5" stroke-linecap="round" stroke-linejoin="round"/></symbol><symbol fill="none" stroke="currentColor" viewBox="0 0 24 24" id="annotation" xmlns="http://www.w3.org/2000/svg"><path d="M7 8h10M7 12h4m1 8l-4-4H5a2 2 0 01-2-2V6a2 2 0 012-2h14a2 2 0 012 2v8a2 2 0 01-2 2h-3l-4 4z" stroke-width="1.5" stroke-linecap="round" stroke-linejoin="round"/></symbol><symbol fill="none" stroke="currentColor" viewBox="0 0 24 24" id="archive" xmlns="http://www.w3.org/2000/svg"><path d="M5 8h14M5 8a2 2 0 110-4h14a2 2 0 110 4M5 8v10a2 2 0 002 2h10a2 2 0 002-2V8m-9 4h4" stroke-width="1.5" stroke-linecap="round" stroke-linejoin="round"/></symbol><symbol fill="none" stroke="currentColor" viewBox="0 0 24 24" id="arrow-circle-down" xmlns="http://www.w3.org/2000/svg"><path d="M15 13l-3 3m0 0l-3-3m3 3V8m0 13a9 9 0 110-18 9 9 0 010 18z" stroke-width="1.5" stroke-linecap="round" stroke-linejoin="round"/></symbol><symbol fill="none" stroke="currentColor" viewBox="0 0 24 24" id="arrow-circle-left" xmlns="http://www.w3.org/2000/svg"><path d="M11 15l-3-3m0 0l3-3m-3 3h8M3 12a9 9 0 1118 0 9 9 0 01-18 0z" stroke-width="1.5" stroke-linecap="round" stroke-linejoin="round"/></symbol><symbol fill="none" stroke="currentColor" viewBox="0 0 24 24" id="arrow-circle-right" xmlns="http://www.w3.org/2000/svg"><path d="M13 9l3 3m0 0l-3 3m3-3H8m13 0a9 9 0 11-18 0 9 9 0 0118 0z" stroke-width="1.5" stroke-linecap="round" stroke-linejoin="round"/></symbol><symbol fill="none" stroke="currentColor" viewBox="0 0 24 24" id="arrow-circle-up" xmlns="http://www.w3.org/2000/svg"><path d="M9 11l3-3m0 0l3 3m-3-3v8m0-13a9 9 0 110 18 9 9 0 010-18z" stroke-width="1.5" stroke-linecap="round" stroke-linejoin="round"/></symbol><symbol fill="none" stroke="currentColor" viewBox="0 0 24 24" id="arrow-down" xmlns="http://www.w3.org/2000/svg"><path d="M19 14l-7 7m0 0l-7-7m7 7V3" stroke-width="1.5" stroke-linecap="round" stroke-linejoin="round"/></symbol><symbol fill="none" stroke="currentColor" viewBox="0 0 24 24" id="arrow-left" xmlns="http://www.w3.org/2000/svg"><path d="M10 19l-7-7m0 0l7-7m-7 7h18" stroke-width="1.5" stroke-linecap="round" stroke-linejoin="round"/></symbol><symbol fill="none" stroke="currentColor" viewBox="0 0 24 24" id="arrow-narrow-down" xmlns="http://www.w3.org/2000/svg"><path d="M16 17l-4 4m0 0l-4-4m4 4V3" stroke-width="1.5" stroke-linecap="round" stroke-linejoin="round"/></symbol><symbol fill="none" stroke="currentColor" viewBox="0 0 24 24" id="arrow-narrow-left" xmlns="http://www.w3.org/2000/svg"><path d="M7 16l-4-4m0 0l4-4m-4 4h18" stroke-width="1.5" stroke-linecap="round" stroke-linejoin="round"/></symbol><symbol fill="none" stroke="currentColor" viewBox="0 0 24 24" id="arrow-narrow-right" xmlns="http://www.w3.org/2000/svg"><path d="M17 8l4 4m0 0l-4 4m4-4H3" stroke-width="1.5" stroke-linecap="round" stroke-linejoin="round"/></symbol><symbol fill="none" stroke="currentColor" viewBox="0 0 24 24" id="arrow-narrow-up" xmlns="http://www.w3.org/2000/svg"><path d="M8 7l4-4m0 0l4 4m-4-4v18" stroke-width="1.5" stroke-linecap="round" stroke-linejoin="round"/></symbol><symbol fill="none" stroke="currentColor" viewBox="0 0 24 24" id="arrow-right" xmlns="http://www.w3.org/2000/svg"><path d="M14 5l7 7m0 0l-7 7m7-7H3" stroke-width="1.5" stroke-linecap="round" stroke-linejoin="round"/></symbol><symbol fill="none" stroke="currentColor" viewBox="0 0 24 24" id="arrow-sm-down" xmlns="http://www.w3.org/2000/svg"><path d="M17 13l-5 5m0 0l-5-5m5 5V6" stroke-width="1.5" stroke-linecap="round" stroke-linejoin="round"/></symbol><symbol fill="none" stroke="currentColor" viewBox="0 0 24 24" id="arrow-sm-left" xmlns="http://www.w3.org/2000/svg"><path d="M11 17l-5-5m0 0l5-5m-5 5h12" stroke-width="1.5" stroke-linecap="round" stroke-linejoin="round"/></symbol><symbol fill="none" stroke="currentColor" viewBox="0 0 24 24" id="arrow-sm-right" xmlns="http://www.w3.org/2000/svg"><path d="M13 7l5 5m0 0l-5 5m5-5H6" stroke-width="1.5" stroke-linecap="round" stroke-linejoin="round"/></symbol><symbol fill="none" stroke="currentColor" viewBox="0 0 24 24" id="arrow-sm-up" xmlns="http://www.w3.org/2000/svg"><path d="M7 11l5-5m0 0l5 5m-5-5v12" stroke-width="1.5" stroke-linecap="round" stroke-linejoin="round"/></symbol><symbol fill="none" stroke="currentColor" viewBox="0 0 24 24" id="arrow-up" xmlns="http://www.w3.org/2000/svg"><path d="M5 10l7-7m0 0l7 7m-7-7v18" stroke-width="1.5" stroke-linecap="round" stroke-linejoin="round"/></symbol><symbol fill="none" stroke="currentColor" viewBox="0 0 24 24" id="arrows-expand" xmlns="http://www.w3.org/2000/svg"><path d="M4 8V4m0 0h4M4 4l5 5m11-1V4m0 0h-4m4 0l-5 5M4 16v4m0 0h4m-4 0l5-5m11 5l-5-5m5 5v-4m0 4h-4" stroke-width="1.5" stroke-linecap="round" stroke-linejoin="round"/></symbol><symbol fill="none" stroke="currentColor" viewBox="0 0 24 24" id="at-symbol" xmlns="http://www.w3.org/2000/svg"><path d="M16 12a4 4 0 10-8 0 4 4 0 008 0zm0 0v1.5a2.5 2.5 0 005 0V12a9 9 0 10-9 9m4.5-1.206a8.959 8.959 0 01-4.5 1.207" stroke-width="1.5" stroke-linecap="round" stroke-linejoin="round"/></symbol><symbol fill="none" stroke="currentColor" viewBox="0 0 24 24" id="backspace" xmlns="http://www.w3.org/2000/svg"><path d="M3 12l-.707-.707a1 1 0 000 1.414L3 12zm6.414 6.414l.707-.707-.707.707zm0-12.828l.707.707-.707-.707zm1.879 7.707a1 1 0 001.414 1.414l-1.414-1.414zm5.414-2.586a1 1 0 00-1.414-1.414l1.414 1.414zm-4-1.414a1 1 0 10-1.414 1.414l1.414-1.414zm2.586 5.414a1 1 0 001.414-1.414l-1.414 1.414zM10.828 6H19V4h-8.172v2zM20 7v10h2V7h-2zm-1 11h-8.172v2H19v-2zm-8.879-.293l-6.414-6.414-1.414 1.414 6.414 6.414 1.414-1.414zm-6.414-5l6.414-6.414-1.414-1.414-6.414 6.414 1.414 1.414zM10.828 18a1 1 0 01-.707-.293l-1.414 1.414a3 3 0 002.121.879v-2zM20 17a1 1 0 01-1 1v2a3 3 0 003-3h-2zM19 6a1 1 0 011 1h2a3 3 0 00-3-3v2zm-8.172-2a3 3 0 00-2.12.879l1.413 1.414A1 1 0 0110.828 6V4zm1.88 10.707l2-2-1.415-1.414-2 2 1.414 1.414zm2-2l2-2-1.415-1.414-2 2 1.414 1.414zm-3.415-2l2 2 1.414-1.414-2-2-1.414 1.414zm2 2l2 2 1.414-1.414-2-2-1.414 1.414z"/></symbol><symbol fill="none" stroke="currentColor" viewBox="0 0 24 24" id="badge-check" xmlns="http://www.w3.org/2000/svg"><path d="M9 12l2 2 4-4M7.835 4.697a3.42 3.42 0 001.946-.806 3.42 3.42 0 014.438 0 3.42 3.42 0 001.946.806 3.42 3.42 0 013.138 3.138 3.42 3.42 0 00.806 1.946 3.42 3.42 0 010 4.438 3.42 3.42 0 00-.806 1.946 3.42 3.42 0 01-3.138 3.138 3.42 3.42 0 00-1.946.806 3.42 3.42 0 01-4.438 0 3.42 3.42 0 00-1.946-.806 3.42 3.42 0 01-3.138-3.138 3.42 3.42 0 00-.806-1.946 3.42 3.42 0 010-4.438 3.42 3.42 0 00.806-1.946 3.42 3.42 0 013.138-3.138z" stroke-width="1.5" stroke-linecap="round" stroke-linejoin="round"/></symbol><symbol fill="none" stroke="currentColor" viewBox="0 0 24 24" id="ban" xmlns="http://www.w3.org/2000/svg"><path d="M18.364 18.364A9 9 0 005.636 5.636m12.728 12.728A9 9 0 015.636 5.636m12.728 12.728L5.636 5.636" stroke-width="1.5" stroke-linecap="round" stroke-linejoin="round"/></symbol><symbol fill="none" stroke="currentColor" viewBox="0 0 24 24" id="beaker" xmlns="http://www.w3.org/2000/svg"><path d="M19.428 15.428a2 2 0 00-1.022-.547l-2.387-.477a6 6 0 00-3.86.517l-.318.158a6 6 0 01-3.86.517L6.05 15.21a2 2 0 00-1.806.547M8 4h8l-1 1v5.172a2 2 0 00.586 1.414l5 5c1.26 1.26.367 3.414-1.415 3.414H4.828c-1.782 0-2.674-2.154-1.414-3.414l5-5A2 2 0 009 10.172V5L8 4z" stroke-width="1.5" stroke-linecap="round" stroke-linejoin="round"/></symbol><symbol fill="none" stroke="currentColor" viewBox="0 0 24 24" id="bell" xmlns="http://www.w3.org/2000/svg"><path d="M15 17h5l-1.405-1.405A2.032 2.032 0 0118 14.158V11a6.002 6.002 0 00-4-5.659V5a2 2 0 10-4 0v.341C7.67 6.165 6 8.388 6 11v3.159c0 .538-.214 1.055-.595 1.436L4 17h5m6 0v1a3 3 0 11-6 0v-1m6 0H9" stroke-width="1.5" stroke-linecap="round" stroke-linejoin="round"/></symbol><symbol fill="none" stroke="currentColor" viewBox="0 0 24 24" id="book-open" xmlns="http://www.w3.org/2000/svg"><path d="M12 6.253v13m0-13C10.832 5.477 9.246 5 7.5 5S4.168 5.477 3 6.253v13C4.168 18.477 5.754 18 7.5 18s3.332.477 4.5 1.253m0-13C13.168 5.477 14.754 5 16.5 5c1.747 0 3.332.477 4.5 1.253v13C19.832 18.477 18.247 18 16.5 18c-1.746 0-3.332.477-4.5 1.253" stroke-width="1.5" stroke-linecap="round" stroke-linejoin="round"/></symbol><symbol fill="none" stroke="currentColor" viewBox="0 0 24 24" id="bookmark" xmlns="http://www.w3.org/2000/svg"><path d="M5 5a2 2 0 012-2h10a2 2 0 012 2v16l-7-3.5L5 21V5z" stroke-width="1.5" stroke-linecap="round" stroke-linejoin="round"/></symbol><symbol fill="none" stroke="currentColor" viewBox="0 0 24 24" id="bookmark-alt" xmlns="http://www.w3.org/2000/svg"><path d="M16 4v12l-4-2-4 2V4M6 20h12a2 2 0 002-2V6a2 2 0 00-2-2H6a2 2 0 00-2 2v12a2 2 0 002 2z" stroke-width="1.5" stroke-linecap="round" stroke-linejoin="round"/></symbol><symbol fill="none" stroke="currentColor" viewBox="0 0 24 24" id="briefcase" xmlns="http://www.w3.org/2000/svg"><path d="M21 13.255A23.931 23.931 0 0112 15c-3.183 0-6.22-.62-9-1.745M16 6V4a2 2 0 00-2-2h-4a2 2 0 00-2 2v2m4 6h.01M5 20h14a2 2 0 002-2V8a2 2 0 00-2-2H5a2 2 0 00-2 2v10a2 2 0 002 2z" stroke-width="1.5" stroke-linecap="round" stroke-linejoin="round"/></symbol><symbol fill="none" stroke="currentColor" viewBox="0 0 24 24" id="cake" xmlns="http://www.w3.org/2000/svg"><path d="M21 15.546c-.523 0-1.046.151-1.5.454a2.704 2.704 0 01-3 0 2.704 2.704 0 00-3 0 2.704 2.704 0 01-3 0 2.704 2.704 0 00-3 0 2.704 2.704 0 01-3 0 2.701 2.701 0 00-1.5-.454M9 6v2m3-2v2m3-2v2M9 3h.01M12 3h.01M15 3h.01M21 21v-7a2 2 0 00-2-2H5a2 2 0 00-2 2v7h18zm-3-9v-2a2 2 0 00-2-2H8a2 2 0 00-2 2v2h12z" stroke-width="1.5" stroke-linecap="round" stroke-linejoin="round"/></symbol><symbol fill="none" stroke="currentColor" viewBox="0 0 24 24" id="calculator" xmlns="http://www.w3.org/2000/svg"><path d="M9 6a1 1 0 000 2V6zm6 2a1 1 0 100-2v2zm-1 9a1 1 0 102 0h-2zm2-3a1 1 0 10-2 0h2zm-4 2a1 1 0 100 2v-2zm.01 2a1 1 0 100-2v2zM9 16a1 1 0 100 2v-2zm.01 2a1 1 0 100-2v2zM9 13a1 1 0 100 2v-2zm.01 2a1 1 0 100-2v2zM12 13a1 1 0 100 2v-2zm.01 2a1 1 0 100-2v2zM15 10a1 1 0 100 2v-2zm.01 2a1 1 0 100-2v2zM12 10a1 1 0 100 2v-2zm.01 2a1 1 0 100-2v2zM9 10a1 1 0 100 2v-2zm.01 2a1 1 0 100-2v2zM7 4h10V2H7v2zm11 1v14h2V5h-2zm-1 15H7v2h10v-2zM6 19V5H4v14h2zm1 1a1 1 0 01-1-1H4a3 3 0 003 3v-2zm11-1a1 1 0 01-1 1v2a3 3 0 003-3h-2zM17 4a1 1 0 011 1h2a3 3 0 00-3-3v2zM7 2a3 3 0 00-3 3h2a1 1 0 011-1V2zm2 6h6V6H9v2zm7 9v-3h-2v3h2zm-4 1h.01v-2H12v2zm-3 0h.01v-2H9v2zm0-3h.01v-2H9v2zm3 0h.01v-2H12v2zm3-3h.01v-2H15v2zm-3 0h.01v-2H12v2zm-3 0h.01v-2H9v2z"/></symbol><symbol fill="none" stroke="currentColor" viewBox="0 0 24 24" id="calendar" xmlns="http://www.w3.org/2000/svg"><path d="M8 7V3m8 4V3m-9 8h10M5 21h14a2 2 0 002-2V7a2 2 0 00-2-2H5a2 2 0 00-2 2v12a2 2 0 002 2z" stroke-width="1.5" stroke-linecap="round" stroke-linejoin="round"/></symbol><symbol fill="none" stroke="currentColor" viewBox="0 0 24 24" id="camera" xmlns="http://www.w3.org/2000/svg"><path d="M3 9a2 2 0 012-2h.93a2 2 0 001.664-.89l.812-1.22A2 2 0 0110.07 4h3.86a2 2 0 011.664.89l.812 1.22A2 2 0 0018.07 7H19a2 2 0 012 2v9a2 2 0 01-2 2H5a2 2 0 01-2-2V9z" stroke-width="1.5" stroke-linecap="round" stroke-linejoin="round"/><path d="M15 13a3 3 0 11-6 0 3 3 0 016 0z" stroke-width="1.5" stroke-linecap="round" stroke-linejoin="round"/></symbol><symbol fill="none" stroke="currentColor" viewBox="0 0 24 24" id="cash" xmlns="http://www.w3.org/2000/svg"><path d="M17 9V7a2 2 0 00-2-2H5a2 2 0 00-2 2v6a2 2 0 002 2h2m2 4h10a2 2 0 002-2v-6a2 2 0 00-2-2H9a2 2 0 00-2 2v6a2 2 0 002 2zm7-5a2 2 0 11-4 0 2 2 0 014 0z" stroke-width="1.5" stroke-linecap="round" stroke-linejoin="round"/></symbol><symbol fill="none" stroke="currentColor" viewBox="0 0 24 24" id="chart-bar" xmlns="http://www.w3.org/2000/svg"><path d="M9 19v-6a2 2 0 00-2-2H5a2 2 0 00-2 2v6a2 2 0 002 2h2a2 2 0 002-2zm0 0V9a2 2 0 012-2h2a2 2 0 012 2v10m-6 0a2 2 0 002 2h2a2 2 0 002-2m0 0V5a2 2 0 012-2h2a2 2 0 012 2v14a2 2 0 01-2 2h-2a2 2 0 01-2-2z" stroke-width="1.5" stroke-linecap="round" stroke-linejoin="round"/></symbol><symbol fill="none" stroke="currentColor" viewBox="0 0 24 24" id="chart-pie" xmlns="http://www.w3.org/2000/svg"><path d="M11 3.055A9.001 9.001 0 1020.945 13H11V3.055z" stroke-width="1.5" stroke-linecap="round" stroke-linejoin="round"/><path d="M20.488 9H15V3.512A9.025 9.025 0 0120.488 9z" stroke-width="1.5" stroke-linecap="round" stroke-linejoin="round"/></symbol><symbol fill="none" stroke="currentColor" viewBox="0 0 24 24" id="chart-square-bar" xmlns="http://www.w3.org/2000/svg"><path d="M16 8v8m-4-5v5m-4-2v2m-2 4h12a2 2 0 002-2V6a2 2 0 00-2-2H6a2 2 0 00-2 2v12a2 2 0 002 2z" stroke-width="1.5" stroke-linecap="round" stroke-linejoin="round"/></symbol><symbol fill="none" stroke="currentColor" viewBox="0 0 24 24" id="chat" xmlns="http://www.w3.org/2000/svg"><path d="M8 12h.01M12 12h.01M16 12h.01M21 12c0 4.418-4.03 8-9 8a9.863 9.863 0 01-4.255-.949L3 20l1.395-3.72C3.512 15.042 3 13.574 3 12c0-4.418 4.03-8 9-8s9 3.582 9 8z" stroke-width="1.5" stroke-linecap="round" stroke-linejoin="round"/></symbol><symbol fill="none" stroke="currentColor" viewBox="0 0 24 24" id="chat-alt" xmlns="http://www.w3.org/2000/svg"><path d="M8 10h.01M12 10h.01M16 10h.01M9 16H5a2 2 0 01-2-2V6a2 2 0 012-2h14a2 2 0 012 2v8a2 2 0 01-2 2h-5l-5 5v-5z" stroke-width="1.5" stroke-linecap="round" stroke-linejoin="round"/></symbol><symbol fill="none" stroke="currentColor" viewBox="0 0 24 24" id="chat-alt-2" xmlns="http://www.w3.org/2000/svg"><path d="M17 8h2a2 2 0 012 2v6a2 2 0 01-2 2h-2v4l-4-4H9a1.994 1.994 0 01-1.414-.586m0 0L11 14h4a2 2 0 002-2V6a2 2 0 00-2-2H5a2 2 0 00-2 2v6a2 2 0 002 2h2v4l.586-.586z" stroke-width="1.5" stroke-linecap="round" stroke-linejoin="round"/></symbol><symbol fill="none" stroke="currentColor" viewBox="0 0 24 24" id="check" xmlns="http://www.w3.org/2000/svg"><path d="M5 13l4 4L19 7" stroke-width="1.5" stroke-linecap="round" stroke-linejoin="round"/></symbol><symbol fill="none" stroke="currentColor" viewBox="0 0 24 24" id="check-circle" xmlns="http://www.w3.org/2000/svg"><path d="M9 12l2 2 4-4m6 2a9 9 0 11-18 0 9 9 0 0118 0z" stroke-width="1.5" stroke-linecap="round" stroke-linejoin="round"/></symbol><symbol fill="none" stroke="currentColor" viewBox="0 0 24 24" id="chevron-down" xmlns="http://www.w3.org/2000/svg"><path d="M19 9l-7 7-7-7" stroke-width="1.5" stroke-linecap="round" stroke-linejoin="round"/></symbol><symbol fill="none" stroke="currentColor" viewBox="0 0 24 24" id="chevron-left" xmlns="http://www.w3.org/2000/svg"><path d="M15 19l-7-7 7-7" stroke-width="1.5" stroke-linecap="round" stroke-linejoin="round"/></symbol><symbol fill="none" stroke="currentColor" viewBox="0 0 24 24" id="chevron-right" xmlns="http://www.w3.org/2000/svg"><path d="M9 5l7 7-7 7" stroke-width="1.5" stroke-linecap="round" stroke-linejoin="round"/></symbol><symbol fill="none" stroke="currentColor" viewBox="0 0 24 24" id="chevron-up" xmlns="http://www.w3.org/2000/svg"><path d="M5 15l7-7 7 7" stroke-width="1.5" stroke-linecap="round" stroke-linejoin="round"/></symbol><symbol fill="none" stroke="currentColor" viewBox="0 0 24 24" id="chevron-double-down" xmlns="http://www.w3.org/2000/svg"><path d="M19 13l-7 7-7-7m14-8l-7 7-7-7" stroke-width="1.5" stroke-linecap="round" stroke-linejoin="round"/></symbol><symbol fill="none" stroke="currentColor" viewBox="0 0 24 24" id="chevron-double-left" xmlns="http://www.w3.org/2000/svg"><path d="M11 19l-7-7 7-7m8 14l-7-7 7-7" stroke-width="1.5" stroke-linecap="round" stroke-linejoin="round"/></symbol><symbol fill="none" stroke="currentColor" viewBox="0 0 24 24" id="chevron-double-right" xmlns="http://www.w3.org/2000/svg"><path d="M13 5l7 7-7 7M5 5l7 7-7 7" stroke-width="1.5" stroke-linecap="round" stroke-linejoin="round"/></symbol><symbol fill="none" stroke="currentColor" viewBox="0 0 24 24" id="chevron-double-up" xmlns="http://www.w3.org/2000/svg"><path d="M5 11l7-7 7 7M5 19l7-7 7 7" stroke-width="1.5" stroke-linecap="round" stroke-linejoin="round"/></symbol><symbol fill="none" stroke="currentColor" viewBox="0 0 24 24" id="chip" xmlns="http://www.w3.org/2000/svg"><path d="M9 3v2m6-2v2M9 19v2m6-2v2M5 9H3m2 6H3m18-6h-2m2 6h-2M7 19h10a2 2 0 002-2V7a2 2 0 00-2-2H7a2 2 0 00-2 2v10a2 2 0 002 2zM9 9h6v6H9V9z" stroke-width="1.5" stroke-linecap="round" stroke-linejoin="round"/></symbol><symbol fill="none" stroke="currentColor" viewBox="0 0 24 24" id="clipboard" xmlns="http://www.w3.org/2000/svg"><path d="M18 7v12h2V7h-2zm-1 13H7v2h10v-2zM6 19V7H4v12h2zM7 6h2V4H7v2zm8 0h2V4h-2v2zM7 20a1 1 0 01-1-1H4a3 3 0 003 3v-2zm11-1a1 1 0 01-1 1v2a3 3 0 003-3h-2zm2-12a3 3 0 00-3-3v2a1 1 0 011 1h2zM6 7a1 1 0 011-1V4a3 3 0 00-3 3h2zm5-3h2V2h-2v2zm2 2h-2v2h2V6zm-2 0a1 1 0 01-1-1H8a3 3 0 003 3V6zm3-1a1 1 0 01-1 1v2a3 3 0 003-3h-2zm-1-1a1 1 0 011 1h2a3 3 0 00-3-3v2zm-2-2a3 3 0 00-3 3h2a1 1 0 011-1V2z"/></symbol><symbol fill="none" stroke="currentColor" viewBox="0 0 24 24" id="clipboard-check" xmlns="http://www.w3.org/2000/svg"><path d="M9.707 13.293a1 1 0 00-1.414 1.414l1.414-1.414zM11 16l-.707.707a1 1 0 001.414 0L11 16zm4.707-3.293a1 1 0 00-1.414-1.414l1.414 1.414zM18 7v12h2V7h-2zm-1 13H7v2h10v-2zM6 19V7H4v12h2zM7 6h2V4H7v2zm8 0h2V4h-2v2zM7 20a1 1 0 01-1-1H4a3 3 0 003 3v-2zm11-1a1 1 0 01-1 1v2a3 3 0 003-3h-2zm2-12a3 3 0 00-3-3v2a1 1 0 011 1h2zM6 7a1 1 0 011-1V4a3 3 0 00-3 3h2zm2.293 7.707l2 2 1.414-1.414-2-2-1.414 1.414zm3.414 2l4-4-1.414-1.414-4 4 1.414 1.414zM11 4h2V2h-2v2zm2 2h-2v2h2V6zm-2 0a1 1 0 01-1-1H8a3 3 0 003 3V6zm3-1a1 1 0 01-1 1v2a3 3 0 003-3h-2zm-1-1a1 1 0 011 1h2a3 3 0 00-3-3v2zm-2-2a3 3 0 00-3 3h2a1 1 0 011-1V2z"/></symbol><symbol fill="none" stroke="currentColor" viewBox="0 0 24 24" id="clipboard-copy" xmlns="http://www.w3.org/2000/svg"><path d="M8 5H6a2 2 0 00-2 2v12a2 2 0 002 2h10a2 2 0 002-2v-1M8 5a2 2 0 002 2h2a2 2 0 002-2M8 5a2 2 0 012-2h2a2 2 0 012 2m0 0h2a2 2 0 012 2v3m2 4H10m0 0l3-3m-3 3l3 3" stroke-width="1.5" stroke-linecap="round" stroke-linejoin="round"/></symbol><symbol fill="none" stroke="currentColor" viewBox="0 0 24 24" id="clipboard-list" xmlns="http://www.w3.org/2000/svg"><path d="M12 11a1 1 0 100 2v-2zm3 2a1 1 0 100-2v2zm-3 2a1 1 0 100 2v-2zm3 2a1 1 0 100-2v2zm-6-6a1 1 0 100 2v-2zm.01 2a1 1 0 100-2v2zM9 15a1 1 0 100 2v-2zm.01 2a1 1 0 100-2v2zM18 7v12h2V7h-2zm-1 13H7v2h10v-2zM6 19V7H4v12h2zM7 6h2V4H7v2zm8 0h2V4h-2v2zM7 20a1 1 0 01-1-1H4a3 3 0 003 3v-2zm11-1a1 1 0 01-1 1v2a3 3 0 003-3h-2zm2-12a3 3 0 00-3-3v2a1 1 0 011 1h2zM6 7a1 1 0 011-1V4a3 3 0 00-3 3h2zm6 6h3v-2h-3v2zm0 4h3v-2h-3v2zM11 4h2V2h-2v2zm2 2h-2v2h2V6zm-2 0a1 1 0 01-1-1H8a3 3 0 003 3V6zm3-1a1 1 0 01-1 1v2a3 3 0 003-3h-2zm-1-1a1 1 0 011 1h2a3 3 0 00-3-3v2zm-2-2a3 3 0 00-3 3h2a1 1 0 011-1V2zM9 13h.01v-2H9v2zm0 4h.01v-2H9v2z"/></symbol><symbol fill="none" stroke="currentColor" viewBox="0 0 24 24" id="clock" xmlns="http://www.w3.org/2000/svg"><path d="M12 8v4l3 3m6-3a9 9 0 11-18 0 9 9 0 0118 0z" stroke-width="1.5" stroke-linecap="round" stroke-linejoin="round"/></symbol><symbol fill="none" stroke="currentColor" viewBox="0 0 24 24" id="cloud" xmlns="http://www.w3.org/2000/svg"><path d="M3 15a4 4 0 004 4h9a5 5 0 10-.1-9.999 5.002 5.002 0 10-9.78 2.096A4.001 4.001 0 003 15z" stroke-width="1.5" stroke-linecap="round" stroke-linejoin="round"/></symbol><symbol fill="none" stroke="currentColor" viewBox="0 0 24 24" id="cloud-download" xmlns="http://www.w3.org/2000/svg"><path d="M7 16a4 4 0 01-.88-7.903A5 5 0 1115.9 6L16 6a5 5 0 011 9.9M9 19l3 3m0 0l3-3m-3 3V10" stroke-width="1.5" stroke-linecap="round" stroke-linejoin="round"/></symbol><symbol fill="none" stroke="currentColor" viewBox="0 0 24 24" id="cloud-upload" xmlns="http://www.w3.org/2000/svg"><path d="M7 16a4 4 0 01-.88-7.903A5 5 0 1115.9 6L16 6a5 5 0 011 9.9M15 13l-3-3m0 0l-3 3m3-3v12" stroke-width="1.5" stroke-linecap="round" stroke-linejoin="round"/></symbol><symbol fill="none" stroke="currentColor" viewBox="0 0 24 24" id="code" xmlns="http://www.w3.org/2000/svg"><path d="M10 20l4-16m4 4l4 4-4 4M6 16l-4-4 4-4" stroke-width="1.5" stroke-linecap="round" stroke-linejoin="round"/></symbol><symbol fill="none" stroke="currentColor" viewBox="0 0 24 24" id="cog" xmlns="http://www.w3.org/2000/svg"><path d="M10.325 4.317c.426-1.756 2.924-1.756 3.35 0a1.724 1.724 0 002.573 1.066c1.543-.94 3.31.826 2.37 2.37a1.724 1.724 0 001.065 2.572c1.756.426 1.756 2.924 0 3.35a1.724 1.724 0 00-1.066 2.573c.94 1.543-.826 3.31-2.37 2.37a1.724 1.724 0 00-2.572 1.065c-.426 1.756-2.924 1.756-3.35 0a1.724 1.724 0 00-2.573-1.066c-1.543.94-3.31-.826-2.37-2.37a1.724 1.724 0 00-1.065-2.572c-1.756-.426-1.756-2.924 0-3.35a1.724 1.724 0 001.066-2.573c-.94-1.543.826-3.31 2.37-2.37.996.608 2.296.07 2.572-1.065z" stroke-width="1.5" stroke-linecap="round" stroke-linejoin="round"/><path d="M15 12a3 3 0 11-6 0 3 3 0 016 0z" stroke-width="1.5" stroke-linecap="round" stroke-linejoin="round"/></symbol><symbol fill="none" stroke="currentColor" viewBox="0 0 24 24" id="collection" xmlns="http://www.w3.org/2000/svg"><path d="M19 11H5m14 0a2 2 0 012 2v6a2 2 0 01-2 2H5a2 2 0 01-2-2v-6a2 2 0 012-2m14 0V9a2 2 0 00-2-2M5 11V9a2 2 0 012-2m0 0V5a2 2 0 012-2h6a2 2 0 012 2v2M7 7h10" stroke-width="1.5" stroke-linecap="round" stroke-linejoin="round"/></symbol><symbol fill="none" stroke="currentColor" viewBox="0 0 24 24" id="color-swatch" xmlns="http://www.w3.org/2000/svg"><path d="M7 21a4 4 0 01-4-4V5a2 2 0 012-2h4a2 2 0 012 2v12a4 4 0 01-4 4zm0 0h12a2 2 0 002-2v-4a2 2 0 00-2-2h-2.343M11 7.343l1.657-1.657a2 2 0 012.828 0l2.829 2.829a2 2 0 010 2.828l-8.486 8.485M7 17h.01" stroke-width="1.5" stroke-linecap="round" stroke-linejoin="round"/></symbol><symbol fill="none" stroke="currentColor" viewBox="0 0 24 24" id="credit-card" xmlns="http://www.w3.org/2000/svg"><path d="M3 10h18M7 15h1m4 0h1m-7 4h12a3 3 0 003-3V8a3 3 0 00-3-3H6a3 3 0 00-3 3v8a3 3 0 003 3z" stroke-width="1.5" stroke-linecap="round" stroke-linejoin="round"/></symbol><symbol fill="none" stroke="currentColor" viewBox="0 0 24 24" id="cube" xmlns="http://www.w3.org/2000/svg"><path d="M12 3l.447-.894a1 1 0 00-.894 0L12 3zm8 4h1a1 1 0 00-.553-.894L20 7zM4 7l-.447-.894A1 1 0 003 7h1zm16 10l.447.894A1 1 0 0021 17h-1zm-8 4l-.447.894a1 1 0 00.894 0L12 21zm-8-4H3a1 1 0 00.553.894L4 17zm7.553-13.106l8 4 .894-1.788-8-4-.894 1.788zm8 2.212l-8 4 .894 1.788 8-4-.894-1.788zm-7.106 4l-8-4-.894 1.788 8 4 .894-1.788zm-8-2.212l8-4-.894-1.788-8 4 .894 1.788zm15.106 8.212l-8 4 .894 1.788 8-4-.894-1.788zm-7.106 4l-8-4-.894 1.788 8 4 .894-1.788zM5 17V7H3v10h2zm16 0V7h-2v10h2zm-10-6v10h2V11h-2z"/></symbol><symbol fill="none" stroke="currentColor" viewBox="0 0 24 24" id="cube-transparent" xmlns="http://www.w3.org/2000/svg"><path d="M14 10l-2 1m0 0l-2-1m2 1v2.5M20 7l-2 1m2-1l-2-1m2 1v2.5M14 4l-2-1-2 1M4 7l2-1M4 7l2 1M4 7v2.5M12 21l-2-1m2 1l2-1m-2 1v-2.5M6 18l-2-1v-2.5M18 18l2-1v-2.5" stroke-width="1.5" stroke-linecap="round" stroke-linejoin="round"/></symbol><symbol fill="none" stroke="currentColor" viewBox="0 0 24 24" id="currency-bangladeshi" xmlns="http://www.w3.org/2000/svg"><path d="M11 11V9a2 2 0 00-2-2m2 4v4a2 2 0 104 0v-1m-4-3H9m2 0h4m6 1a9 9 0 11-18 0 9 9 0 0118 0z" stroke-width="1.5" stroke-linecap="round" stroke-linejoin="round"/></symbol><symbol fill="none" stroke="currentColor" viewBox="0 0 24 24" id="currency-dollar" xmlns="http://www.w3.org/2000/svg"><path d="M13.843 9.655a1 1 0 101.511-1.31l-1.51 1.31zm-3.686 4.69a1 1 0 00-1.51 1.31l1.51-1.31zM13 7a1 1 0 10-2 0h2zm-2 10a1 1 0 102 0h-2zm9-5a8 8 0 01-8 8v2c5.523 0 10-4.477 10-10h-2zm-8 8a8 8 0 01-8-8H2c0 5.523 4.477 10 10 10v-2zm-8-8a8 8 0 018-8V2C6.477 2 2 6.477 2 12h2zm8-8a8 8 0 018 8h2c0-5.523-4.477-10-10-10v2zm0 7c-.659 0-1.21-.18-1.567-.418C10.07 10.34 10 10.114 10 10H8c0 .99.602 1.765 1.324 2.246.729.486 1.678.754 2.676.754v-2zm-2-1c0-.114.07-.34.433-.582C10.79 9.18 11.342 9 12 9V7c-.998 0-1.947.268-2.676.754C8.602 8.234 8 9.009 8 10h2zm2-1c.904 0 1.563.332 1.843.655l1.511-1.31C14.597 7.472 13.317 7 12 7v2zm0 4c.659 0 1.21.18 1.567.418.364.243.433.468.433.582h2c0-.99-.602-1.765-1.324-2.246C13.947 11.268 12.998 11 12 11v2zm-1-6v1h2V7h-2zm0 9v1h2v-1h-2zm1-1c-.904 0-1.563-.332-1.843-.655l-1.51 1.31C9.402 16.528 10.682 17 12 17v-2zm2-1c0 .114-.07.34-.433.582-.357.238-.908.418-1.567.418v2c.998 0 1.947-.268 2.676-.754C15.398 15.766 16 14.991 16 14h-2zm-3-6v8h2V8h-2z"/></symbol><symbol fill="none" stroke="currentColor" viewBox="0 0 24 24" id="currency-euro" xmlns="http://www.w3.org/2000/svg"><path d="M14.121 15.536c-1.171 1.952-3.07 1.952-4.242 0-1.172-1.953-1.172-5.119 0-7.072 1.171-1.952 3.07-1.952 4.242 0M8 10.5h4m-4 3h4m9-1.5a9 9 0 11-18 0 9 9 0 0118 0z" stroke-width="1.5" stroke-linecap="round" stroke-linejoin="round"/></symbol><symbol fill="none" stroke="currentColor" viewBox="0 0 24 24" id="currency-pound" xmlns="http://www.w3.org/2000/svg"><path d="M15 9a2 2 0 10-4 0v5a2 2 0 01-2 2h6m-6-4h4m8 0a9 9 0 11-18 0 9 9 0 0118 0z" stroke-width="1.5" stroke-linecap="round" stroke-linejoin="round"/></symbol><symbol fill="none" stroke="currentColor" viewBox="0 0 24 24" id="currency-rupee" xmlns="http://www.w3.org/2000/svg"><path d="M9 8h6m-5 0a3 3 0 110 6H9l3 3m-3-6h6m6 1a9 9 0 11-18 0 9 9 0 0118 0z" stroke-width="1.5" stroke-linecap="round" stroke-linejoin="round"/></symbol><symbol fill="none" stroke="currentColor" viewBox="0 0 24 24" id="currency-yen" xmlns="http://www.w3.org/2000/svg"><path d="M9 8l3 5m0 0l3-5m-3 5v4m-3-5h6m-6 3h6m6-3a9 9 0 11-18 0 9 9 0 0118 0z" stroke-width="1.5" stroke-linecap="round" stroke-linejoin="round"/></symbol><symbol fill="none" stroke="currentColor" viewBox="0 0 24 24" id="cursor-click" xmlns="http://www.w3.org/2000/svg"><path d="M15 15l-2 5L9 9l11 4-5 2zm0 0l5 5M7.188 2.239l.777 2.897M5.136 7.965l-2.898-.777M13.95 4.05l-2.122 2.122m-5.656 5.656L4.05 13.95" stroke-width="1.5" stroke-linecap="round" stroke-linejoin="round"/></symbol><symbol fill="none" stroke="currentColor" viewBox="0 0 24 24" id="database" xmlns="http://www.w3.org/2000/svg"><path d="M4 7v10c0 2.21 3.582 4 8 4s8-1.79 8-4V7M4 7c0 2.21 3.582 4 8 4s8-1.79 8-4M4 7c0-2.21 3.582-4 8-4s8 1.79 8 4m0 5c0 2.21-3.582 4-8 4s-8-1.79-8-4" stroke-width="1.5"/></symbol><symbol fill="none" stroke="currentColor" viewBox="0 0 24 24" id="desktop-computer" xmlns="http://www.w3.org/2000/svg"><path d="M9.75 17L9 20l-1 1h8l-1-1-.75-3M3 13h18M5 17h14a2 2 0 002-2V5a2 2 0 00-2-2H5a2 2 0 00-2 2v10a2 2 0 002 2z" stroke-width="1.5" stroke-linecap="round" stroke-linejoin="round"/></symbol><symbol fill="none" stroke="currentColor" viewBox="0 0 24 24" id="device-mobile" xmlns="http://www.w3.org/2000/svg"><path d="M12 18h.01M8 21h8a2 2 0 002-2V5a2 2 0 00-2-2H8a2 2 0 00-2 2v14a2 2 0 002 2z" stroke-width="1.5" stroke-linecap="round" stroke-linejoin="round"/></symbol><symbol fill="none" stroke="currentColor" viewBox="0 0 24 24" id="device-tablet" xmlns="http://www.w3.org/2000/svg"><path d="M12 18h.01M7 21h10a2 2 0 002-2V5a2 2 0 00-2-2H7a2 2 0 00-2 2v14a2 2 0 002 2z" stroke-width="1.5" stroke-linecap="round" stroke-linejoin="round"/></symbol><symbol fill="none" stroke="currentColor" viewBox="0 0 24 24" id="document" xmlns="http://www.w3.org/2000/svg"><path d="M7 21h10a2 2 0 002-2V9.414a1 1 0 00-.293-.707l-5.414-5.414A1 1 0 0012.586 3H7a2 2 0 00-2 2v14a2 2 0 002 2z" stroke-width="1.5" stroke-linecap="round" stroke-linejoin="round"/></symbol><symbol fill="none" stroke="currentColor" viewBox="0 0 24 24" id="document-add" xmlns="http://www.w3.org/2000/svg"><path d="M9 13h6m-3-3v6m5 5H7a2 2 0 01-2-2V5a2 2 0 012-2h5.586a1 1 0 01.707.293l5.414 5.414a1 1 0 01.293.707V19a2 2 0 01-2 2z" stroke-width="1.5" stroke-linecap="round" stroke-linejoin="round"/></symbol><symbol fill="none" stroke="currentColor" viewBox="0 0 24 24" id="document-download" xmlns="http://www.w3.org/2000/svg"><path d="M12 10v6m0 0l-3-3m3 3l3-3m2 8H7a2 2 0 01-2-2V5a2 2 0 012-2h5.586a1 1 0 01.707.293l5.414 5.414a1 1 0 01.293.707V19a2 2 0 01-2 2z" stroke-width="1.5" stroke-linecap="round" stroke-linejoin="round"/></symbol><symbol fill="none" stroke="currentColor" viewBox="0 0 24 24" id="document-duplicate" xmlns="http://www.w3.org/2000/svg"><path d="M8 7v8a2 2 0 002 2h6M8 7V5a2 2 0 012-2h4.586a1 1 0 01.707.293l4.414 4.414a1 1 0 01.293.707V15a2 2 0 01-2 2h-2M8 7H6a2 2 0 00-2 2v10a2 2 0 002 2h8a2 2 0 002-2v-2" stroke-width="1.5" stroke-linecap="round" stroke-linejoin="round"/></symbol><symbol fill="none" stroke="currentColor" viewBox="0 0 24 24" id="document-remove" xmlns="http://www.w3.org/2000/svg"><path d="M9 13h6m2 8H7a2 2 0 01-2-2V5a2 2 0 012-2h5.586a1 1 0 01.707.293l5.414 5.414a1 1 0 01.293.707V19a2 2 0 01-2 2z" stroke-width="1.5" stroke-linecap="round" stroke-linejoin="round"/></symbol><symbol fill="none" stroke="currentColor" viewBox="0 0 24 24" id="document-report" xmlns="http://www.w3.org/2000/svg"><path d="M9 17v-2m3 2v-4m3 4v-6m2 10H7a2 2 0 01-2-2V5a2 2 0 012-2h5.586a1 1 0 01.707.293l5.414 5.414a1 1 0 01.293.707V19a2 2 0 01-2 2z" stroke-width="1.5" stroke-linecap="round" stroke-linejoin="round"/></symbol><symbol fill="none" stroke="currentColor" viewBox="0 0 24 24" id="document-search" xmlns="http://www.w3.org/2000/svg"><path d="M13.293 3.293L12.586 4l.707-.707zm5.414 5.414L19.414 8l-.707.707zM10 20a1 1 0 100 2v-2zm-6-4a1 1 0 102 0H4zm.293 4.293a1 1 0 101.414 1.414l-1.414-1.414zM7 4h5.586V2H7v2zm11 5.414V19h2V9.414h-2zM12.586 4L18 9.414 19.414 8 14 2.586 12.586 4zM20 9.414A2 2 0 0019.414 8L18 9.414h2zM12.586 4L14 2.586A2 2 0 0012.586 2v2zM17 22a3 3 0 003-3h-2a1 1 0 01-1 1v2zM6 5a1 1 0 011-1V2a3 3 0 00-3 3h2zm11 15h-7v2h7v-2zM6 16V5H4v11h2zm8-2a2 2 0 01-2 2v2a4 4 0 004-4h-2zm-4 0a2 2 0 012-2v-2a4 4 0 00-4 4h2zm2-2a2 2 0 012 2h2a4 4 0 00-4-4v2zm-2.828 3.414l-4.88 4.879 1.415 1.414 4.879-4.879-1.414-1.414zM12 16a1.99 1.99 0 01-1.414-.586l-1.414 1.414A3.99 3.99 0 0012 18v-2zm-1.414-.586A1.99 1.99 0 0110 14H8a3.99 3.99 0 001.172 2.828l1.414-1.414z"/></symbol><symbol fill="none" stroke="currentColor" viewBox="0 0 24 24" id="document-text" xmlns="http://www.w3.org/2000/svg"><path d="M9 12h6m-6 4h6m2 5H7a2 2 0 01-2-2V5a2 2 0 012-2h5.586a1 1 0 01.707.293l5.414 5.414a1 1 0 01.293.707V19a2 2 0 01-2 2z" stroke-width="1.5" stroke-linecap="round" stroke-linejoin="round"/></symbol><symbol fill="none" stroke="currentColor" viewBox="0 0 24 24" id="dots-circle-horizontal" xmlns="http://www.w3.org/2000/svg"><path d="M8 12h.01M12 12h.01M16 12h.01M21 12a9 9 0 11-18 0 9 9 0 0118 0z" stroke-width="1.5" stroke-linecap="round" stroke-linejoin="round"/></symbol><symbol fill="none" stroke="currentColor" viewBox="0 0 24 24" id="dots-horizontal" xmlns="http://www.w3.org/2000/svg"><path d="M5 12h.01M12 12h.01M19 12h.01M6 12a1 1 0 11-2 0 1 1 0 012 0zm7 0a1 1 0 11-2 0 1 1 0 012 0zm7 0a1 1 0 11-2 0 1 1 0 012 0z" stroke-width="1.5" stroke-linecap="round" stroke-linejoin="round"/></symbol><symbol fill="none" stroke="currentColor" viewBox="0 0 24 24" id="dots-vertical" xmlns="http://www.w3.org/2000/svg"><path d="M12 5v.01M12 12v.01M12 19v.01M12 6a1 1 0 110-2 1 1 0 010 2zm0 7a1 1 0 110-2 1 1 0 010 2zm0 7a1 1 0 110-2 1 1 0 010 2z" stroke-width="1.5" stroke-linecap="round" stroke-linejoin="round"/></symbol><symbol fill="none" stroke="currentColor" viewBox="0 0 24 24" id="download" xmlns="http://www.w3.org/2000/svg"><path d="M4 16v1a3 3 0 003 3h10a3 3 0 003-3v-1m-4-4l-4 4m0 0l-4-4m4 4V4" stroke-width="1.5" stroke-linecap="round" stroke-linejoin="round"/></symbol><symbol fill="none" stroke="currentColor" viewBox="0 0 24 24" id="duplicate" xmlns="http://www.w3.org/2000/svg"><path d="M8 16H6a2 2 0 01-2-2V6a2 2 0 012-2h8a2 2 0 012 2v2m-6 12h8a2 2 0 002-2v-8a2 2 0 00-2-2h-8a2 2 0 00-2 2v8a2 2 0 002 2z" stroke-width="1.5" stroke-linecap="round" stroke-linejoin="round"/></symbol><symbol fill="none" stroke="currentColor" viewBox="0 0 24 24" id="emoji-happy" xmlns="http://www.w3.org/2000/svg"><path d="M14.828 14.828a4 4 0 01-5.656 0M9 10h.01M15 10h.01M21 12a9 9 0 11-18 0 9 9 0 0118 0z" stroke-width="1.5" stroke-linecap="round" stroke-linejoin="round"/></symbol><symbol fill="none" stroke="currentColor" viewBox="0 0 24 24" id="emoji-sad" xmlns="http://www.w3.org/2000/svg"><path d="M9.172 16.172a4 4 0 015.656 0M9 10h.01M15 10h.01M21 12a9 9 0 11-18 0 9 9 0 0118 0z" stroke-width="1.5" stroke-linecap="round" stroke-linejoin="round"/></symbol><symbol fill="none" stroke="currentColor" viewBox="0 0 24 24" id="exclamation" xmlns="http://www.w3.org/2000/svg"><path d="M12 9v2m0 4h.01m-6.938 4h13.856c1.54 0 2.502-1.667 1.732-3L13.732 4c-.77-1.333-2.694-1.333-3.464 0L3.34 16c-.77 1.333.192 3 1.732 3z" stroke-width="1.5" stroke-linecap="round" stroke-linejoin="round"/></symbol><symbol fill="none" stroke="currentColor" viewBox="0 0 24 24" id="exclamation-circle" xmlns="http://www.w3.org/2000/svg"><path d="M12 8v4m0 4h.01M21 12a9 9 0 11-18 0 9 9 0 0118 0z" stroke-width="1.5" stroke-linecap="round" stroke-linejoin="round"/></symbol><symbol fill="none" stroke="currentColor" viewBox="0 0 24 24" id="external-link" xmlns="http://www.w3.org/2000/svg"><path d="M10 6H6a2 2 0 00-2 2v10a2 2 0 002 2h10a2 2 0 002-2v-4M14 4h6m0 0v6m0-6L10 14" stroke-width="1.5" stroke-linecap="round" stroke-linejoin="round"/></symbol><symbol fill="none" stroke="currentColor" viewBox="0 0 24 24" id="eye" xmlns="http://www.w3.org/2000/svg"><path d="M15 12a3 3 0 11-6 0 3 3 0 016 0z" stroke-width="1.5" stroke-linecap="round" stroke-linejoin="round"/><path d="M2.458 12C3.733 7.943 7.523 5 12 5c4.478 0 8.268 2.943 9.543 7-1.275 4.057-5.065 7-9.542 7-4.478 0-8.268-2.943-9.543-7z" stroke-width="1.5" stroke-linecap="round" stroke-linejoin="round"/></symbol><symbol fill="none" stroke="currentColor" viewBox="0 0 24 24" id="eye-off" xmlns="http://www.w3.org/2000/svg"><path d="M3 3l3.59 3.59M21 21l-3.589-3.589m-3.536 1.414A10.05 10.05 0 0112 19c-4.478 0-8.268-2.943-9.543-7a9.97 9.97 0 011.563-3.029m5.858.908a3 3 0 114.243 4.243M9.878 9.878l4.242 4.242M9.88 9.88l-3.29-3.29m7.532 7.532L6.59 6.59m7.532 7.532l3.29 3.29M6.59 6.59A9.953 9.953 0 0112 5c4.478 0 8.268 2.943 9.543 7a10.025 10.025 0 01-4.132 5.411" stroke-width="1.5" stroke-linecap="round" stroke-linejoin="round"/></symbol><symbol fill="none" stroke="currentColor" viewBox="0 0 24 24" id="fast-forward" xmlns="http://www.w3.org/2000/svg"><path d="M11.933 12.8a1 1 0 000-1.6L6.6 7.2A1 1 0 005 8v8a1 1 0 001.6.8l5.333-4zM19.933 12.8a1 1 0 000-1.6l-5.333-4A1 1 0 0013 8v8a1 1 0 001.6.8l5.333-4z" stroke-width="1.5" stroke-linecap="round" stroke-linejoin="round"/></symbol><symbol fill="none" stroke="currentColor" viewBox="0 0 24 24" id="film" xmlns="http://www.w3.org/2000/svg"><path d="M7 4v16M17 4v16M3 8h4m10 0h4M3 12h18M3 16h4m10 0h4M4 20h16a1 1 0 001-1V5a1 1 0 00-1-1H4a1 1 0 00-1 1v14a1 1 0 001 1z" stroke-width="1.5"/></symbol><symbol fill="none" stroke="currentColor" viewBox="0 0 24 24" id="filter" xmlns="http://www.w3.org/2000/svg"><path d="M3 4a1 1 0 011-1h16a1 1 0 011 1v2.586a1 1 0 01-.293.707l-6.414 6.414a1 1 0 00-.293.707V17l-4 4v-6.586a1 1 0 00-.293-.707L3.293 7.293A1 1 0 013 6.586V4z" stroke-width="1.5" stroke-linecap="round" stroke-linejoin="round"/></symbol><symbol fill="none" stroke="currentColor" viewBox="0 0 24 24" id="finger-print" xmlns="http://www.w3.org/2000/svg"><path d="M13 11a1 1 0 10-2 0h2zm-4.6 9.039a1 1 0 001.694 1.065L8.4 20.039zM5.862 18.44l-.846-.532.846.532zm-.914-.421a1 1 0 001.72 1.021l-1.72-1.021zm7.838 2.376a1 1 0 001.788.895l-1.788-.895zm3.348-3.124a1 1 0 00-1.924-.544l1.924.544zm-1.327-3.407a1 1 0 001.981.27l-1.981-.27zm3.242 3.993a1 1 0 101.924.548l-1.924-.548zM2.1 14.928a1 1 0 101.798.873l-1.798-.874zM7.499 3.204a1 1 0 001.002 1.73l-1.002-1.73zM5.936 7.5a1 1 0 00-1.731-1.002l1.73 1.002zM11 11c0 3.323-.953 6.421-2.6 9.039l1.694 1.065A18.916 18.916 0 0013 11h-2zm6 0a5 5 0 00-5-5v2a3 3 0 013 3h2zM7 11c0 2.548-.728 4.91-1.985 6.909l1.693 1.065A14.916 14.916 0 009 11H7zm5-5a5 5 0 00-5 5h2a3 3 0 013-3V6zM5.015 17.909a5.053 5.053 0 00-.068.11l1.72 1.022a3.06 3.06 0 01.04-.067l-1.692-1.065zm9.558 3.383a22.876 22.876 0 001.56-4.02l-1.924-.544a20.882 20.882 0 01-1.424 3.668l1.788.895zm2.214-7.157C16.927 13.11 17 12.063 17 11h-2c0 .972-.066 1.928-.194 2.865l1.981.27zM21 11a9 9 0 00-9-9v2a7 7 0 017 7h2zm-1.029 7.406A27.018 27.018 0 0021 11h-2c0 2.38-.332 4.68-.952 6.858l1.924.548zM3 11a8.96 8.96 0 01-.9 3.927l1.8.874A10.96 10.96 0 005 11H3zm9-9a8.963 8.963 0 00-4.5 1.205l1 1.73A6.963 6.963 0 0112 4V2zM4.205 6.5A8.963 8.963 0 003 11h2c0-1.277.34-2.47.936-3.5l-1.731-1z"/></symbol><symbol fill="none" stroke="currentColor" viewBox="0 0 24 24" id="fire" xmlns="http://www.w3.org/2000/svg"><path d="M17.657 18.657A8 8 0 016.343 7.343S7 9 9 10c0-2 .5-5 2.986-7C14 5 16.09 5.777 17.656 7.343A7.975 7.975 0 0120 13a7.975 7.975 0 01-2.343 5.657z" stroke-width="1.5" stroke-linecap="round" stroke-linejoin="round"/><path d="M9.879 16.121A3 3 0 1012.015 11L11 14H9c0 .768.293 1.536.879 2.121z" stroke-width="1.5" stroke-linecap="round" stroke-linejoin="round"/></symbol><symbol fill="none" stroke="currentColor" viewBox="0 0 24 24" id="flag" xmlns="http://www.w3.org/2000/svg"><path d="M3 21v-4m0 0V5a2 2 0 012-2h6.5l1 1H21l-3 6 3 6h-8.5l-1-1H5a2 2 0 00-2 2zm9-13.5V9" stroke-width="1.5" stroke-linecap="round" stroke-linejoin="round"/></symbol><symbol fill="none" stroke="currentColor" viewBox="0 0 24 24" id="folder" xmlns="http://www.w3.org/2000/svg"><path d="M3 7v10a2 2 0 002 2h14a2 2 0 002-2V9a2 2 0 00-2-2h-6l-2-2H5a2 2 0 00-2 2z" stroke-width="1.5" stroke-linecap="round" stroke-linejoin="round"/></symbol><symbol fill="none" stroke="currentColor" viewBox="0 0 24 24" id="folder-add" xmlns="http://www.w3.org/2000/svg"><path d="M9 13h6m-3-3v6m-9 1V7a2 2 0 012-2h6l2 2h6a2 2 0 012 2v8a2 2 0 01-2 2H5a2 2 0 01-2-2z" stroke-width="1.5" stroke-linecap="round" stroke-linejoin="round"/></symbol><symbol fill="none" stroke="currentColor" viewBox="0 0 24 24" id="folder-download" xmlns="http://www.w3.org/2000/svg"><path d="M12 10v6m0 0l-3-3m3 3l3-3M3 17V7a2 2 0 012-2h6l2 2h6a2 2 0 012 2v8a2 2 0 01-2 2H5a2 2 0 01-2-2z" stroke-width="1.5" stroke-linecap="round" stroke-linejoin="round"/></symbol><symbol fill="none" stroke="currentColor" viewBox="0 0 24 24" id="folder-open" xmlns="http://www.w3.org/2000/svg"><path d="M9 5l.707-.707L9.414 4H9v1zm2 2l-.707.707.293.293H11V7zm5 3a1 1 0 102 0h-2zM4 17V7H2v10h2zM5 6h4V4H5v2zm3.293-.293l2 2 1.414-1.414-2-2-1.414 1.414zM11 8h4V6h-4v2zm4 0a1 1 0 011 1h2a3 3 0 00-3-3v2zM4 7a1 1 0 011-1V4a3 3 0 00-3 3h2zM2 17a3 3 0 003 3v-2a1 1 0 01-1-1H2zm14-8v1h2V9h-2zm-8 3a1 1 0 011-1V9a3 3 0 00-3 3h2zm1-1h10V9H9v2zm10 0a1 1 0 011 1h2a3 3 0 00-3-3v2zm1 1v5h2v-5h-2zm0 5a1 1 0 01-1 1v2a3 3 0 003-3h-2zm-1 1H5v2h14v-2zM5 20a3 3 0 003-3H6a1 1 0 01-1 1v2zm3-3v-5H6v5h2z"/></symbol><symbol fill="none" stroke="currentColor" viewBox="0 0 24 24" id="folder-remove" xmlns="http://www.w3.org/2000/svg"><path d="M9 13h6M3 17V7a2 2 0 012-2h6l2 2h6a2 2 0 012 2v8a2 2 0 01-2 2H5a2 2 0 01-2-2z" stroke-width="1.5" stroke-linecap="round" stroke-linejoin="round"/></symbol><symbol fill="none" stroke="currentColor" viewBox="0 0 24 24" id="gift" xmlns="http://www.w3.org/2000/svg"><path d="M12 8v13m0-13V6a2 2 0 112 2h-2zm0 0V5.5A2.5 2.5 0 109.5 8H12zm-7 4h14M5 12a2 2 0 110-4h14a2 2 0 110 4M5 12v7a2 2 0 002 2h10a2 2 0 002-2v-7" stroke-width="1.5" stroke-linecap="round" stroke-linejoin="round"/></symbol><symbol fill="none" stroke="currentColor" viewBox="0 0 24 24" id="globe" xmlns="http://www.w3.org/2000/svg"><path d="M3.055 11H5a2 2 0 012 2v1a2 2 0 002 2 2 2 0 012 2v2.945M8 3.935V5.5A2.5 2.5 0 0010.5 8h.5a2 2 0 012 2 2 2 0 104 0 2 2 0 012-2h1.064M15 20.488V18a2 2 0 012-2h3.064M21 12a9 9 0 11-18 0 9 9 0 0118 0z" stroke-width="1.5" stroke-linecap="round" stroke-linejoin="round"/></symbol><symbol fill="none" stroke="currentColor" viewBox="0 0 24 24" id="globe-alt" xmlns="http://www.w3.org/2000/svg"><path d="M21 12a9 9 0 01-9 9m9-9a9 9 0 00-9-9m9 9H3m9 9a9 9 0 01-9-9m9 9c1.657 0 3-4.03 3-9s-1.343-9-3-9m0 18c-1.657 0-3-4.03-3-9s1.343-9 3-9m-9 9a9 9 0 019-9" stroke-width="1.5" stroke-linecap="round" stroke-linejoin="round"/></symbol><symbol fill="none" stroke="currentColor" viewBox="0 0 24 24" id="hand" xmlns="http://www.w3.org/2000/svg"><path d="M7 11.5V14m0-2.5v-6a1.5 1.5 0 113 0m-3 6a1.5 1.5 0 00-3 0v2a7.5 7.5 0 0015 0v-5a1.5 1.5 0 00-3 0m-6-3V11m0-5.5v-1a1.5 1.5 0 013 0v1m0 0V11m0-5.5a1.5 1.5 0 013 0v3m0 0V11" stroke-width="1.5" stroke-linecap="round" stroke-linejoin="round"/></symbol><symbol fill="none" stroke="currentColor" viewBox="0 0 24 24" id="hashtag" xmlns="http://www.w3.org/2000/svg"><path d="M7 20l4-16m2 16l4-16M6 9h14M4 15h14" stroke-width="1.5" stroke-linecap="round" stroke-linejoin="round"/></symbol><symbol fill="none" stroke="currentColor" viewBox="0 0 24 24" id="heart" xmlns="http://www.w3.org/2000/svg"><path d="M4.318 6.318a4.5 4.5 0 000 6.364L12 20.364l7.682-7.682a4.5 4.5 0 00-6.364-6.364L12 7.636l-1.318-1.318a4.5 4.5 0 00-6.364 0z" stroke-width="1.5" stroke-linecap="round" stroke-linejoin="round"/></symbol><symbol fill="none" stroke="currentColor" viewBox="0 0 24 24" id="home" xmlns="http://www.w3.org/2000/svg"><path d="M3 12l2-2m0 0l7-7 7 7M5 10v10a1 1 0 001 1h3m10-11l2 2m-2-2v10a1 1 0 01-1 1h-3m-6 0a1 1 0 001-1v-4a1 1 0 011-1h2a1 1 0 011 1v4a1 1 0 001 1m-6 0h6" stroke-width="1.5" stroke-linecap="round" stroke-linejoin="round"/></symbol><symbol fill="none" stroke="currentColor" viewBox="0 0 24 24" id="icon-user-remove" xmlns="http://www.w3.org/2000/svg"><path d="M21 12h-6m-2-5a4 4 0 11-8 0 4 4 0 018 0zM3 20a6 6 0 0112 0v1H3v-1z" stroke-width="1.5" stroke-linecap="round" stroke-linejoin="round"/></symbol><symbol fill="none" stroke="currentColor" viewBox="0 0 24 24" id="identification" xmlns="http://www.w3.org/2000/svg"><path d="M10 6H5a2 2 0 00-2 2v9a2 2 0 002 2h14a2 2 0 002-2V8a2 2 0 00-2-2h-5m-4 0V5a2 2 0 114 0v1m-4 0a2 2 0 104 0m-5 8a2 2 0 100-4 2 2 0 000 4zm0 0c1.306 0 2.417.835 2.83 2M9 14a3.001 3.001 0 00-2.83 2M15 11h3m-3 4h2" stroke-width="1.5" stroke-linecap="round" stroke-linejoin="round"/></symbol><symbol fill="none" stroke="currentColor" viewBox="0 0 24 24" id="inbox" xmlns="http://www.w3.org/2000/svg"><path d="M20 13V6a2 2 0 00-2-2H6a2 2 0 00-2 2v7m16 0v5a2 2 0 01-2 2H6a2 2 0 01-2-2v-5m16 0h-2.586a1 1 0 00-.707.293l-2.414 2.414a1 1 0 01-.707.293h-3.172a1 1 0 01-.707-.293l-2.414-2.414A1 1 0 006.586 13H4" stroke-width="1.5" stroke-linecap="round" stroke-linejoin="round"/></symbol><symbol fill="none" stroke="currentColor" viewBox="0 0 24 24" id="inbox-in" xmlns="http://www.w3.org/2000/svg"><path d="M8 4H6a2 2 0 00-2 2v12a2 2 0 002 2h12a2 2 0 002-2V6a2 2 0 00-2-2h-2m-4-1v8m0 0l3-3m-3 3L9 8m-5 5h2.586a1 1 0 01.707.293l2.414 2.414a1 1 0 00.707.293h3.172a1 1 0 00.707-.293l2.414-2.414a1 1 0 01.707-.293H20" stroke-width="1.5" stroke-linecap="round" stroke-linejoin="round"/></symbol><symbol fill="none" stroke="currentColor" viewBox="0 0 24 24" id="information-circle" xmlns="http://www.w3.org/2000/svg"><path d="M13 16h-1v-4h-1m1-4h.01M21 12a9 9 0 11-18 0 9 9 0 0118 0z" stroke-width="1.5" stroke-linecap="round" stroke-linejoin="round"/></symbol><symbol fill="none" stroke="currentColor" viewBox="0 0 24 24" id="key" xmlns="http://www.w3.org/2000/svg"><path d="M15 7a2 2 0 012 2m4 0a6 6 0 01-7.743 5.743L11 17H9v2H7v2H4a1 1 0 01-1-1v-2.586a1 1 0 01.293-.707l5.964-5.964A6 6 0 1121 9z" stroke-width="1.5" stroke-linecap="round" stroke-linejoin="round"/></symbol><symbol fill="none" stroke="currentColor" viewBox="0 0 24 24" id="library" xmlns="http://www.w3.org/2000/svg"><path d="M8 14v3m4-3v3m4-3v3M3 21h18M3 10h18M3 7l9-4 9 4M4 10h16v11H4V10z" stroke-width="1.5" stroke-linecap="round" stroke-linejoin="round"/></symbol><symbol fill="none" stroke="currentColor" viewBox="0 0 24 24" id="light-bulb" xmlns="http://www.w3.org/2000/svg"><path d="M9.664 17h4.672M12 3v1m6.364 1.636l-.707.707M21 12h-1M4 12H3m3.343-5.657l-.707-.707m2.828 9.9a5 5 0 117.072 0l-.548.547A3.375 3.375 0 0014 18.469V19a2 2 0 11-4 0v-.531c0-.895-.356-1.754-.988-2.386l-.548-.547z" stroke-width="1.5" stroke-linecap="round" stroke-linejoin="round"/></symbol><symbol fill="none" stroke="currentColor" viewBox="0 0 24 24" id="lightning-bolt" xmlns="http://www.w3.org/2000/svg"><path d="M13 10V3L4 14h7v7l9-11h-7z" stroke-width="1.5" stroke-linecap="round" stroke-linejoin="round"/></symbol><symbol fill="none" stroke="currentColor" viewBox="0 0 24 24" id="link" xmlns="http://www.w3.org/2000/svg"><path d="M13.828 10.172a4 4 0 00-5.656 0l-4 4a4 4 0 105.656 5.656l1.102-1.101m-.758-4.899a4 4 0 005.656 0l4-4a4 4 0 00-5.656-5.656l-1.1 1.1" stroke-width="1.5" stroke-linecap="round" stroke-linejoin="round"/></symbol><symbol fill="none" stroke="currentColor" viewBox="0 0 24 24" id="location-marker" xmlns="http://www.w3.org/2000/svg"><path d="M17.657 16.657L13.414 20.9a1.998 1.998 0 01-2.827 0l-4.244-4.243a8 8 0 1111.314 0z" stroke-width="1.5" stroke-linecap="round" stroke-linejoin="round"/><path d="M15 11a3 3 0 11-6 0 3 3 0 016 0z" stroke-width="1.5" stroke-linecap="round" stroke-linejoin="round"/></symbol><symbol fill="none" stroke="currentColor" viewBox="0 0 24 24" id="lock-closed" xmlns="http://www.w3.org/2000/svg"><path d="M16 11v1h1v-1h-1zm-8 0H7v1h1v-1zm5 4a1 1 0 10-2 0h2zm-2 2a1 1 0 102 0h-2zm-5-5h12v-2H6v2zm13 1v6h2v-6h-2zm-1 7H6v2h12v-2zM5 19v-6H3v6h2zm1 1a1 1 0 01-1-1H3a3 3 0 003 3v-2zm13-1a1 1 0 01-1 1v2a3 3 0 003-3h-2zm-1-7a1 1 0 011 1h2a3 3 0 00-3-3v2zM6 10a3 3 0 00-3 3h2a1 1 0 011-1v-2zm9-3v4h2V7h-2zm1 3H8v2h8v-2zm-7 1V7H7v4h2zm3-7a3 3 0 013 3h2a5 5 0 00-5-5v2zm0-2a5 5 0 00-5 5h2a3 3 0 013-3V2zm-1 13v2h2v-2h-2z"/></symbol><symbol fill="none" stroke="currentColor" viewBox="0 0 24 24" id="lock-open" xmlns="http://www.w3.org/2000/svg"><path d="M8 11V7a4 4 0 118 0m-4 8v2m-6 4h12a2 2 0 002-2v-6a2 2 0 00-2-2H6a2 2 0 00-2 2v6a2 2 0 002 2z" stroke-width="1.5" stroke-linecap="round"/></symbol><symbol fill="none" stroke="currentColor" viewBox="0 0 24 24" id="logout" xmlns="http://www.w3.org/2000/svg"><path d="M11 16l-4-4m0 0l4-4m-4 4h14m-5 4v1a3 3 0 01-3 3H6a3 3 0 01-3-3V7a3 3 0 013-3h7a3 3 0 013 3v1" stroke-width="1.5" stroke-linecap="round" stroke-linejoin="round"/></symbol><symbol fill="none" stroke="currentColor" viewBox="0 0 24 24" id="logout-1" xmlns="http://www.w3.org/2000/svg"><path d="M17 16l4-4m0 0l-4-4m4 4H7m6 4v1a3 3 0 01-3 3H6a3 3 0 01-3-3V7a3 3 0 013-3h4a3 3 0 013 3v1" stroke-width="1.5" stroke-linecap="round" stroke-linejoin="round"/></symbol><symbol fill="none" stroke="currentColor" viewBox="0 0 24 24" id="mail" xmlns="http://www.w3.org/2000/svg"><path d="M3 8l7.89 5.26a2 2 0 002.22 0L21 8M5 19h14a2 2 0 002-2V7a2 2 0 00-2-2H5a2 2 0 00-2 2v10a2 2 0 002 2z" stroke-width="1.5" stroke-linecap="round" stroke-linejoin="round"/></symbol><symbol fill="none" stroke="currentColor" viewBox="0 0 24 24" id="mail-open" xmlns="http://www.w3.org/2000/svg"><path d="M3 19v-8.93a2 2 0 01.89-1.664l7-4.666a2 2 0 012.22 0l7 4.666A2 2 0 0121 10.07V19M3 19a2 2 0 002 2h14a2 2 0 002-2M3 19l6.75-4.5M21 19l-6.75-4.5M3 10l6.75 4.5M21 10l-6.75 4.5m0 0l-1.14.76a2 2 0 01-2.22 0l-1.14-.76" stroke-width="1.5" stroke-linecap="round" stroke-linejoin="round"/></symbol><symbol fill="none" stroke="currentColor" viewBox="0 0 24 24" id="map" xmlns="http://www.w3.org/2000/svg"><path d="M9 20l-5.447-2.724A1 1 0 013 16.382V5.618a1 1 0 011.447-.894L9 7m0 13l6-3m-6 3V7m6 10l4.553 2.276A1 1 0 0021 18.382V7.618a1 1 0 00-.553-.894L15 4m0 13V4m0 0L9 7" stroke-width="1.5" stroke-linecap="round" stroke-linejoin="round"/></symbol><symbol fill="none" stroke="currentColor" viewBox="0 0 24 24" id="menu" xmlns="http://www.w3.org/2000/svg"><path d="M4 6h16M4 12h16M4 18h16" stroke-width="1.5" stroke-linecap="round" stroke-linejoin="round"/></symbol><symbol fill="none" stroke="currentColor" viewBox="0 0 24 24" id="menu-alt-1" xmlns="http://www.w3.org/2000/svg"><path d="M4 6h16M4 12h8m-8 6h16" stroke-width="1.5" stroke-linecap="round" stroke-linejoin="round"/></symbol><symbol fill="none" stroke="currentColor" viewBox="0 0 24 24" id="menu-alt-2" xmlns="http://www.w3.org/2000/svg"><path d="M4 6h16M4 12h16M4 18h7" stroke-width="1.5" stroke-linecap="round" stroke-linejoin="round"/></symbol><symbol fill="none" stroke="currentColor" viewBox="0 0 24 24" id="menu-alt-3" xmlns="http://www.w3.org/2000/svg"><path d="M4 6h16M4 12h16m-7 6h7" stroke-width="1.5" stroke-linecap="round" stroke-linejoin="round"/></symbol><symbol fill="none" stroke="currentColor" viewBox="0 0 24 24" id="menu-alt-4" xmlns="http://www.w3.org/2000/svg"><path d="M4 8h16M4 16h16" stroke-width="1.5" stroke-linecap="round" stroke-linejoin="round"/></symbol><symbol fill="none" stroke="currentColor" viewBox="0 0 24 24" id="microphone" xmlns="http://www.w3.org/2000/svg"><path d="M19 11a7 7 0 01-7 7m0 0a7 7 0 01-7-7m7 7v4m0 0H8m4 0h4m-4-8a3 3 0 01-3-3V5a3 3 0 116 0v6a3 3 0 01-3 3z" stroke-width="1.5" stroke-linecap="round" stroke-linejoin="round"/></symbol><symbol fill="none" stroke="currentColor" viewBox="0 0 24 24" id="minus" xmlns="http://www.w3.org/2000/svg"><path d="M20 12H4" stroke-width="1.5" stroke-linecap="round" stroke-linejoin="round"/></symbol><symbol fill="none" stroke="currentColor" viewBox="0 0 24 24" id="minus-circle" xmlns="http://www.w3.org/2000/svg"><path d="M15 12H9m12 0a9 9 0 11-18 0 9 9 0 0118 0z" stroke-width="1.5" stroke-linecap="round" stroke-linejoin="round"/></symbol><symbol fill="none" stroke="currentColor" viewBox="0 0 24 24" id="minus-sm" xmlns="http://www.w3.org/2000/svg"><path d="M18 12H6" stroke-width="1.5" stroke-linecap="round" stroke-linejoin="round"/></symbol><symbol fill="none" stroke="currentColor" viewBox="0 0 24 24" id="moon" xmlns="http://www.w3.org/2000/svg"><path d="M20.354 15.354A9 9 0 018.646 3.646 9.003 9.003 0 0012 21a9.003 9.003 0 008.354-5.646z" stroke-width="1.5" stroke-linecap="round" stroke-linejoin="round"/></symbol><symbol fill="none" stroke="currentColor" viewBox="0 0 24 24" id="music-note" xmlns="http://www.w3.org/2000/svg"><path d="M9 19V6l12-3v13M9 19c0 1.105-1.343 2-3 2s-3-.895-3-2 1.343-2 3-2 3 .895 3 2zm12-3c0 1.105-1.343 2-3 2s-3-.895-3-2 1.343-2 3-2 3 .895 3 2zM9 10l12-3" stroke-width="1.5" stroke-linecap="round" stroke-linejoin="round"/></symbol><symbol fill="none" stroke="currentColor" viewBox="0 0 24 24" id="newspaper" xmlns="http://www.w3.org/2000/svg"><path d="M19 20H5a2 2 0 01-2-2V6a2 2 0 012-2h10a2 2 0 012 2v1m2 13a2 2 0 01-2-2V7m2 13a2 2 0 002-2V9a2 2 0 00-2-2h-2m-4-3H9M7 16h6M7 8h6v4H7V8z" stroke-width="1.5" stroke-linecap="round" stroke-linejoin="round"/></symbol><symbol fill="none" stroke="currentColor" viewBox="0 0 24 24" id="office-building" xmlns="http://www.w3.org/2000/svg"><path d="M19 21V5a2 2 0 00-2-2H7a2 2 0 00-2 2v16m14 0h2m-2 0h-5m-9 0H3m2 0h5M9 7h1m-1 4h1m4-4h1m-1 4h1m-5 10v-5a1 1 0 011-1h2a1 1 0 011 1v5m-4 0h4" stroke-width="1.5" stroke-linecap="round" stroke-linejoin="round"/></symbol><symbol fill="none" stroke="currentColor" viewBox="0 0 24 24" id="paper-airplane" xmlns="http://www.w3.org/2000/svg"><path d="M12 19l9 2-9-18-9 18 9-2zm0 0v-8" stroke-width="1.5" stroke-linecap="round" stroke-linejoin="round"/></symbol><symbol fill="none" stroke="currentColor" viewBox="0 0 24 24" id="paper-clip" xmlns="http://www.w3.org/2000/svg"><path d="M15.172 7l-6.586 6.586a2 2 0 102.828 2.828l6.414-6.586a4 4 0 00-5.656-5.656l-6.415 6.585a6 6 0 108.486 8.486L20.5 13" stroke-width="1.5" stroke-linecap="round" stroke-linejoin="round"/></symbol><symbol fill="none" stroke="currentColor" viewBox="0 0 24 24" id="pause" xmlns="http://www.w3.org/2000/svg"><path d="M10 9v6m4-6v6m7-3a9 9 0 11-18 0 9 9 0 0118 0z" stroke-width="1.5" stroke-linecap="round" stroke-linejoin="round"/></symbol><symbol fill="none" stroke="currentColor" viewBox="0 0 24 24" id="pencil" xmlns="http://www.w3.org/2000/svg"><path d="M15.232 5.232l3.536 3.536m-2.036-5.036a2.5 2.5 0 013.536 3.536L6.5 21.036H3v-3.572L16.732 3.732z" stroke-width="1.5" stroke-linecap="round" stroke-linejoin="round"/></symbol><symbol fill="none" stroke="currentColor" viewBox="0 0 24 24" id="pencil-alt" xmlns="http://www.w3.org/2000/svg"><path d="M11 5H6a2 2 0 00-2 2v11a2 2 0 002 2h11a2 2 0 002-2v-5m-1.414-9.414a2 2 0 112.828 2.828L11.828 15H9v-2.828l8.586-8.586z" stroke-width="1.5" stroke-linecap="round" stroke-linejoin="round"/></symbol><symbol fill="none" stroke="currentColor" viewBox="0 0 24 24" id="phone" xmlns="http://www.w3.org/2000/svg"><path d="M3 5a2 2 0 012-2h3.28a1 1 0 01.948.684l1.498 4.493a1 1 0 01-.502 1.21l-2.257 1.13a11.042 11.042 0 005.516 5.516l1.13-2.257a1 1 0 011.21-.502l4.493 1.498a1 1 0 01.684.949V19a2 2 0 01-2 2h-1C9.716 21 3 14.284 3 6V5z" stroke-width="1.5" stroke-linecap="round" stroke-linejoin="round"/></symbol><symbol fill="none" stroke="currentColor" viewBox="0 0 24 24" id="phone-incoming" xmlns="http://www.w3.org/2000/svg"><path d="M21 3l-6 6m0 0V4m0 5h5M5 3a2 2 0 00-2 2v1c0 8.284 6.716 15 15 15h1a2 2 0 002-2v-3.28a1 1 0 00-.684-.948l-4.493-1.498a1 1 0 00-1.21.502l-1.13 2.257a11.042 11.042 0 01-5.516-5.517l2.257-1.128a1 1 0 00.502-1.21L9.228 3.683A1 1 0 008.279 3H5z" stroke-width="1.5" stroke-linecap="round" stroke-linejoin="round"/></symbol><symbol fill="none" stroke="currentColor" viewBox="0 0 24 24" id="phone-missed-call" xmlns="http://www.w3.org/2000/svg"><path d="M16 8l2-2m0 0l2-2m-2 2l-2-2m2 2l2 2M5 3a2 2 0 00-2 2v1c0 8.284 6.716 15 15 15h1a2 2 0 002-2v-3.28a1 1 0 00-.684-.948l-4.493-1.498a1 1 0 00-1.21.502l-1.13 2.257a11.042 11.042 0 01-5.516-5.517l2.257-1.128a1 1 0 00.502-1.21L9.228 3.683A1 1 0 008.279 3H5z" stroke-width="1.5" stroke-linecap="round" stroke-linejoin="round"/></symbol><symbol fill="none" stroke="currentColor" viewBox="0 0 24 24" id="phone-outgoing" xmlns="http://www.w3.org/2000/svg"><path d="M16 3h5m0 0v5m0-5l-6 6M5 3a2 2 0 00-2 2v1c0 8.284 6.716 15 15 15h1a2 2 0 002-2v-3.28a1 1 0 00-.684-.948l-4.493-1.498a1 1 0 00-1.21.502l-1.13 2.257a11.042 11.042 0 01-5.516-5.517l2.257-1.128a1 1 0 00.502-1.21L9.228 3.683A1 1 0 008.279 3H5z" stroke-width="1.5" stroke-linecap="round" stroke-linejoin="round"/></symbol><symbol fill="none" stroke="currentColor" viewBox="0 0 24 24" id="photograph" xmlns="http://www.w3.org/2000/svg"><path d="M4 16l4.586-4.586a2 2 0 012.828 0L16 16m-2-2l1.586-1.586a2 2 0 012.828 0L20 14m-6-6h.01M6 20h12a2 2 0 002-2V6a2 2 0 00-2-2H6a2 2 0 00-2 2v12a2 2 0 002 2z" stroke-width="1.5" stroke-linecap="round" stroke-linejoin="round"/></symbol><symbol fill="none" stroke="currentColor" viewBox="0 0 24 24" id="play" xmlns="http://www.w3.org/2000/svg"><path d="M14.752 11.168l-3.197-2.132A1 1 0 0010 9.87v4.263a1 1 0 001.555.832l3.197-2.132a1 1 0 000-1.664z" stroke-width="1.5" stroke-linecap="round" stroke-linejoin="round"/><path d="M21 12a9 9 0 11-18 0 9 9 0 0118 0z" stroke-width="1.5" stroke-linecap="round" stroke-linejoin="round"/></symbol><symbol fill="none" stroke="currentColor" viewBox="0 0 24 24" id="plus" xmlns="http://www.w3.org/2000/svg"><path d="M12 4v16m8-8H4" stroke-width="1.5" stroke-linecap="round" stroke-linejoin="round"/></symbol><symbol fill="none" stroke="currentColor" viewBox="0 0 24 24" id="plus-circle" xmlns="http://www.w3.org/2000/svg"><path d="M12 9v3m0 0v3m0-3h3m-3 0H9m12 0a9 9 0 11-18 0 9 9 0 0118 0z" stroke-width="1.5" stroke-linecap="round" stroke-linejoin="round"/></symbol><symbol fill="none" stroke="currentColor" viewBox="0 0 24 24" id="plus-sm" xmlns="http://www.w3.org/2000/svg"><path d="M12 6v6m0 0v6m0-6h6m-6 0H6" stroke-width="1.5" stroke-linecap="round" stroke-linejoin="round"/></symbol><symbol fill="none" stroke="currentColor" viewBox="0 0 24 24" id="presentation-chart-bar" xmlns="http://www.w3.org/2000/svg"><path d="M8 13v-1m4 1v-3m4 3V8M8 21l4-4 4 4M3 4h18M4 4h16v12a1 1 0 01-1 1H5a1 1 0 01-1-1V4z" stroke-width="1.5" stroke-linecap="round" stroke-linejoin="round"/></symbol><symbol fill="none" stroke="currentColor" viewBox="0 0 24 24" id="presentation-chart-line" xmlns="http://www.w3.org/2000/svg"><path d="M4 4V3H3v1h1zm16 0h1V3h-1v1zM6.293 11.293a1 1 0 101.414 1.414l-1.414-1.414zM10 9l.707-.707a1 1 0 00-1.414 0L10 9zm3 3l-.707.707a1 1 0 001.414 0L13 12zm4.707-3.293a1 1 0 00-1.414-1.414l1.414 1.414zM7.293 20.293a1 1 0 101.414 1.414l-1.414-1.414zM12 17l.707-.707a1 1 0 00-1.414 0L12 17zm3.293 4.707a1 1 0 001.414-1.414l-1.414 1.414zM3 3a1 1 0 000 2V3zm18 2a1 1 0 100-2v2zM4 5h16V3H4v2zm15-1v12h2V4h-2zm0 12H5v2h14v-2zM5 16V4H3v12h2zm0 0H3a2 2 0 002 2v-2zm14 0v2a2 2 0 002-2h-2zM7.707 12.707l3-3-1.414-1.414-3 3 1.414 1.414zm1.586-3l3 3 1.414-1.414-3-3-1.414 1.414zm4.414 3l4-4-1.414-1.414-4 4 1.414 1.414zm-5 9l4-4-1.414-1.414-4 4 1.414 1.414zm2.586-4l4 4 1.414-1.414-4-4-1.414 1.414zM3 5h18V3H3v2z"/></symbol><symbol fill="none" stroke="currentColor" viewBox="0 0 24 24" id="printer" xmlns="http://www.w3.org/2000/svg"><path d="M17 17h2a2 2 0 002-2v-4a2 2 0 00-2-2H5a2 2 0 00-2 2v4a2 2 0 002 2h2m2 4h6a2 2 0 002-2v-4a2 2 0 00-2-2H9a2 2 0 00-2 2v4a2 2 0 002 2zm8-12V5a2 2 0 00-2-2H9a2 2 0 00-2 2v4h10z" stroke-width="1.5" stroke-linecap="round" stroke-linejoin="round"/></symbol><symbol fill="none" stroke="currentColor" viewBox="0 0 24 24" id="puzzle" xmlns="http://www.w3.org/2000/svg"><path d="M11 4a2 2 0 114 0v1a1 1 0 001 1h3a1 1 0 011 1v3a1 1 0 01-1 1h-1a2 2 0 100 4h1a1 1 0 011 1v3a1 1 0 01-1 1h-3a1 1 0 01-1-1v-1a2 2 0 10-4 0v1a1 1 0 01-1 1H7a1 1 0 01-1-1v-3a1 1 0 00-1-1H4a2 2 0 110-4h1a1 1 0 001-1V7a1 1 0 011-1h3a1 1 0 001-1V4z" stroke-width="1.5" stroke-linecap="round" stroke-linejoin="round"/></symbol><symbol fill="none" stroke="currentColor" viewBox="0 0 24 24" id="qrcode" xmlns="http://www.w3.org/2000/svg"><path d="M13 4a1 1 0 10-2 0h2zm-2 1a1 1 0 102 0h-2zm7 10a1 1 0 100 2v-2zm2 2a1 1 0 100-2v2zm-8-1v-1a1 1 0 00-1 1h1zm2 1a1 1 0 100-2v2zm-3 3a1 1 0 102 0h-2zm2-11a1 1 0 10-2 0h2zm-1 3h-1a1 1 0 001 1v-1zm4 7a1 1 0 100 2v-2zm4 2a1 1 0 100-2v2zM4 11a1 1 0 100 2v-2zm4 2a1 1 0 100-2v2zm4.01 0a1 1 0 100-2v2zm4 0a1 1 0 100-2v2zM20 11a1 1 0 100 2v-2zm.01 2a1 1 0 100-2v2zM5 5h2V3H5v2zm2 0v2h2V5H7zm0 2H5v2h2V7zM5 7V5H3v2h2zm0 0H3a2 2 0 002 2V7zm2 0v2a2 2 0 002-2H7zm0-2h2a2 2 0 00-2-2v2zM5 3a2 2 0 00-2 2h2V3zm12 2h2V3h-2v2zm2 0v2h2V5h-2zm0 2h-2v2h2V7zm-2 0V5h-2v2h2zm0 0h-2a2 2 0 002 2V7zm2 0v2a2 2 0 002-2h-2zm0-2h2a2 2 0 00-2-2v2zm-2-2a2 2 0 00-2 2h2V3zM5 17h2v-2H5v2zm2 0v2h2v-2H7zm0 2H5v2h2v-2zm-2 0v-2H3v2h2zm0 0H3a2 2 0 002 2v-2zm2 0v2a2 2 0 002-2H7zm0-2h2a2 2 0 00-2-2v2zm-2-2a2 2 0 00-2 2h2v-2zm6-11v1h2V4h-2zm7 13h2v-2h-2v2zm-6 0h2v-2h-2v2zm-1-1v4h2v-4h-2zm0-7v3h2V9h-2zm5 12h4v-2h-4v2zM4 13h4v-2H4v2zm8 0h.01v-2H12v2zm8 0h.01v-2H20v2zm-8 0h4.01v-2H12v2z"/></symbol><symbol fill="none" stroke="currentColor" viewBox="0 0 24 24" id="question-mark-circle" xmlns="http://www.w3.org/2000/svg"><path d="M8.228 9c.549-1.165 2.03-2 3.772-2 2.21 0 4 1.343 4 3 0 1.4-1.278 2.575-3.006 2.907-.542.104-.994.54-.994 1.093m0 3h.01M21 12a9 9 0 11-18 0 9 9 0 0118 0z" stroke-width="1.5" stroke-linecap="round" stroke-linejoin="round"/></symbol><symbol fill="none" stroke="currentColor" viewBox="0 0 24 24" id="receipt-refund" xmlns="http://www.w3.org/2000/svg"><path d="M20 21l-.447.894A1 1 0 0021 21h-1zM4 21H3a1 1 0 001.447.894L4 21zm8 0l-.447.894a1 1 0 00.894 0L12 21zm-4-2l.447-.894a1 1 0 00-.894 0L8 19zm8 0l.447-.894a1 1 0 00-.894 0L16 19zm-1-4a1 1 0 102 0h-2zm-7-5l-.707-.707a1 1 0 000 1.414L8 10zm2.293 3.707a1 1 0 001.414-1.414l-1.414 1.414zm1.414-6a1 1 0 00-1.414-1.414l1.414 1.414zM6 4h12V2H6v2zm13 1v16h2V5h-2zM5 21V5H3v16h2zm7.447-.894l-4-2-.894 1.788 4 2 .894-1.788zm-4.894-2l-4 2 .894 1.788 4-2-.894-1.788zm12.894 2l-4-2-.894 1.788 4 2 .894-1.788zm-4.894-2l-4 2 .894 1.788 4-2-.894-1.788zM18 4a1 1 0 011 1h2a3 3 0 00-3-3v2zM6 2a3 3 0 00-3 3h2a1 1 0 011-1V2zm11 13v-1h-2v1h2zm-5-6H8v2h4V9zm5 5a5 5 0 00-5-5v2a3 3 0 013 3h2zm-5.293-1.707l-3-3-1.414 1.414 3 3 1.414-1.414zm-3-1.586l3-3-1.414-1.414-3 3 1.414 1.414z"/></symbol><symbol fill="none" stroke="currentColor" viewBox="0 0 24 24" id="receipt-tax" xmlns="http://www.w3.org/2000/svg"><path d="M9 14l6-6m-5.5.5h.01m4.99 5h.01M19 21V5a2 2 0 00-2-2H7a2 2 0 00-2 2v16l3.5-2 3.5 2 3.5-2 3.5 2zM10 8.5a.5.5 0 11-1 0 .5.5 0 011 0zm5 5a.5.5 0 11-1 0 .5.5 0 011 0z" stroke-width="1.5" stroke-linecap="round" stroke-linejoin="round"/></symbol><symbol fill="none" stroke="currentColor" viewBox="0 0 24 24" id="refresh" xmlns="http://www.w3.org/2000/svg"><path d="M4 4v5h.582m15.356 2A8.001 8.001 0 004.582 9m0 0H9m11 11v-5h-.581m0 0a8.003 8.003 0 01-15.357-2m15.357 2H15" stroke-width="1.5" stroke-linecap="round" stroke-linejoin="round"/></symbol><symbol fill="none" stroke="currentColor" viewBox="0 0 24 24" id="reply" xmlns="http://www.w3.org/2000/svg"><path d="M3 10h10a8 8 0 018 8v2M3 10l6 6m-6-6l6-6" stroke-width="1.5" stroke-linecap="round" stroke-linejoin="round"/></symbol><symbol fill="none" stroke="currentColor" viewBox="0 0 24 24" id="rewind" xmlns="http://www.w3.org/2000/svg"><path d="M12.067 11.2a1 1 0 000 1.6l5.333 4A1 1 0 0019 16V8a1 1 0 00-1.6-.8l-5.333 4zM4.067 11.2a1 1 0 000 1.6l5.333 4A1 1 0 0011 16V8a1 1 0 00-1.6-.8l-5.333 4z" stroke-width="1.5" stroke-linecap="round" stroke-linejoin="round"/></symbol><symbol fill="none" stroke="currentColor" viewBox="0 0 24 24" id="rss" xmlns="http://www.w3.org/2000/svg"><path d="M6 5c7.18 0 13 5.82 13 13M6 11a7 7 0 017 7m-6 0a1 1 0 11-2 0 1 1 0 012 0z" stroke-width="1.5" stroke-linecap="round" stroke-linejoin="round"/></symbol><symbol fill="none" stroke="currentColor" viewBox="0 0 24 24" id="save" xmlns="http://www.w3.org/2000/svg"><path d="M8 7H5a2 2 0 00-2 2v9a2 2 0 002 2h14a2 2 0 002-2V9a2 2 0 00-2-2h-3m-1 4l-3 3m0 0l-3-3m3 3V4" stroke-width="1.5" stroke-linecap="round" stroke-linejoin="round"/></symbol><symbol fill="none" stroke="currentColor" viewBox="0 0 24 24" id="save-as" xmlns="http://www.w3.org/2000/svg"><path d="M17 16v2a2 2 0 01-2 2H5a2 2 0 01-2-2v-7a2 2 0 012-2h2m3-4H9a2 2 0 00-2 2v7a2 2 0 002 2h10a2 2 0 002-2V7a2 2 0 00-2-2h-1m-1 4l-3 3m0 0l-3-3m3 3V3" stroke-width="1.5" stroke-linecap="round" stroke-linejoin="round"/></symbol><symbol fill="none" stroke="currentColor" viewBox="0 0 24 24" id="scale" xmlns="http://www.w3.org/2000/svg"><path d="M3 6l3 1m0 0l-3 9a5.002 5.002 0 006.001 0M6 7l3 9M6 7l6-2m6 2l3-1m-3 1l-3 9a5.002 5.002 0 006.001 0M18 7l3 9m-3-9l-6-2m0-2v2m0 16V5m0 16H9m3 0h3" stroke-width="1.5" stroke-linecap="round" stroke-linejoin="round"/></symbol><symbol fill="none" stroke="currentColor" viewBox="0 0 24 24" id="scissors" xmlns="http://www.w3.org/2000/svg"><path d="M14.121 14.121L19 19m-7-7l7-7m-7 7l-2.879 2.879M12 12L9.121 9.121m0 5.758a3 3 0 10-4.243 4.243 3 3 0 004.243-4.243zm0-5.758a3 3 0 10-4.243-4.243 3 3 0 004.243 4.243z" stroke-width="1.5" stroke-linecap="round"/></symbol><symbol fill="none" stroke="currentColor" viewBox="0 0 24 24" id="search" xmlns="http://www.w3.org/2000/svg"><path d="M21 21l-6-6m2-5a7 7 0 11-14 0 7 7 0 0114 0z" stroke-width="1.5" stroke-linecap="round" stroke-linejoin="round"/></symbol><symbol fill="none" stroke="currentColor" viewBox="0 0 24 24" id="search-circle" xmlns="http://www.w3.org/2000/svg"><path d="M7.293 15.293a1 1 0 101.414 1.414l-1.414-1.414zM15 11a2 2 0 01-2 2v2a4 4 0 004-4h-2zm-4 0a2 2 0 012-2V7a4 4 0 00-4 4h2zm2-2a2 2 0 012 2h2a4 4 0 00-4-4v2zm-2.828 3.414l-2.88 2.879 1.415 1.414 2.879-2.879-1.414-1.414zM13 13a1.99 1.99 0 01-1.414-.586l-1.414 1.414A3.99 3.99 0 0013 15v-2zm-1.414-.586A1.99 1.99 0 0111 11H9a3.99 3.99 0 001.172 2.828l1.414-1.414zM20 12a8 8 0 01-8 8v2c5.523 0 10-4.477 10-10h-2zm-8 8a8 8 0 01-8-8H2c0 5.523 4.477 10 10 10v-2zm-8-8a8 8 0 018-8V2C6.477 2 2 6.477 2 12h2zm8-8a8 8 0 018 8h2c0-5.523-4.477-10-10-10v2z"/></symbol><symbol fill="none" stroke="currentColor" viewBox="0 0 24 24" id="selector" xmlns="http://www.w3.org/2000/svg"><path d="M8 9l4-4 4 4m0 6l-4 4-4-4" stroke-width="1.5" stroke-linecap="round" stroke-linejoin="round"/></symbol><symbol fill="none" stroke="currentColor" viewBox="0 0 24 24" id="server" xmlns="http://www.w3.org/2000/svg"><path d="M5 12h14M5 12a2 2 0 01-2-2V6a2 2 0 012-2h14a2 2 0 012 2v4a2 2 0 01-2 2M5 12a2 2 0 00-2 2v4a2 2 0 002 2h14a2 2 0 002-2v-4a2 2 0 00-2-2m-2-4h.01M17 16h.01" stroke-width="1.5" stroke-linecap="round" stroke-linejoin="round"/></symbol><symbol fill="none" stroke="currentColor" viewBox="0 0 24 24" id="share" xmlns="http://www.w3.org/2000/svg"><path d="M8.684 13.342C8.886 12.938 9 12.482 9 12c0-.482-.114-.938-.316-1.342m0 2.684a3 3 0 110-2.684m0 2.684l6.632 3.316m-6.632-6l6.632-3.316m0 0a3 3 0 105.367-2.684 3 3 0 00-5.367 2.684zm0 9.316a3 3 0 105.368 2.684 3 3 0 00-5.368-2.684z" stroke-width="1.5" stroke-linecap="round" stroke-linejoin="round"/></symbol><symbol fill="none" stroke="currentColor" viewBox="0 0 24 24" id="shield-check" xmlns="http://www.w3.org/2000/svg"><path d="M9 12l2 2 4-4m5.618-4.016A11.955 11.955 0 0112 2.944a11.955 11.955 0 01-8.618 3.04A12.02 12.02 0 003 9c0 5.591 3.824 10.29 9 11.622 5.176-1.332 9-6.03 9-11.622 0-1.042-.133-2.052-.382-3.016z" stroke-width="1.5" stroke-linecap="round" stroke-linejoin="round"/></symbol><symbol fill="none" stroke="currentColor" viewBox="0 0 24 24" id="shield-exclamation" xmlns="http://www.w3.org/2000/svg"><path d="M12 9v2m0 4h.01m8.608-9.016A11.955 11.955 0 0112 2.944a11.955 11.955 0 01-8.618 3.04A12.02 12.02 0 003 9c0 5.591 3.824 10.29 9 11.622 5.176-1.332 9-6.03 9-11.622 0-1.042-.133-2.052-.382-3.016z" stroke-width="1.5" stroke-linecap="round" stroke-linejoin="round"/></symbol><symbol fill="none" stroke="currentColor" viewBox="0 0 24 24" id="shopping-bag" xmlns="http://www.w3.org/2000/svg"><path d="M16 11V7a4 4 0 00-8 0v4M5 9h14l1 12H4L5 9z" stroke-width="1.5" stroke-linecap="round" stroke-linejoin="round"/></symbol><symbol fill="none" stroke="currentColor" viewBox="0 0 24 24" id="shopping-cart" xmlns="http://www.w3.org/2000/svg"><path d="M3 3h2l.4 2M7 13h10l4-8H5.4M7 13L5.4 5M7 13l-2.293 2.293c-.63.63-.184 1.707.707 1.707H17m0 0a2 2 0 100 4 2 2 0 000-4zm-8 2a2 2 0 11-4 0 2 2 0 014 0z" stroke-width="1.5" stroke-linecap="round" stroke-linejoin="round"/></symbol><symbol fill="none" stroke="currentColor" viewBox="0 0 24 24" id="sm-view-grid-add" xmlns="http://www.w3.org/2000/svg"><path d="M17 14v6m-3-3h6M6 10h2a2 2 0 002-2V6a2 2 0 00-2-2H6a2 2 0 00-2 2v2a2 2 0 002 2zm10 0h2a2 2 0 002-2V6a2 2 0 00-2-2h-2a2 2 0 00-2 2v2a2 2 0 002 2zM6 20h2a2 2 0 002-2v-2a2 2 0 00-2-2H6a2 2 0 00-2 2v2a2 2 0 002 2z" stroke-width="1.5" stroke-linecap="round" stroke-linejoin="round"/></symbol><symbol fill="none" stroke="currentColor" viewBox="0 0 24 24" id="sort-ascending" xmlns="http://www.w3.org/2000/svg"><path d="M3 4h13M3 8h9m-9 4h6m4 0l4-4m0 0l4 4m-4-4v12" stroke-width="1.5" stroke-linecap="round" stroke-linejoin="round"/></symbol><symbol fill="none" stroke="currentColor" viewBox="0 0 24 24" id="sort-descending" xmlns="http://www.w3.org/2000/svg"><path d="M3 4h13M3 8h9m-9 4h9m5-4v12m0 0l-4-4m4 4l4-4" stroke-width="1.5" stroke-linecap="round" stroke-linejoin="round"/></symbol><symbol fill="none" stroke="currentColor" viewBox="0 0 24 24" id="sparkles" xmlns="http://www.w3.org/2000/svg"><path d="M5 3v4M3 5h4M6 17v4m-2-2h4m5-16l2.286 6.857L21 12l-5.714 2.143L13 21l-2.286-6.857L5 12l5.714-2.143L13 3z" stroke-width="1.5" stroke-linecap="round" stroke-linejoin="round"/></symbol><symbol fill="none" stroke="currentColor" viewBox="0 0 24 24" id="speakerphone" xmlns="http://www.w3.org/2000/svg"><path d="M11 5.882V19.24a1.76 1.76 0 01-3.417.592l-2.147-6.15M18 13a3 3 0 100-6M5.436 13.683A4.001 4.001 0 017 6h1.832c4.1 0 7.625-1.234 9.168-3v14c-1.543-1.766-5.067-3-9.168-3H7a3.988 3.988 0 01-1.564-.317z" stroke-width="1.5" stroke-linecap="round" stroke-linejoin="round"/></symbol><symbol fill="none" stroke="currentColor" viewBox="0 0 24 24" id="star" xmlns="http://www.w3.org/2000/svg"><path d="M11.049 2.927c.3-.922 1.603-.922 1.902 0L14.47 7.6a1 1 0 00.95.69h4.915c.97 0 1.372 1.24.588 1.81l-3.976 2.888a1 1 0 00-.363 1.118l1.519 4.675c.299.92-.756 1.687-1.54 1.117l-3.975-2.888a1 1 0 00-1.176 0L7.436 19.9c-.783.569-1.838-.197-1.539-1.118l1.519-4.675a1 1 0 00-.363-1.117L3.077 10.1c-.784-.569-.381-1.808.588-1.808h4.914A1 1 0 009.53 7.6l1.519-4.674z" stroke-width="1.5"/></symbol><symbol fill="none" stroke="currentColor" viewBox="0 0 24 24" id="status-offline" xmlns="http://www.w3.org/2000/svg"><path d="M19.071 4.929a1 1 0 10-1.414 1.414L19.07 4.93zm-.707 13.435l-.707.707.707-.707zM16.243 7.757a1 1 0 10-1.415 1.415l1.415-1.415zm-.707 7.779l-.708.707.708-.707zm-7.779.707a1 1 0 001.415-1.415l-1.415 1.415zm.283-3.677a1 1 0 00-1.98.281l1.98-.28zm-3.111 6.505a1 1 0 001.414-1.414L4.93 19.07zm-.512-9.626a1 1 0 00-1.896-.638l1.896.638zm-.71-7.152a1 1 0 00-1.414 1.414l1.414-1.414zm16.586 19.414a1 1 0 001.414-1.414l-1.414 1.414zM17.657 6.343a8 8 0 010 11.314l1.414 1.414c3.905-3.905 3.905-10.237 0-14.142l-1.414 1.414zm-2.829 2.829a4 4 0 010 5.656l1.415 1.415a6 6 0 000-8.486l-1.415 1.415zM12 12h2a2 2 0 00-2-2v2zm-2.828 2.828a3.978 3.978 0 01-1.132-2.262l-1.98.281a5.978 5.978 0 001.697 3.396l1.415-1.415zm-2.829 2.829a8 8 0 01-1.926-8.212l-1.896-.638A10 10 0 004.93 19.071l1.414-1.414zM12 12v-2c-.552 0-1.053.225-1.414.586L12 12zM2.293 3.707L10.586 12 12 10.586 3.707 2.293 2.293 3.707zM10.586 12L12 13.414 13.414 12 12 10.586 10.586 12zM12 13.414l2.828 2.829 1.415-1.415L13.414 12 12 13.414zm2.828 2.829l2.829 2.828 1.414-1.414-2.828-2.829-1.415 1.415zm2.829 2.828l2.636 2.636 1.414-1.414-2.636-2.636-1.414 1.414zM12 12l1.414 1.414c.361-.36.586-.862.586-1.414h-2z"/></symbol><symbol fill="none" stroke="currentColor" viewBox="0 0 24 24" id="status-online" xmlns="http://www.w3.org/2000/svg"><path d="M5.636 18.364a9 9 0 010-12.728m12.728 0a9 9 0 010 12.728m-9.9-2.829a5 5 0 010-7.07m7.072 0a5 5 0 010 7.07M13 12a1 1 0 11-2 0 1 1 0 012 0z" stroke-width="1.5" stroke-linecap="round" stroke-linejoin="round"/></symbol><symbol fill="none" stroke="currentColor" viewBox="0 0 24 24" id="stop" xmlns="http://www.w3.org/2000/svg"><path d="M21 12a9 9 0 11-18 0 9 9 0 0118 0z" stroke-width="1.5" stroke-linecap="round" stroke-linejoin="round"/><path d="M9 10a1 1 0 011-1h4a1 1 0 011 1v4a1 1 0 01-1 1h-4a1 1 0 01-1-1v-4z" stroke-width="1.5" stroke-linecap="round" stroke-linejoin="round"/></symbol><symbol fill="none" stroke="currentColor" viewBox="0 0 24 24" id="sun" xmlns="http://www.w3.org/2000/svg"><path d="M12 3v1m0 16v1m9-9h-1M4 12H3m15.364 6.364l-.707-.707M6.343 6.343l-.707-.707m12.728 0l-.707.707M6.343 17.657l-.707.707M16 12a4 4 0 11-8 0 4 4 0 018 0z" stroke-width="1.5" stroke-linecap="round" stroke-linejoin="round"/></symbol><symbol fill="none" stroke="currentColor" viewBox="0 0 24 24" id="support" xmlns="http://www.w3.org/2000/svg"><path d="M20 12a8 8 0 01-8 8v2c5.523 0 10-4.477 10-10h-2zm-8 8a8 8 0 01-8-8H2c0 5.523 4.477 10 10 10v-2zm-8-8a8 8 0 018-8V2C6.477 2 2 6.477 2 12h2zm8-8a8 8 0 018 8h2c0-5.523-4.477-10-10-10v2zm3 8a3 3 0 01-3 3v2a5 5 0 005-5h-2zm-3 3a3 3 0 01-3-3H7a5 5 0 005 5v-2zm-3-3a3 3 0 013-3V7a5 5 0 00-5 5h2zm3-3a3 3 0 013 3h2a5 5 0 00-5-5v2zm5.657-4.071L14.12 8.464l1.415 1.415 3.535-3.536-1.414-1.414zM14.12 15.536l3.536 3.535 1.414-1.414-3.536-3.536-1.414 1.415zM9.88 8.464L6.343 4.93 4.93 6.343 8.464 9.88 9.88 8.464zm-1.415 5.657L4.93 17.657l1.414 1.414 3.536-3.536-1.415-1.414z"/></symbol><symbol fill="none" stroke="currentColor" viewBox="0 0 24 24" id="switch-horizontal" xmlns="http://www.w3.org/2000/svg"><path d="M8 7h12m0 0l-4-4m4 4l-4 4m0 6H4m0 0l4 4m-4-4l4-4" stroke-width="1.5" stroke-linecap="round" stroke-linejoin="round"/></symbol><symbol fill="none" stroke="currentColor" viewBox="0 0 24 24" id="switch-vertical" xmlns="http://www.w3.org/2000/svg"><path d="M7 16V4m0 0L3 8m4-4l4 4m6 0v12m0 0l4-4m-4 4l-4-4" stroke-width="1.5" stroke-linecap="round" stroke-linejoin="round"/></symbol><symbol fill="none" stroke="currentColor" viewBox="0 0 24 24" id="table" xmlns="http://www.w3.org/2000/svg"><path d="M3 10h18M3 14h18m-9-4v8m-7 0h14a2 2 0 002-2V8a2 2 0 00-2-2H5a2 2 0 00-2 2v8a2 2 0 002 2z" stroke-width="1.5"/></symbol><symbol fill="none" stroke="currentColor" viewBox="0 0 24 24" id="tag" xmlns="http://www.w3.org/2000/svg"><path d="M13.5 3.677l-.75.662.043.045.707-.707zm6.823 9.823l-.662-.75a.96.96 0 00-.045.043l.707.707zm.177-2.823l.75-.662a.947.947 0 00-.043-.045l-.707.707zM10.677 20.5l-.707.707.045.043.662-.75zm2.646 0l.662.75a.96.96 0 00.045-.043l-.707-.707zm-9.646-7l.707-.707-.022-.022-.023-.02-.662.749zM7 6a1 1 0 000 2V6zm.01 2a1 1 0 000-2v2zM4 7a3 3 0 013-3V2a5 5 0 00-5 5h2zm0 5V7H2v5h2zm3-8h5V2H7v2zm5 0c.299 0 .566.13.75.339l1.5-1.324A2.995 2.995 0 0012 2v2zm8 8c0 .299-.13.566-.339.75l1.324 1.5A2.995 2.995 0 0022 12h-2zm-.25-.661c.156.177.25.407.25.661h2c0-.76-.284-1.456-.75-1.985l-1.5 1.324zM12 20a.993.993 0 01-.661-.25l-1.324 1.5c.529.466 1.225.75 1.985.75v-2zm.661-.25A.993.993 0 0112 20v2c.76 0 1.456-.284 1.985-.75l-1.324-1.5zm-8.322-7A.995.995 0 014 12H2c0 .896.394 1.701 1.015 2.25l1.324-1.5zm8.454-8.366l7 7 1.414-1.414-7-7-1.414 1.414zm-1.409 15.409l-7-7-1.414 1.414 7 7 1.414-1.414zm8.232-7l-7 7 1.414 1.414 7-7-1.414-1.414zM7 8h.01V6H7v2z"/></symbol><symbol fill="none" stroke="currentColor" viewBox="0 0 24 24" id="template" xmlns="http://www.w3.org/2000/svg"><path d="M4 5a1 1 0 011-1h14a1 1 0 011 1v2a1 1 0 01-1 1H5a1 1 0 01-1-1V5zM4 13a1 1 0 011-1h6a1 1 0 011 1v6a1 1 0 01-1 1H5a1 1 0 01-1-1v-6zM16 13a1 1 0 011-1h2a1 1 0 011 1v6a1 1 0 01-1 1h-2a1 1 0 01-1-1v-6z" stroke-width="1.5" stroke-linecap="round" stroke-linejoin="round"/></symbol><symbol fill="none" stroke="currentColor" viewBox="0 0 24 24" id="terminal" xmlns="http://www.w3.org/2000/svg"><path d="M8 9l3 3-3 3m5 0h3M5 20h14a2 2 0 002-2V6a2 2 0 00-2-2H5a2 2 0 00-2 2v12a2 2 0 002 2z" stroke-width="1.5" stroke-linecap="round" stroke-linejoin="round"/></symbol><symbol fill="none" stroke="currentColor" viewBox="0 0 24 24" id="thumb-down" xmlns="http://www.w3.org/2000/svg"><path d="M10 14H5.236a2 2 0 01-1.789-2.894l3.5-7A2 2 0 018.737 3h4.017a2 2 0 01.485.06L17 4m-7 10v5a2 2 0 002 2h.095c.5 0 .905-.405.905-.904 0-.715.211-1.413.608-2.008L17 13V4m-7 10h2m5-10h2a2 2 0 012 2v6a2 2 0 01-2 2h-2.5" stroke-width="1.5" stroke-linecap="round" stroke-linejoin="round"/></symbol><symbol fill="none" stroke="currentColor" viewBox="0 0 24 24" id="thumb-up" xmlns="http://www.w3.org/2000/svg"><path d="M14 10h4.764a2 2 0 011.789 2.894l-3.5 7A2 2 0 0115.263 21h-4.017c-.163 0-.326-.02-.485-.06L7 20m7-10V5a2 2 0 00-2-2h-.095c-.5 0-.905.405-.905.905 0 .714-.211 1.412-.608 2.006L7 11v9m7-10h-2M7 20H5a2 2 0 01-2-2v-6a2 2 0 012-2h2.5" stroke-width="1.5" stroke-linecap="round" stroke-linejoin="round"/></symbol><symbol fill="none" stroke="currentColor" viewBox="0 0 24 24" id="ticket" xmlns="http://www.w3.org/2000/svg"><path d="M21 10v1a1 1 0 001-1h-1zm0 4h1a1 1 0 00-1-1v1zM3 14v-1a1 1 0 00-1 1h1zm0-4H2a1 1 0 001 1v-1zm13-5a1 1 0 10-2 0h2zm-2 2a1 1 0 102 0h-2zm2 4a1 1 0 10-2 0h2zm-2 2a1 1 0 102 0h-2zm2 4a1 1 0 10-2 0h2zm-2 2a1 1 0 102 0h-2zM5 4a3 3 0 00-3 3h2a1 1 0 011-1V4zm14 0H5v2h14V4zm3 3a3 3 0 00-3-3v2a1 1 0 011 1h2zm0 3V7h-2v3h2zm-2 2a1 1 0 011-1V9a3 3 0 00-3 3h2zm1 1a1 1 0 01-1-1h-2a3 3 0 003 3v-2zm1 4v-3h-2v3h2zm-3 3a3 3 0 003-3h-2a1 1 0 01-1 1v2zM5 20h14v-2H5v2zm-3-3a3 3 0 003 3v-2a1 1 0 01-1-1H2zm0-3v3h2v-3H2zm2-2a1 1 0 01-1 1v2a3 3 0 003-3H4zm-1-1a1 1 0 011 1h2a3 3 0 00-3-3v2zM2 7v3h2V7H2zm12-2v2h2V5h-2zm0 6v2h2v-2h-2zm0 6v2h2v-2h-2z"/></symbol><symbol fill="none" stroke="currentColor" viewBox="0 0 24 24" id="translate" xmlns="http://www.w3.org/2000/svg"><path d="M3 5h12M9 3v2m1.048 9.5A18.022 18.022 0 016.412 9m6.088 9h7M11 21l5-10 5 10M12.751 5C11.783 10.77 8.07 15.61 3 18.129" stroke-width="1.5" stroke-linecap="round" stroke-linejoin="round"/></symbol><symbol fill="none" stroke="currentColor" viewBox="0 0 24 24" id="trash" xmlns="http://www.w3.org/2000/svg"><path d="M19 7l-.867 12.142A2 2 0 0116.138 21H7.862a2 2 0 01-1.995-1.858L5 7m5 4v6m4-6v6m1-10V4a1 1 0 00-1-1h-4a1 1 0 00-1 1v3M4 7h16" stroke-width="1.5" stroke-linecap="round" stroke-linejoin="round"/></symbol><symbol fill="none" stroke="currentColor" viewBox="0 0 24 24" id="trending-down" xmlns="http://www.w3.org/2000/svg"><path d="M13 17h8m0 0V9m0 8l-8-8-4 4-6-6" stroke-width="1.5" stroke-linecap="round" stroke-linejoin="round"/></symbol><symbol fill="none" stroke="currentColor" viewBox="0 0 24 24" id="trending-up" xmlns="http://www.w3.org/2000/svg"><path d="M13 7h8m0 0v8m0-8l-8 8-4-4-6 6" stroke-width="1.5" stroke-linecap="round" stroke-linejoin="round"/></symbol><symbol viewBox="0 0 24 24" id="truck" xmlns="http://www.w3.org/2000/svg"><path d="M13 16V6C13 5.44772 12.5523 5 12 5H4C3.44772 5 3 5.44772 3 6V16C3 16.5523 3.44772 17 4 17H5M13 16C13 16.5523 12.5523 17 12 17H9M13 16L13 8C13 7.44772 13.4477 7 14 7H16.5858C16.851 7 17.1054 7.10536 17.2929 7.29289L20.7071 10.7071C20.8946 10.8946 21 11.149 21 11.4142V16C21 16.5523 20.5523 17 20 17H19M13 16C13 16.5523 13.4477 17 14 17H15M5 17C5 18.1046 5.89543 19 7 19C8.10457 19 9 18.1046 9 17M5 17C5 15.8954 5.89543 15 7 15C8.10457 15 9 15.8954 9 17M15 17C15 18.1046 15.8954 19 17 19C18.1046 19 19 18.1046 19 17M15 17C15 15.8954 15.8954 15 17 15C18.1046 15 19 15.8954 19 17" stroke="currentColor" fill="none" stroke-width="1.5"/></symbol><symbol fill="none" stroke="currentColor" viewBox="0 0 24 24" id="upload" xmlns="http://www.w3.org/2000/svg"><path d="M4 16v1a3 3 0 003 3h10a3 3 0 003-3v-1m-4-8l-4-4m0 0L8 8m4-4v12" stroke-width="1.5" stroke-linecap="round" stroke-linejoin="round"/></symbol><symbol fill="none" stroke="currentColor" viewBox="0 0 24 24" id="user" xmlns="http://www.w3.org/2000/svg"><path d="M16 7a4 4 0 11-8 0 4 4 0 018 0zM12 14a7 7 0 00-7 7h14a7 7 0 00-7-7z" stroke-width="1.5" stroke-linecap="round" stroke-linejoin="round"/></symbol><symbol fill="none" stroke="currentColor" viewBox="0 0 24 24" id="user-add" xmlns="http://www.w3.org/2000/svg"><path d="M18 9v3m0 0v3m0-3h3m-3 0h-3m-2-5a4 4 0 11-8 0 4 4 0 018 0zM3 20a6 6 0 0112 0v1H3v-1z" stroke-width="1.5" stroke-linecap="round" stroke-linejoin="round"/></symbol><symbol fill="none" stroke="currentColor" viewBox="0 0 24 24" id="user-circle" xmlns="http://www.w3.org/2000/svg"><path d="M5.121 17.804A13.937 13.937 0 0112 16c2.5 0 4.847.655 6.879 1.804M15 10a3 3 0 11-6 0 3 3 0 016 0zm6 2a9 9 0 11-18 0 9 9 0 0118 0z" stroke-width="1.5" stroke-linecap="round" stroke-linejoin="round"/></symbol><symbol fill="none" stroke="currentColor" viewBox="0 0 24 24" id="user-group" xmlns="http://www.w3.org/2000/svg"><path d="M17 20h5v-2a3 3 0 00-5.356-1.857M17 20H7m10 0v-2c0-.656-.126-1.283-.356-1.857M7 20H2v-2a3 3 0 015.356-1.857M7 20v-2c0-.656.126-1.283.356-1.857m0 0a5.002 5.002 0 019.288 0M15 7a3 3 0 11-6 0 3 3 0 016 0zm6 3a2 2 0 11-4 0 2 2 0 014 0zM7 10a2 2 0 11-4 0 2 2 0 014 0z" stroke-width="1.5" stroke-linecap="round" stroke-linejoin="round"/></symbol><symbol fill="none" stroke="currentColor" viewBox="0 0 24 24" id="users" xmlns="http://www.w3.org/2000/svg"><path d="M12 4.354a4 4 0 110 5.292M15 21H3v-1a6 6 0 0112 0v1zm0 0h6v-1a6 6 0 00-9-5.197M13 7a4 4 0 11-8 0 4 4 0 018 0z" stroke-width="1.5" stroke-linecap="round" stroke-linejoin="round"/></symbol><symbol fill="none" stroke="currentColor" viewBox="0 0 24 24" id="variable" xmlns="http://www.w3.org/2000/svg"><path d="M5.767 4.445a1 1 0 10-1.791-.89l1.79.89zm-1.791 16a1 1 0 101.79-.89l-1.79.89zm14.129-.89a1 1 0 001.79.89l-1.79-.89zm1.79-16a1 1 0 00-1.79.89l1.79-.89zM9 8a1 1 0 000 2V8zm2.207 1.725l-.961.275.961-.275zm1.586 5.55l-.962.274.962-.274zM15 17a1 1 0 100-2v2zm1-7a1 1 0 100-2v2zm-1.599-.302l.76.651-.76-.65zM9.6 15.302l.759.65-.76-.65zM8 15a1 1 0 100 2v-2zm-4-3c0-2.716.636-5.28 1.767-7.555l-1.791-.89A18.926 18.926 0 002 12h2zm1.767 7.555A16.926 16.926 0 014 12H2c0 3.031.71 5.9 1.976 8.445l1.79-.89zM19.87 12c0 2.716-.636 5.28-1.766 7.555l1.79.89A18.926 18.926 0 0021.872 12h-2zm-1.766-7.555A16.925 16.925 0 0119.87 12h2c0-3.032-.71-5.9-1.975-8.445l-1.791.89zM9 10h1.246V8H9v2zm1.246 0l1.585 5.55 1.923-.55-1.585-5.55-1.923.55zm3.508 7H15v-2h-1.246v2zm-1.923-1.45A2 2 0 0013.754 17v-2l-1.923.55zM10.246 10l1.923-.55A2 2 0 0010.246 8v2zM16 8h-.08v2H16V8zm-2.358 1.048L8.84 14.65l1.519 1.301 4.803-5.603-1.519-1.301zM8.08 15H8v2h.08v-2zm.76-.35a1 1 0 01-.76.35v2a3 3 0 002.278-1.048l-1.519-1.301zM15.92 8a3 3 0 00-2.278 1.048l1.519 1.301A1 1 0 0115.92 10V8z"/></symbol><symbol fill="none" stroke="currentColor" viewBox="0 0 24 24" id="video-camera" xmlns="http://www.w3.org/2000/svg"><path d="M15 10l4.553-2.276A1 1 0 0121 8.618v6.764a1 1 0 01-1.447.894L15 14M5 18h8a2 2 0 002-2V8a2 2 0 00-2-2H5a2 2 0 00-2 2v8a2 2 0 002 2z" stroke-width="1.5" stroke-linecap="round" stroke-linejoin="round"/></symbol><symbol fill="none" stroke="currentColor" viewBox="0 0 24 24" id="view-boards" xmlns="http://www.w3.org/2000/svg"><path d="M9 17V7m0 10a2 2 0 01-2 2H5a2 2 0 01-2-2V7a2 2 0 012-2h2a2 2 0 012 2m0 10a2 2 0 002 2h2a2 2 0 002-2M9 7a2 2 0 012-2h2a2 2 0 012 2m0 10V7m0 10a2 2 0 002 2h2a2 2 0 002-2V7a2 2 0 00-2-2h-2a2 2 0 00-2 2" stroke-width="1.5" stroke-linecap="round" stroke-linejoin="round"/></symbol><symbol fill="none" stroke="currentColor" viewBox="0 0 24 24" id="view-grid" xmlns="http://www.w3.org/2000/svg"><path d="M4 6a2 2 0 012-2h2a2 2 0 012 2v2a2 2 0 01-2 2H6a2 2 0 01-2-2V6zM14 6a2 2 0 012-2h2a2 2 0 012 2v2a2 2 0 01-2 2h-2a2 2 0 01-2-2V6zM4 16a2 2 0 012-2h2a2 2 0 012 2v2a2 2 0 01-2 2H6a2 2 0 01-2-2v-2zM14 16a2 2 0 012-2h2a2 2 0 012 2v2a2 2 0 01-2 2h-2a2 2 0 01-2-2v-2z" stroke-width="1.5" stroke-linecap="round" stroke-linejoin="round"/></symbol><symbol fill="none" stroke="currentColor" viewBox="0 0 24 24" id="view-list" xmlns="http://www.w3.org/2000/svg"><path d="M4 6h16M4 10h16M4 14h16M4 18h16" stroke-width="1.5" stroke-linecap="round" stroke-linejoin="round"/></symbol><symbol fill="none" stroke="currentColor" viewBox="0 0 24 24" id="volume-off" xmlns="http://www.w3.org/2000/svg"><path d="M17 14l2-2m0 0l2-2m-2 2l-2-2m2 2l2 2M5.586 15H4a1 1 0 01-1-1v-4a1 1 0 011-1h1.586l4.707-4.707C10.923 3.663 12 4.109 12 5v14c0 .891-1.077 1.337-1.707.707L5.586 15z" stroke-width="1.5" stroke-linecap="round" stroke-linejoin="round"/></symbol><symbol fill="none" stroke="currentColor" viewBox="0 0 24 24" id="volume-up" xmlns="http://www.w3.org/2000/svg"><path d="M15.536 8.464a5 5 0 010 7.072m2.828-9.9a9 9 0 010 12.728M5.586 15H4a1 1 0 01-1-1v-4a1 1 0 011-1h1.586l4.707-4.707C10.923 3.663 12 4.109 12 5v14c0 .891-1.077 1.337-1.707.707L5.586 15z" stroke-width="1.5" stroke-linecap="round" stroke-linejoin="round"/></symbol><symbol fill="none" stroke="currentColor" viewBox="0 0 24 24" id="wifi" xmlns="http://www.w3.org/2000/svg"><path d="M7.404 15.697a1 1 0 101.414 1.414l-1.414-1.414zm7.778 1.414a1 1 0 001.414-1.414l-1.414 1.414zM12 19a1 1 0 100 2v-2zm.01 2a1 1 0 000-2v2zm-7.788-8.778a1 1 0 001.414 1.414l-1.414-1.414zm14.142 1.414a1 1 0 001.414-1.414l-1.414 1.414zM.686 8.686a1 1 0 101.415 1.415L.686 8.686zM21.9 10.101a1 1 0 001.414-1.415L21.9 10.101zM8.818 17.11a4.5 4.5 0 016.364 0l1.414-1.414a6.5 6.5 0 00-9.192 0l1.414 1.414zM12 21h.01v-2H12v2zm-6.364-7.364a9 9 0 0112.728 0l1.414-1.414c-4.295-4.296-11.26-4.296-15.556 0l1.414 1.414zm-3.535-3.535c5.467-5.468 14.331-5.468 19.799 0l1.414-1.415c-6.248-6.248-16.38-6.248-22.628 0l1.415 1.415z"/></symbol><symbol fill="none" stroke="currentColor" viewBox="0 0 24 24" id="x" xmlns="http://www.w3.org/2000/svg"><path d="M6 18L18 6M6 6l12 12" stroke-width="1.5" stroke-linecap="round" stroke-linejoin="round"/></symbol><symbol fill="none" stroke="currentColor" viewBox="0 0 24 24" id="x-circle" xmlns="http://www.w3.org/2000/svg"><path d="M10 14l2-2m0 0l2-2m-2 2l-2-2m2 2l2 2m7-2a9 9 0 11-18 0 9 9 0 0118 0z" stroke-width="1.5" stroke-linecap="round" stroke-linejoin="round"/></symbol><symbol fill="none" stroke="currentColor" viewBox="0 0 24 24" id="zoom-in" xmlns="http://www.w3.org/2000/svg"><path d="M21 21l-6-6m-5-8v3m0 0v3m0-3h3m-3 0H7m10 0a7 7 0 11-14 0 7 7 0 0114 0z" stroke-width="1.5" stroke-linecap="round" stroke-linejoin="round"/></symbol><symbol fill="none" stroke="currentColor" viewBox="0 0 24 24" id="zoom-out" xmlns="http://www.w3.org/2000/svg"><path d="M21 21l-6-6m-2-5H7m10 0a7 7 0 11-14 0 7 7 0 0114 0z" stroke-width="1.5" stroke-linecap="round" stroke-linejoin="round"/></symbol><symbol viewBox="0 0 24 24" fill="none" stroke="currentColor" id="clipboard-copy" xmlns="http://www.w3.org/2000/svg"><path d="M7 5H6C4.89543 5 4 5.89543 4 7V19C4 20.1046 4.89543 21 6 21H16C17.1046 21 18 20.1046 18 19V18M7 5C7 6.10457 7.89543 7 9 7H13C14.1046 7 15 6.10457 15 5M7 5C7 3.89543 7.89543 3 9 3H13C14.1046 3 15 3.89543 15 5M15 5H16C17.1046 5 18 5.89543 18 7V10M20 14H10M10 14L13 11M10 14L13 17" stroke="#6B7280" stroke-width="1.5" stroke-linecap="round" stroke-linejoin="round"/></symbol><symbol id="document-cross" viewBox="0 0 24 24" fill="none" xmlns="http://www.w3.org/2000/svg"><path d="M10.125 2.25H5.625C5.004 2.25 4.5 2.754 4.5 3.375V20.625C4.5 21.246 5.004 21.75 5.625 21.75H18.375C18.996 21.75 19.5 21.246 19.5 20.625V11.625M10.125 2.25H10.5C12.8869 2.25 15.1761 3.19821 16.864 4.88604C18.5518 6.57387 19.5 8.86305 19.5 11.25V11.625M10.125 2.25C11.0201 2.25 11.8785 2.60558 12.5115 3.23851C13.1444 3.87145 13.5 4.72989 13.5 5.625V7.125C13.5 7.746 14.004 8.25 14.625 8.25H16.125C17.0201 8.25 17.8786 8.60558 18.5115 9.23851C19.1444 9.87145 19.5 10.7299 19.5 11.625M9 17.375L14.5 12M9 12L14.5 17.375" stroke="currentColor" stroke-width="1.5" stroke-linecap="round" stroke-linejoin="round"/></symbol><symbol id="payables" viewBox="0 0 24 24" fill="none" xmlns="http://www.w3.org/2000/svg"><path d="M19 19C19 20.1046 18.1046 21 17 21H7C5.89543 21 5 20.1046 5 19V5C5 3.89543 5.89543 3 7 3H12.5858C12.851 3 13.1054 3.10536 13.2929 3.29289L18.7071 8.70711M10 13.8703H19M19 13.8703L16 16.8703M19 13.8703L16 10.8703" stroke="currentColor" stroke-width="1.5" stroke-linecap="round" stroke-linejoin="round"/></symbol><symbol id="receivables" viewBox="0 0 24 24" fill="none" xmlns="http://www.w3.org/2000/svg"><path d="M19 19C19 20.1046 18.1046 21 17 21H7C5.89543 21 5 20.1046 5 19V5C5 3.89543 5.89543 3 7 3H12.5858C12.851 3 13.1054 3.10536 13.2929 3.29289L18.7071 8.70711M21 13.8703H12M12 13.8703L15 10.8703M12 13.8703L15 16.8703" stroke="currentColor" stroke-width="1.5" stroke-linecap="round" stroke-linejoin="round"/></symbol>
<symbol id="building-storefront" viewBox="0 0 29 28" xmlns="http://www.w3.org/2000/svg" fill="none">
  <path d="M16.25 24.4998V15.7498C16.25 15.2666 16.6418 14.8748 17.125 14.8748H20.625C21.1082 14.8748 21.5 15.2666 21.5 15.7498V24.4998M16.25 24.4998H3.25436M16.25 24.4998H21.5M21.5 24.4998H25.7456M24.125 24.4998V10.9067M4.875 24.4998V10.907M4.875 10.907C6.21351 11.6807 7.95474 11.4949 9.09987 10.3498C9.15193 10.2978 9.202 10.2445 9.2501 10.19C9.89142 10.9166 10.8297 11.3748 11.875 11.3748C12.9204 11.3748 13.8587 10.9166 14.5 10.1899C15.1413 10.9166 16.0796 11.3748 17.125 11.3748C18.1702 11.3748 19.1085 10.9167 19.7498 10.1902C19.7978 10.2445 19.8478 10.2977 19.8998 10.3497C21.045 11.4949 22.7865 11.6806 24.125 10.9067M4.875 10.907C4.61587 10.7572 4.37182 10.5715 4.15013 10.3498C2.78329 8.98298 2.78329 6.7669 4.15013 5.40006L5.53763 4.01256C5.86582 3.68437 6.31094 3.5 6.77506 3.5H22.2247C22.6888 3.5 23.134 3.68438 23.4621 4.01256L24.8495 5.39996C26.2164 6.7668 26.2164 8.98288 24.8495 10.3497C24.6279 10.5713 24.384 10.757 24.125 10.9067M8.375 20.9998H12.75C13.2332 20.9998 13.625 20.6081 13.625 20.1248V15.7498C13.625 15.2666 13.2332 14.8748 12.75 14.8748H8.375C7.89175 14.8748 7.5 15.2666 7.5 15.7498V20.1248C7.5 20.6081 7.89175 20.9998 8.375 20.9998Z" stroke="currentColor" stroke-width="2" stroke-linecap="round" stroke-linejoin="round"/>
</symbol>
</svg>
