<svg width="80" height="80" viewBox="0 0 80 80" fill="none" xmlns="http://www.w3.org/2000/svg">
<path d="M6.9268 62.505C10.1587 59.6511 13.7574 57.2184 17.6393 55.2768C24.5856 51.8025 32.2466 49.9968 40.0133 50.0033C52.689 50.0033 64.2663 54.7214 73.0792 62.4962C65.8796 73.0622 53.75 80 40 80C26.2538 80 14.1271 73.066 6.9268 62.505Z" fill="#D1D5DB"/>
<path d="M49.4348 39.428C51.9352 36.9276 53.34 33.5362 53.34 30C53.34 26.4637 51.9352 23.0724 49.4348 20.5719C46.9343 18.0714 43.5429 16.6666 40.0067 16.6666C36.4704 16.6666 33.0791 18.0714 30.5786 20.5719C28.0781 23.0724 26.6733 26.4637 26.6733 30C26.6733 33.5362 28.0781 36.9276 30.5786 39.428C33.0791 41.9285 36.4704 43.3333 40.0067 43.3333C43.5429 43.3333 46.9343 41.9285 49.4348 39.428Z" fill="#D1D5DB"/>
</svg>
