<svg width="19" height="18" viewBox="0 0 19 18" fill="none" xmlns="http://www.w3.org/2000/svg">
<path fill-rule="evenodd" clip-rule="evenodd" d="M9.85176 1.125C7.31002 3.2985 3.18829 3.43023 3.18829 3.43023V9.22623C3.18829 12.7829 9.85176 16.875 9.85176 16.875C9.85176 16.875 16.5152 12.7829 16.5152 9.22623V3.43023C16.5152 3.43023 12.3935 3.2985 9.85176 1.125ZM8.21709 7.981L9.40413 8.67117L11.8083 7.27068L8.27226 5.21192C8.21876 5.18169 8.15189 5.19849 8.12012 5.25222C8.11009 5.26901 8.10507 5.28917 8.10507 5.30932V7.78621C8.10507 7.86681 8.14687 7.9407 8.21709 7.981ZM8.10516 10.1036C8.10516 10.023 8.14696 9.94911 8.21718 9.90881L12.2748 7.54778V10.285C12.2732 10.3253 12.2514 10.3622 12.2163 10.3824L8.27235 12.6779C8.21885 12.7081 8.1503 12.6913 8.12021 12.6376C8.11018 12.6208 8.10516 12.6006 8.10516 12.5805L8.10516 10.1036Z" fill="#0089CF"/>
</svg>
