<svg width="18" height="18" viewBox="0 0 18 18" fill="none" xmlns="http://www.w3.org/2000/svg">
<path d="M15 14.793V14.043C15 13.593 14.7 13.293 14.25 13.293H3.75C3.3 13.293 3 13.593 3 14.043V14.793H2.25C1.8 14.793 1.5 15.093 1.5 15.543V16.293H16.5V15.543C16.5 15.093 16.2 14.793 15.75 14.793H15Z" fill="url(#paint0_linear_7113_52007)"/>
<path opacity="0.3" d="M16.5 5.04375V5.79375C16.5 6.24375 16.2 6.54375 15.75 6.54375H13.5C13.95 6.54375 14.25 6.84375 14.25 7.29375C14.25 7.74375 13.95 8.04375 13.5 8.04375V11.7937C13.95 11.7937 14.25 12.0937 14.25 12.5437V13.2937H11.25V12.5437C11.25 12.0937 11.55 11.7937 12 11.7937V8.04375C11.55 8.04375 11.25 7.74375 11.25 7.29375C11.25 6.84375 11.55 6.54375 12 6.54375H9.75C10.2 6.54375 10.5 6.84375 10.5 7.29375C10.5 7.74375 10.2 8.04375 9.75 8.04375V11.7937C10.2 11.7937 10.5 12.0937 10.5 12.5437V13.2937H7.5V12.5437C7.5 12.0937 7.8 11.7937 8.25 11.7937V8.04375C7.8 8.04375 7.5 7.74375 7.5 7.29375C7.5 6.84375 7.8 6.54375 8.25 6.54375H6C6.45 6.54375 6.75 6.84375 6.75 7.29375C6.75 7.74375 6.45 8.04375 6 8.04375V11.7937C6.45 11.7937 6.75 12.0937 6.75 12.5437V13.2937H3.75V12.5437C3.75 12.0937 4.05 11.7937 4.5 11.7937V8.04375C4.05 8.04375 3.75 7.74375 3.75 7.29375C3.75 6.84375 4.05 6.54375 4.5 6.54375H2.25C1.8 6.54375 1.5 6.24375 1.5 5.79375V5.04375L8.25 1.66875C8.7 1.44375 9.3 1.44375 9.825 1.66875L16.5 5.04375ZM9 2.79375C8.4 2.79375 7.875 3.31875 7.875 3.91875C7.875 4.51875 8.4 5.04375 9 5.04375C9.6 5.04375 10.125 4.51875 10.125 3.91875C10.125 3.31875 9.6 2.79375 9 2.79375Z" fill="url(#paint1_linear_7113_52007)"/>
<defs>
<linearGradient id="paint0_linear_7113_52007" x1="9" y1="13.293" x2="9" y2="16.293" gradientUnits="userSpaceOnUse">
<stop stop-color="#10B981"/>
<stop offset="1" stop-color="#42936C"/>
</linearGradient>
<linearGradient id="paint1_linear_7113_52007" x1="9" y1="1.5" x2="9" y2="13.2937" gradientUnits="userSpaceOnUse">
<stop stop-color="#10B981"/>
<stop offset="1" stop-color="#42936C"/>
</linearGradient>
</defs>
</svg>
