<svg width="256" height="640" viewBox="0 0 256 640" fill="none" xmlns="http://www.w3.org/2000/svg">
<g clip-path="url(#clip0_36752_92631)">
<rect width="256" height="640" rx="16" fill="white"/>
<rect width="256" height="640" rx="16" fill="url(#paint0_linear_36752_92631)"/>
<g opacity="0.3">
<g filter="url(#filter0_f_36752_92631)">
<ellipse cx="132.752" cy="59.8011" rx="241.926" ry="55.3025" transform="rotate(-14.6997 132.752 59.8011)" fill="url(#paint1_linear_36752_92631)"/>
</g>
<g filter="url(#filter1_f_36752_92631)">
<ellipse cx="153.889" cy="78.4891" rx="255.87" ry="65.8838" transform="rotate(-19.2507 153.889 78.4891)" fill="url(#paint2_linear_36752_92631)"/>
</g>
</g>
<g filter="url(#filter2_ddd_36752_92631)">
<path d="M131.377 324.344L7.66423 358.054L7.66424 385.398C7.66424 390.17 10.9472 394.746 16.7908 398.119L109.343 451.555C121.512 458.58 141.242 458.58 153.411 451.555L245.963 398.119C251.807 394.746 255.09 390.17 255.09 385.398L255.09 358.054L131.377 324.344Z" fill="url(#paint3_linear_36752_92631)"/>
<g filter="url(#filter3_i_36752_92631)">
<rect width="157.742" height="157.742" rx="25.4422" transform="matrix(0.866025 0.5 -0.866025 0.5 131.377 278.547)" fill="white"/>
</g>
<circle cx="2.54422" cy="2.54422" r="2.54422" transform="matrix(0.866025 0.5 -0.866025 0.5 65.8301 380.633)" fill="#1DBDB6"/>
<circle cx="2.54422" cy="2.54422" r="2.54422" transform="matrix(0.866025 0.5 -0.866025 0.5 72.9902 384.769)" fill="#1DBDB6"/>
<circle cx="2.54422" cy="2.54422" r="2.54422" transform="matrix(0.866025 0.5 -0.866025 0.5 80.1523 388.903)" fill="#DCDFF0"/>
<circle cx="2.54422" cy="2.54422" r="2.54422" transform="matrix(0.866025 0.5 -0.866025 0.5 87.3105 393.035)" fill="#DCDFF0"/>
<g filter="url(#filter4_i_36752_92631)">
<rect width="97.9497" height="97.9497" rx="12.7211" transform="matrix(0.866025 0.5 -0.866025 0.5 131.377 308.442)" fill="#F9FAFD"/>
</g>
<rect x="-2.00179e-08" y="0.335844" width="97.278" height="97.278" rx="12.3853" transform="matrix(0.866025 0.5 -0.866025 0.5 131.668 308.61)" stroke="url(#paint4_linear_36752_92631)" stroke-width="0.671688"/>
<g clip-path="url(#clip1_36752_92631)">
<path d="M112.33 361.695C107.468 358.351 104.739 354.494 104.739 350.96C104.736 348.945 105.569 347.242 107.323 345.679C108.12 344.967 109.801 343.996 111.049 343.532C114.815 342.126 119.527 341.717 124.752 342.343C136.662 343.773 147.662 350.149 150.041 357.006C150.358 357.916 150.467 358.559 150.482 359.542C150.496 360.781 150.194 361.834 149.437 363.195C149.408 363.246 149.485 363.374 149.605 363.477C150.005 363.83 150.285 364.445 150.321 365.05C150.351 365.521 150.245 365.956 149.834 367.122C149.419 368.298 147.425 373.685 147.276 374.027C147.218 374.162 146.817 374.195 146.625 374.084C146.486 374.004 146.483 373.897 146.599 373.594C146.683 373.382 147.199 372.004 147.749 370.531C149.688 365.323 149.754 365.067 149.263 364.212L149.004 363.765L147.483 362.887C145.962 362.008 145.962 362.008 145.766 362.08C144.689 362.471 144.434 362.571 144.438 362.62C144.441 362.651 144.812 363.433 145.264 364.357L146.086 366.038L145.726 366.111C145.526 366.151 145.344 366.172 145.318 366.157C145.293 366.143 144.59 364.733 143.761 363.023C142.928 361.315 142.167 359.834 142.069 359.735C141.68 359.338 140.253 359.204 139.715 359.515C139.169 359.83 139.172 360.013 139.776 363.513C140.151 365.695 140.319 366.973 140.26 367.216C140.151 367.662 139.838 368.229 139.347 368.865C138.485 369.989 138.583 370.949 139.664 371.994L140.02 372.338L139.722 372.464C139.558 372.533 139.398 372.592 139.362 372.592C139.231 372.597 138.579 371.868 138.292 371.395C137.841 370.655 137.837 369.968 138.285 369.034C138.288 369.027 137.83 368.897 137.273 368.748C136.28 368.481 136.221 368.473 134.861 368.464C129.057 368.424 123.013 367.048 117.307 364.473C116.358 364.059 113.13 362.25 112.33 361.695ZM118.272 364.109C120.913 365.277 123.187 366.057 125.855 366.702C128.657 367.378 131.702 367.788 134.257 367.826L135.264 367.84L134.584 366.729C133.86 365.542 133.831 365.399 134.246 364.954C134.508 364.672 135.035 364.515 135.774 364.5L136.352 364.485L136.207 363.872C136.094 363.387 136.101 363.21 136.247 363.017C136.487 362.706 136.964 362.494 137.542 362.437L137.983 362.393L136.411 361.099C135.548 360.387 134.755 359.714 134.653 359.605C134.449 359.391 134.489 359.036 134.73 358.809C134.861 358.687 140.359 356.592 141.217 356.336C141.603 356.223 142.353 356.248 142.709 356.391C143.084 356.54 147.716 360.353 147.833 360.609C148.018 361.015 147.742 361.334 146.963 361.624L146.639 361.744L146.948 361.922C147.119 362.021 147.545 362.242 147.894 362.414L148.531 362.727L148.782 362.246C149.539 360.796 149.594 358.92 148.935 357.027C148.626 356.143 147.632 354.452 146.872 353.525C145.791 352.208 144.208 350.773 142.458 349.527C141.498 348.843 138.688 347.225 137.535 346.689C134.773 345.406 131.946 344.425 129.122 343.769C122.583 342.25 116.263 342.341 111.784 344.015C110.612 344.452 108.909 345.418 108.221 346.034C106.7 347.395 105.933 348.889 105.853 350.645C105.693 354.225 108.349 358.019 113.439 361.466C114.123 361.929 117.42 363.731 118.272 364.109ZM120.735 361.523C120.535 361.311 120.582 360.947 120.844 360.725C121.015 360.58 121.208 360.523 122.096 360.359C125.684 359.7 128.391 358.75 131.029 357.227C133.58 355.754 135.097 354.336 136.309 352.288C136.567 351.849 136.84 351.456 136.909 351.416C137.164 351.269 137.742 351.179 138.114 351.229C138.623 351.296 139.114 351.622 139.132 351.906C139.14 352.015 138.976 352.399 138.772 352.761C137.968 354.191 136.738 355.561 135.148 356.807C134.162 357.578 132 358.868 130.796 359.399C128.58 360.38 126.313 361.092 123.773 361.601C122.238 361.908 121.499 361.973 121.237 361.821C121.186 361.792 121.084 361.75 121.019 361.729C120.953 361.708 120.822 361.616 120.735 361.523ZM119.112 358.532C118.803 358.206 119.025 357.712 119.552 357.555C119.68 357.515 120.335 357.376 121.008 357.244C123.853 356.681 126.288 355.725 128.107 354.456C129.603 353.412 130.349 352.641 131.124 351.332C131.648 350.454 131.779 350.349 132.484 350.277C133.154 350.21 133.907 350.574 133.936 350.973C133.958 351.25 133.107 352.645 132.484 353.353C130.425 355.693 126.986 357.502 122.707 358.498C120.509 359.006 119.571 359.015 119.112 358.532ZM117.409 355.464C117.26 355.24 117.315 354.939 117.537 354.735C117.671 354.611 117.937 354.538 118.905 354.349C122.471 353.651 124.778 352.332 125.96 350.322C126.477 349.439 126.67 349.315 127.499 349.328C127.911 349.334 128.034 349.368 128.329 349.538C128.828 349.826 128.835 350.12 128.365 350.903C127.645 352.109 126.706 352.975 125.141 353.874C123.533 354.798 122.169 355.284 119.96 355.719C118.694 355.966 118.261 355.977 117.788 355.767C117.649 355.7 117.475 355.565 117.409 355.464ZM115.815 352.603C115.688 352.429 115.735 352.12 115.917 351.931C116.121 351.721 116.412 351.628 117.26 351.508C118.355 351.355 118.814 351.2 119.702 350.687C120.589 350.174 120.862 349.908 121.124 349.277C121.212 349.063 121.35 348.824 121.426 348.742C121.739 348.406 122.664 348.305 123.26 348.54C123.766 348.74 123.868 349.017 123.65 349.597C123.013 351.271 120.655 352.632 117.769 352.992C116.754 353.116 116.092 352.985 115.815 352.603ZM137.462 368.269C137.975 368.41 138.43 368.525 138.474 368.525C138.517 368.525 138.685 368.344 138.849 368.12C139.187 367.664 139.209 367.693 138.248 367.315C137.211 366.91 136.855 366.531 136.603 365.576C136.538 365.315 136.425 365.069 136.36 365.031C136.291 364.992 136.047 364.964 135.807 364.968C135.301 364.979 134.857 365.193 134.81 365.447C134.773 365.67 136.025 367.708 136.301 367.876C136.425 367.952 136.946 368.126 137.462 368.269ZM138.914 366.994C139.34 367.155 139.402 367.166 139.456 367.063C139.514 366.95 138.95 363.456 138.834 363.191C138.736 362.975 138.51 362.882 138.103 362.891C136.913 362.914 136.851 363.029 137.2 364.546C137.619 366.38 137.731 366.538 138.914 366.994ZM138.634 362.029C138.652 362.019 138.601 361.616 138.517 361.134C138.317 359.943 138.423 359.601 139.114 359.202C139.689 358.87 140.632 358.771 141.57 358.943C142.036 359.027 142.633 359.317 142.84 359.555C142.986 359.723 143.441 360.603 144.023 361.847L144.143 362.109L145.507 361.595C146.905 361.069 147.214 360.895 147.058 360.725C147.01 360.672 145.93 359.771 144.66 358.723C142.4 356.859 142.127 356.668 141.792 356.714C141.614 356.737 135.73 358.929 135.526 359.046C135.425 359.105 135.348 359.208 135.359 359.277C135.366 359.345 136.065 359.971 136.909 360.668C138.532 362.017 138.583 362.059 138.634 362.029Z" fill="#CFD2E5"/>
</g>
</g>
<path d="M131.377 321.541L3.939 356.267L3.939 384.434C3.939 389.349 7.32078 394.063 13.3404 397.538L108.68 452.582C121.215 459.82 141.539 459.82 154.074 452.582L249.414 397.538C255.433 394.063 258.815 389.349 258.815 384.434L258.815 356.267L131.377 321.541Z" fill="url(#paint5_linear_36752_92631)"/>
<g filter="url(#filter5_i_36752_92631)">
<rect width="162.492" height="162.492" rx="26.2083" transform="matrix(0.866025 0.5 -0.866025 0.5 131.377 274.366)" fill="white"/>
</g>
<circle cx="2.03199" cy="2.03199" r="2.03199" transform="matrix(0.866025 0.5 -0.866025 0.5 67.0312 380.857)" fill="#1DBDB6"/>
<circle cx="2.03199" cy="2.03199" r="2.03199" transform="matrix(0.866025 0.5 -0.866025 0.5 72.75 384.16)" fill="#1DBDB6"/>
<circle cx="2.03199" cy="2.03199" r="2.03199" transform="matrix(0.866025 0.5 -0.866025 0.5 78.4688 387.462)" fill="#DCDFF0"/>
<circle cx="2.03199" cy="2.03199" r="2.03199" transform="matrix(0.866025 0.5 -0.866025 0.5 84.1875 390.763)" fill="#DCDFF0"/>
<g filter="url(#filter6_i_36752_92631)">
<rect width="100.899" height="100.899" rx="15.2221" transform="matrix(0.866025 0.5 -0.866025 0.5 131.377 305.163)" fill="url(#paint6_linear_36752_92631)"/>
</g>
<g clip-path="url(#clip2_36752_92631)">
<path d="M111.758 360.019C106.751 356.573 103.939 352.6 103.939 348.96C103.936 346.885 104.794 345.13 106.601 343.52C107.422 342.786 109.153 341.786 110.439 341.308C114.318 339.86 119.172 339.438 124.555 340.083C136.823 341.557 148.154 348.125 150.606 355.188C150.932 356.125 151.044 356.788 151.059 357.8C151.074 359.077 150.763 360.161 149.983 361.564C149.953 361.616 150.032 361.748 150.156 361.854C150.568 362.217 150.857 362.851 150.894 363.475C150.924 363.959 150.816 364.407 150.392 365.608C149.965 366.82 147.911 372.369 147.757 372.722C147.697 372.86 147.285 372.895 147.086 372.78C146.944 372.698 146.94 372.588 147.06 372.276C147.146 372.057 147.678 370.638 148.244 369.121C150.242 363.756 150.309 363.492 149.803 362.611L149.537 362.15L147.971 361.246C146.404 360.341 146.404 360.341 146.201 360.415C145.092 360.817 144.829 360.921 144.833 360.971C144.837 361.003 145.219 361.808 145.684 362.761L146.531 364.492L146.16 364.568C145.954 364.609 145.767 364.63 145.74 364.615C145.714 364.6 144.991 363.148 144.136 361.386C143.278 359.627 142.494 358.101 142.393 358C141.992 357.591 140.523 357.452 139.968 357.772C139.406 358.097 139.409 358.285 140.032 361.891C140.418 364.139 140.59 365.455 140.53 365.706C140.418 366.165 140.095 366.749 139.589 367.405C138.701 368.562 138.802 369.551 139.915 370.627L140.283 370.982L139.975 371.112C139.807 371.183 139.642 371.244 139.604 371.244C139.469 371.248 138.798 370.497 138.502 370.01C138.038 369.248 138.034 368.541 138.495 367.578C138.499 367.571 138.026 367.437 137.453 367.283C136.43 367.009 136.37 367 134.968 366.991C128.989 366.95 122.763 365.533 116.886 362.88C115.908 362.453 112.583 360.59 111.758 360.019ZM117.879 362.505C120.601 363.708 122.943 364.511 125.691 365.176C128.577 365.872 131.714 366.294 134.345 366.333L135.384 366.349L134.683 365.204C133.937 363.981 133.907 363.834 134.334 363.375C134.604 363.085 135.148 362.923 135.909 362.908L136.505 362.893L136.355 362.261C136.238 361.761 136.246 361.579 136.396 361.38C136.643 361.06 137.134 360.841 137.73 360.783L138.184 360.737L136.564 359.404C135.676 358.67 134.859 357.978 134.754 357.865C134.544 357.645 134.585 357.279 134.833 357.045C134.968 356.92 140.631 354.762 141.516 354.498C141.913 354.381 142.685 354.407 143.053 354.554C143.439 354.708 148.21 358.636 148.33 358.9C148.522 359.317 148.237 359.646 147.435 359.945L147.101 360.068L147.42 360.252C147.596 360.354 148.034 360.581 148.394 360.759L149.05 361.081L149.309 360.586C150.088 359.092 150.145 357.16 149.466 355.21C149.148 354.299 148.124 352.557 147.341 351.603C146.228 350.246 144.597 348.768 142.794 347.484C141.805 346.779 138.911 345.112 137.723 344.561C134.878 343.238 131.965 342.228 129.057 341.553C122.321 339.988 115.81 340.081 111.196 341.806C109.989 342.256 108.235 343.251 107.526 343.885C105.96 345.288 105.169 346.826 105.086 348.636C104.921 352.323 107.658 356.232 112.902 359.783C113.606 360.259 117.002 362.116 117.879 362.505ZM120.417 359.841C120.211 359.623 120.259 359.248 120.529 359.019C120.705 358.87 120.904 358.811 121.819 358.642C125.515 357.963 128.303 356.985 131.021 355.416C133.648 353.899 135.211 352.438 136.46 350.328C136.726 349.876 137.007 349.471 137.078 349.43C137.34 349.278 137.936 349.185 138.319 349.237C138.843 349.306 139.349 349.642 139.368 349.934C139.376 350.047 139.207 350.443 138.997 350.815C138.169 352.289 136.902 353.7 135.264 354.983C134.248 355.777 132.022 357.106 130.781 357.653C128.498 358.664 126.163 359.398 123.547 359.921C121.965 360.237 121.204 360.304 120.934 360.148C120.882 360.118 120.777 360.075 120.709 360.053C120.642 360.032 120.507 359.936 120.417 359.841ZM118.745 356.76C118.426 356.424 118.655 355.916 119.199 355.753C119.33 355.712 120.005 355.569 120.698 355.433C123.629 354.853 126.137 353.868 128.011 352.561C129.551 351.486 130.32 350.691 131.118 349.343C131.658 348.439 131.793 348.33 132.52 348.257C133.21 348.188 133.986 348.562 134.016 348.973C134.038 349.259 133.161 350.696 132.52 351.425C130.399 353.836 126.856 355.699 122.448 356.725C120.184 357.249 119.217 357.257 118.745 356.76ZM116.991 353.6C116.837 353.368 116.893 353.059 117.122 352.849C117.261 352.721 117.534 352.646 118.531 352.451C122.205 351.732 124.581 350.373 125.799 348.302C126.332 347.393 126.53 347.266 127.385 347.279C127.808 347.285 127.936 347.32 128.24 347.495C128.753 347.792 128.761 348.095 128.277 348.902C127.535 350.144 126.568 351.036 124.956 351.962C123.299 352.914 121.894 353.414 119.618 353.862C118.314 354.117 117.868 354.128 117.381 353.912C117.238 353.842 117.058 353.704 116.991 353.6ZM115.349 350.653C115.218 350.473 115.267 350.155 115.454 349.96C115.664 349.744 115.964 349.648 116.837 349.525C117.965 349.367 118.438 349.207 119.352 348.679C120.267 348.151 120.548 347.876 120.818 347.227C120.908 347.006 121.05 346.759 121.129 346.675C121.451 346.329 122.403 346.225 123.018 346.467C123.539 346.673 123.644 346.958 123.419 347.556C122.763 349.28 120.334 350.683 117.362 351.053C116.316 351.181 115.634 351.046 115.349 350.653ZM137.648 366.79C138.176 366.935 138.645 367.054 138.69 367.054C138.735 367.054 138.907 366.868 139.076 366.636C139.424 366.167 139.447 366.197 138.457 365.808C137.389 365.39 137.022 365 136.763 364.016C136.696 363.747 136.579 363.494 136.512 363.455C136.441 363.414 136.19 363.386 135.942 363.39C135.421 363.401 134.964 363.622 134.915 363.884C134.878 364.113 136.167 366.212 136.452 366.385C136.579 366.463 137.115 366.643 137.648 366.79ZM139.143 365.476C139.582 365.643 139.646 365.654 139.702 365.548C139.762 365.431 139.181 361.832 139.061 361.559C138.96 361.337 138.727 361.241 138.307 361.25C137.082 361.274 137.018 361.393 137.378 362.955C137.809 364.845 137.925 365.007 139.143 365.476ZM138.855 360.363C138.873 360.352 138.821 359.936 138.735 359.441C138.529 358.214 138.637 357.861 139.349 357.45C139.942 357.108 140.913 357.006 141.88 357.184C142.359 357.27 142.974 357.569 143.188 357.813C143.338 357.987 143.806 358.893 144.406 360.174L144.53 360.445L145.935 359.915C147.375 359.374 147.693 359.194 147.532 359.019C147.483 358.965 146.37 358.036 145.062 356.956C142.734 355.037 142.453 354.84 142.108 354.888C141.925 354.911 135.864 357.169 135.654 357.29C135.549 357.35 135.47 357.456 135.481 357.528C135.489 357.597 136.208 358.242 137.078 358.96C138.75 360.35 138.802 360.393 138.855 360.363Z" fill="#CFD2E5"/>
</g>
<rect width="201.941" height="131.497" rx="9.39004" transform="matrix(0.866025 0.5 -0.866025 0.5 100.221 167.297)" fill="url(#paint7_linear_36752_92631)"/>
<mask id="mask0_36752_92631" style="mask-type:alpha" maskUnits="userSpaceOnUse" x="-9" y="168" width="280" height="162">
<rect width="201.679" height="131.326" rx="9.38041" transform="matrix(0.866025 0.5 -0.866025 0.5 100.434 165.993)" fill="url(#paint8_linear_36752_92631)"/>
</mask>
<g mask="url(#mask0_36752_92631)">
<rect width="201.679" height="131.326" rx="9.37783" transform="matrix(0.866025 0.5 -0.866025 0.5 100.434 165.993)" fill="url(#paint9_linear_36752_92631)"/>
<path d="M177.286 354.369C176.108 354.993 174.464 355.237 172.918 354.995L172.917 354.995L-8.81591 327.225C-11.1654 326.847 -12.6094 325.467 -11.951 324.116L-11.9493 324.113L-11.8681 323.953C-11.6538 323.582 -11.2685 323.235 -10.7729 322.949L61.3245 281.323C63.6263 279.994 66.9288 279.467 70.0846 279.961L70.0854 279.96L256.739 308.497L177.286 354.369ZM202.919 200.076C205.311 199.721 207.653 200.529 208.308 201.883L208.307 201.884L251.328 295.785L140.921 278.939L126.452 247.434L126.452 247.433C125.596 245.611 126.51 243.705 128.812 242.376L200.902 200.755C201.397 200.469 201.998 200.247 202.641 200.123L202.919 200.076Z" stroke="#2A3F98" stroke-width="0.29222"/>
<path d="M161.09 363.719C159.913 364.343 158.269 364.587 156.723 364.345L156.722 364.344L-25.0112 336.575C-27.3607 336.197 -28.8048 334.816 -28.1463 333.466L-28.1446 333.463L-28.0635 333.303C-27.8491 332.932 -27.4639 332.585 -26.9682 332.298L45.1292 290.673C47.431 289.344 50.7334 288.816 53.8893 289.311L53.8901 289.31L240.544 317.846L161.09 363.719ZM186.724 209.425C189.116 209.071 191.458 209.879 192.113 211.233L192.112 211.233L235.133 305.134L124.726 288.289L110.257 256.783L110.256 256.783C109.401 254.961 110.315 253.054 112.617 251.726L184.706 210.104C185.202 209.819 185.803 209.596 186.445 209.473L186.724 209.425Z" stroke="#2A3F98" stroke-width="0.29222"/>
<path d="M169.19 359.044C168.012 359.668 166.369 359.912 164.823 359.67L164.822 359.669L-16.9116 331.9C-19.2611 331.522 -20.7051 330.141 -20.0467 328.791L-20.045 328.788L-19.9638 328.628C-19.7495 328.257 -19.3642 327.91 -18.8686 327.624L53.2288 285.998C55.5306 284.669 58.8331 284.142 61.9889 284.636L61.9897 284.635L248.644 313.171L169.19 359.044ZM194.823 204.75C197.215 204.396 199.558 205.204 200.212 206.558L200.211 206.559L243.233 300.459L132.825 283.614L118.357 252.108L118.356 252.108C117.5 250.286 118.415 248.38 120.716 247.051L192.806 205.43C193.302 205.144 193.903 204.922 194.545 204.798L194.823 204.75Z" stroke="#2A3F98" stroke-width="0.29222"/>
<rect opacity="0.5" width="35.1574" height="6.72127" rx="3.36063" transform="matrix(0.866025 0.5 -0.866025 0.5 218.746 250.553)" fill="#425BA4"/>
<path d="M158.18 317.477C158.059 317.349 158.088 317.13 158.245 316.996C158.348 316.909 158.464 316.875 158.999 316.776C161.158 316.379 162.788 315.808 164.375 314.891C165.911 314.004 166.824 313.151 167.553 311.918C167.709 311.654 167.873 311.417 167.915 311.393C168.068 311.305 168.416 311.25 168.64 311.281C168.946 311.321 169.242 311.517 169.253 311.688C169.257 311.754 169.159 311.985 169.036 312.203C168.552 313.064 167.812 313.888 166.855 314.638C166.261 315.102 164.96 315.878 164.235 316.198C162.901 316.789 161.537 317.217 160.008 317.523C159.084 317.708 158.64 317.747 158.482 317.656C158.451 317.638 158.39 317.613 158.35 317.601C158.311 317.588 158.232 317.532 158.18 317.477ZM157.203 315.676C157.017 315.48 157.15 315.183 157.468 315.088C157.544 315.064 157.939 314.981 158.344 314.901C160.057 314.562 161.522 313.987 162.617 313.223C163.517 312.595 163.966 312.13 164.432 311.343C164.748 310.814 164.827 310.751 165.251 310.708C165.654 310.668 166.108 310.886 166.125 311.127C166.138 311.293 165.626 312.133 165.251 312.559C164.012 313.968 161.942 315.056 159.367 315.656C158.044 315.962 157.479 315.967 157.203 315.676ZM156.178 313.83C156.088 313.695 156.121 313.514 156.255 313.391C156.336 313.317 156.495 313.272 157.078 313.158C159.224 312.739 160.613 311.945 161.325 310.735C161.636 310.203 161.752 310.129 162.251 310.136C162.499 310.14 162.573 310.16 162.75 310.263C163.05 310.436 163.055 310.613 162.772 311.085C162.339 311.811 161.774 312.332 160.832 312.873C159.864 313.429 159.043 313.721 157.713 313.983C156.951 314.132 156.69 314.138 156.406 314.012C156.322 313.972 156.217 313.891 156.178 313.83ZM155.219 312.108C155.142 312.003 155.17 311.817 155.28 311.703C155.403 311.577 155.578 311.521 156.088 311.449C156.747 311.357 157.023 311.263 157.558 310.955C158.092 310.646 158.256 310.485 158.414 310.106C158.467 309.977 158.55 309.833 158.596 309.784C158.784 309.581 159.34 309.521 159.7 309.662C160.004 309.782 160.065 309.949 159.934 310.298C159.551 311.306 158.131 312.125 156.395 312.342C155.784 312.416 155.385 312.338 155.219 312.108Z" fill="#495888"/>
<path d="M20.9357 229.799L21.7053 230.244L18.5034 232.092C18.2859 232.215 18.0463 232.306 17.7845 232.365C17.5269 232.423 17.2629 232.45 16.9927 232.445C16.7245 232.441 16.4606 232.406 16.2009 232.339C15.9433 232.273 15.7058 232.177 15.4883 232.052C15.2645 231.923 15.0904 231.787 14.9658 231.644C14.8454 231.502 14.7779 231.358 14.7631 231.213C14.7483 231.068 14.7895 230.922 14.8866 230.776C14.9858 230.631 15.1452 230.49 15.3648 230.353L16.1313 230.796C16.0151 230.865 15.9254 230.937 15.8621 231.01C15.8008 231.082 15.766 231.153 15.7575 231.224C15.747 231.305 15.7713 231.385 15.8304 231.463C15.8895 231.541 15.9835 231.617 16.1123 231.692C16.2305 231.76 16.3593 231.809 16.4986 231.838C16.638 231.867 16.7794 231.879 16.923 231.875C17.0645 231.868 17.2049 231.846 17.3442 231.807C17.4878 231.768 17.6177 231.715 17.7338 231.648L20.9357 229.799ZM23.1748 234.109C22.989 234.216 22.7926 234.31 22.5857 234.391C22.3809 234.472 22.1708 234.54 21.9555 234.594C21.7359 234.645 21.5121 234.68 21.284 234.7C21.0581 234.718 20.8354 234.717 20.6158 234.698C20.4089 234.676 20.2062 234.636 20.0077 234.577C19.8114 234.52 19.6245 234.44 19.4472 234.338C19.2635 234.231 19.1199 234.119 19.0164 234.001C18.9172 233.883 18.8528 233.763 18.8232 233.641C18.7937 233.517 18.7979 233.39 18.8359 233.261C18.876 233.133 18.9436 233.006 19.0386 232.88C19.1294 232.76 19.2445 232.642 19.3838 232.527C19.5253 232.412 19.6857 232.302 19.8652 232.198L20.4733 231.847C20.6612 231.739 20.8586 231.643 21.0655 231.56C21.2724 231.477 21.4857 231.409 21.7053 231.355C21.9164 231.304 22.1286 231.268 22.3418 231.247C22.5593 231.227 22.7757 231.225 22.9911 231.242C23.2001 231.258 23.4039 231.295 23.6023 231.353C23.805 231.412 23.9971 231.494 24.1787 231.598C24.3624 231.704 24.506 231.817 24.6094 231.935C24.7129 232.053 24.7805 232.174 24.8121 232.297C24.8438 232.42 24.8438 232.543 24.8121 232.666C24.7805 232.789 24.7224 232.911 24.6379 233.03C24.5493 233.159 24.4321 233.286 24.2864 233.409C24.1428 233.531 23.975 233.647 23.7828 233.758L23.1748 234.109ZM23.0228 233.312C23.1368 233.243 23.2434 233.173 23.3426 233.101C23.444 233.031 23.5316 232.958 23.6055 232.884C23.6899 232.799 23.7533 232.713 23.7955 232.628C23.842 232.543 23.862 232.459 23.8557 232.377C23.8494 232.305 23.8208 232.235 23.7702 232.167C23.7195 232.099 23.6403 232.034 23.5326 231.971C23.4292 231.912 23.3194 231.868 23.2033 231.84C23.0893 231.811 22.9731 231.795 22.8549 231.792C22.7113 231.79 22.5656 231.802 22.4178 231.829C22.2722 231.854 22.1265 231.893 21.9808 231.946C21.8541 231.99 21.7274 232.041 21.6007 232.099C21.4783 232.158 21.3601 232.22 21.246 232.286L20.6316 232.641C20.5197 232.705 20.4142 232.772 20.3149 232.842C20.2157 232.911 20.1281 232.983 20.0521 233.056C19.9655 233.137 19.8958 233.22 19.843 233.304C19.7945 233.389 19.7702 233.47 19.7702 233.548C19.7723 233.622 19.7966 233.695 19.843 233.765C19.8937 233.836 19.975 233.904 20.0869 233.968C20.1946 234.03 20.3096 234.076 20.4321 234.105C20.5567 234.136 20.6812 234.152 20.8058 234.153C20.9494 234.155 21.093 234.143 21.2365 234.116C21.3843 234.089 21.5311 234.051 21.6768 234.001C21.8034 233.957 21.927 233.907 22.0473 233.849C22.1719 233.792 22.2922 233.731 22.4083 233.666L23.0228 233.312ZM24.9261 237.428L24.1819 236.998L26.2373 235.811L24.6855 234.915L22.63 236.102L21.8889 235.674L26.5002 233.012L27.2413 233.44L25.3125 234.553L26.8644 235.449L28.7931 234.336L29.5374 234.765L24.9261 237.428ZM28.8185 239.675L28.0552 239.234L29.7306 236.537L26.554 238.368L25.7844 237.923L30.3956 235.261L31.1684 235.707L29.4962 238.391L32.6633 236.57L33.4297 237.013L28.8185 239.675ZM32.7139 241.924L31.9507 241.483L33.626 238.786L30.4495 240.617L29.6799 240.172L34.2911 237.51L35.0639 237.956L33.3917 240.64L36.5587 238.819L37.3251 239.262L32.7139 241.924ZM37.5247 241.922L40.6949 241.207L41.5437 241.697L37.1351 242.575L35.4819 243.522L34.7377 243.092L36.4035 242.127L37.9142 239.602L38.7598 240.09L37.5247 241.922ZM44.7234 247.633L43.276 246.797L41.9015 247.228L41.1098 246.771L47.2222 244.976L47.8968 245.365L44.7614 248.88L43.9728 248.424L44.7234 247.633ZM44.1216 246.532L45.1889 247.148L46.4843 245.789L44.1216 246.532ZM48.2958 250.92L47.5325 250.479L49.2079 247.782L46.0314 249.613L45.2618 249.168L49.873 246.506L50.6458 246.952L48.9736 249.637L52.1406 247.815L52.907 248.258L48.2958 250.92ZM49.1794 251.43L53.7906 248.768L54.9308 249.426C55.1292 249.541 55.2929 249.662 55.4217 249.79C55.5526 249.917 55.6497 250.045 55.713 250.174C55.7869 250.312 55.8218 250.451 55.8175 250.593C55.8154 250.735 55.7785 250.875 55.7067 251.012C55.6307 251.153 55.5198 251.293 55.3742 251.43C55.2285 251.568 55.0469 251.7 54.8294 251.825L54.4684 252.034C54.2594 252.154 54.0387 252.256 53.8065 252.339C53.5784 252.422 53.3472 252.485 53.1129 252.527C52.8849 252.569 52.6537 252.593 52.4193 252.599C52.1871 252.606 51.9601 252.596 51.7384 252.568C51.4914 252.535 51.2496 252.479 51.0131 252.401C50.7788 252.324 50.556 252.225 50.3449 252.103L49.1794 251.43ZM53.9395 249.571L50.5666 251.518L50.9625 251.747C51.0976 251.825 51.2369 251.887 51.3805 251.933C51.5283 251.979 51.6782 252.011 51.8302 252.028C51.9865 252.045 52.148 252.047 52.3148 252.034C52.4858 252.02 52.6568 251.991 52.8279 251.946C52.9735 251.908 53.1192 251.859 53.2649 251.8C53.4106 251.74 53.5542 251.669 53.6956 251.588L54.063 251.375C54.2024 251.295 54.3238 251.213 54.4272 251.129C54.5307 251.045 54.6151 250.96 54.6806 250.876C54.7587 250.773 54.8073 250.667 54.8263 250.558C54.8474 250.448 54.8326 250.341 54.7819 250.236C54.746 250.16 54.688 250.083 54.6077 250.008C54.5296 249.931 54.4304 249.857 54.31 249.785L53.9395 249.571ZM57.8888 254.071L55.9822 252.97L54.5412 253.802L56.7677 255.087L56.1406 255.449L53.1509 253.723L57.7621 251.061L60.736 252.778L60.1057 253.142L57.8951 251.865L56.5966 252.615L58.5032 253.716L57.8888 254.071ZM60.3433 255.81L59.5642 255.36L57.7748 256.393L57.0147 255.954L61.6259 253.292L63.0891 254.136C63.3256 254.275 63.5145 254.42 63.656 254.57C63.7975 254.72 63.884 254.87 63.9157 255.02C63.9431 255.17 63.9104 255.318 63.8175 255.464C63.7267 255.609 63.5663 255.748 63.3361 255.881C63.1778 255.972 63.0131 256.043 62.8421 256.093C62.6732 256.144 62.5 256.178 62.3227 256.195C62.1453 256.212 61.9658 256.214 61.7843 256.199C61.6027 256.184 61.4201 256.157 61.2364 256.117L60.2926 257.799L60.2514 257.823L59.4375 257.353L60.3433 255.81ZM60.1849 255.001L60.8975 255.413C61.0347 255.49 61.1762 255.548 61.3219 255.588C61.4718 255.629 61.6217 255.649 61.7716 255.65C61.9025 255.653 62.0334 255.638 62.1643 255.607C62.2952 255.575 62.4198 255.525 62.538 255.457C62.671 255.38 62.7661 255.301 62.8231 255.219C62.8843 255.137 62.9086 255.054 62.8959 254.968C62.8853 254.889 62.8431 254.81 62.7692 254.731C62.6974 254.65 62.5971 254.572 62.4684 254.495L61.7653 254.089L60.1849 255.001ZM64.4921 258.9C64.5998 258.838 64.6726 258.77 64.7106 258.697C64.7486 258.624 64.7602 258.545 64.7455 258.461C64.7222 258.377 64.6768 258.287 64.6093 258.192C64.5459 258.097 64.4636 257.997 64.3622 257.892C64.206 257.731 64.0804 257.572 63.9854 257.415C63.8946 257.258 63.8407 257.11 63.8238 256.971C63.8091 256.83 63.8365 256.698 63.9062 256.572C63.9801 256.446 64.1078 256.331 64.2894 256.226C64.4858 256.113 64.7043 256.036 64.945 255.994C65.1878 255.952 65.4369 255.939 65.6924 255.958C65.9458 255.977 66.196 256.025 66.443 256.102C66.6943 256.179 66.9254 256.278 67.1366 256.4C67.3604 256.529 67.5335 256.67 67.656 256.821C67.7827 256.972 67.8566 257.124 67.8777 257.278C67.8967 257.433 67.8608 257.584 67.77 257.731C67.6834 257.879 67.5356 258.013 67.3266 258.134L66.5728 257.698C66.6784 257.625 66.7586 257.55 66.8135 257.472C66.8727 257.394 66.9022 257.314 66.9022 257.234C66.898 257.154 66.8632 257.072 66.7977 256.991C66.7365 256.909 66.6394 256.83 66.5063 256.753C66.3902 256.686 66.2667 256.633 66.1358 256.594C66.0091 256.555 65.8824 256.531 65.7558 256.521C65.627 256.512 65.5024 256.52 65.382 256.543C65.2617 256.566 65.1519 256.606 65.0527 256.663C64.9492 256.726 64.8838 256.795 64.8563 256.872C64.831 256.948 64.8331 257.028 64.8626 257.113C64.8943 257.2 64.946 257.289 65.0178 257.382C65.0917 257.476 65.1741 257.571 65.2649 257.667C65.381 257.788 65.4813 257.913 65.5657 258.042C65.6544 258.171 65.7156 258.302 65.7494 258.433C65.7895 258.598 65.7726 258.758 65.6987 258.913C65.6291 259.067 65.4834 259.209 65.2617 259.337C65.0569 259.455 64.8331 259.534 64.5903 259.574C64.3496 259.616 64.1057 259.625 63.8587 259.602C63.6053 259.58 63.3551 259.529 63.1081 259.45C62.8632 259.37 62.6341 259.268 62.4208 259.145C62.1949 259.014 62.007 258.866 61.8571 258.699C61.7093 258.53 61.6217 258.36 61.5942 258.188C61.571 258.029 61.6006 257.874 61.6829 257.724C61.7674 257.575 61.9194 257.436 62.139 257.307L62.8991 257.746C62.7682 257.834 62.6742 257.922 62.6172 258.011C62.5644 258.1 62.5475 258.189 62.5665 258.278C62.5813 258.367 62.6288 258.454 62.709 258.54C62.7914 258.626 62.9012 258.709 63.0384 258.788C63.1545 258.855 63.276 258.909 63.4026 258.951C63.5314 258.994 63.6602 259.02 63.789 259.031C63.9136 259.042 64.036 259.037 64.1564 259.017C64.2788 258.997 64.3908 258.958 64.4921 258.9ZM69.9204 261.098C69.7346 261.205 69.5383 261.299 69.3313 261.379C69.1265 261.461 68.9165 261.528 68.7011 261.582C68.4815 261.633 68.2577 261.669 68.0297 261.688C67.8038 261.706 67.581 261.706 67.3614 261.686C67.1545 261.664 66.9518 261.624 66.7534 261.566C66.557 261.508 66.3702 261.429 66.1928 261.326C66.0091 261.22 65.8655 261.108 65.7621 260.99C65.6628 260.871 65.5985 260.751 65.5689 260.629C65.5393 260.505 65.5436 260.378 65.5816 260.249C65.6217 260.121 65.6892 259.994 65.7843 259.869C65.875 259.748 65.9901 259.631 66.1295 259.516C66.2709 259.4 66.4314 259.29 66.6109 259.187L67.2189 258.836C67.4068 258.727 67.6042 258.632 67.8112 258.549C68.0181 258.466 68.2313 258.397 68.4509 258.344C68.662 258.293 68.8742 258.257 69.0875 258.236C69.305 258.215 69.5214 258.213 69.7367 258.23C69.9458 258.246 70.1495 258.284 70.348 258.342C70.5507 258.401 70.7428 258.482 70.9244 258.587C71.1081 258.693 71.2516 258.805 71.3551 258.923C71.4585 259.042 71.5261 259.162 71.5578 259.286C71.5895 259.409 71.5895 259.532 71.5578 259.655C71.5261 259.778 71.468 259.899 71.3836 260.019C71.2949 260.148 71.1777 260.274 71.0321 260.397C70.8885 260.519 70.7206 260.636 70.5285 260.747L69.9204 261.098ZM69.7684 260.3C69.8824 260.232 69.989 260.162 70.0883 260.09C70.1896 260.019 70.2772 259.947 70.3511 259.872C70.4356 259.787 70.4989 259.702 70.5412 259.616C70.5876 259.531 70.6077 259.448 70.6013 259.366C70.595 259.294 70.5665 259.224 70.5158 259.156C70.4652 259.087 70.386 259.022 70.2783 258.96C70.1748 258.9 70.065 258.856 69.9489 258.828C69.8349 258.799 69.7188 258.783 69.6005 258.781C69.457 258.778 69.3113 258.791 69.1635 258.817C69.0178 258.843 68.8721 258.882 68.7264 258.934C68.5998 258.978 68.4731 259.03 68.3464 259.088C68.2239 259.147 68.1057 259.209 67.9917 259.275L67.3773 259.629C67.2654 259.694 67.1598 259.761 67.0606 259.83C66.9613 259.9 66.8737 259.971 66.7977 260.044C66.7111 260.126 66.6415 260.209 66.5887 260.293C66.5401 260.377 66.5158 260.458 66.5158 260.536C66.518 260.611 66.5422 260.683 66.5887 260.754C66.6394 260.825 66.7206 260.892 66.8325 260.957C66.9402 261.019 67.0553 261.065 67.1778 261.094C67.3023 261.124 67.4269 261.14 67.5515 261.141C67.695 261.144 67.8386 261.132 67.9822 261.105C68.13 261.078 68.2767 261.04 68.4224 260.99C68.5491 260.946 68.6726 260.895 68.7929 260.838C68.9175 260.781 69.0379 260.72 69.154 260.655L69.7684 260.3ZM71.6686 264.414L70.9054 263.974L72.5807 261.277L69.4042 263.107L68.6346 262.663L73.2458 260L74.0186 260.447L72.3464 263.131L75.5134 261.31L76.2799 261.752L71.6686 264.414Z" fill="white"/>
<path d="M44.9339 215.245C45.0762 215.162 45.2302 215.1 45.3957 215.058C45.5678 215.016 45.74 214.995 45.9121 214.995C46.0843 214.995 46.2564 215.016 46.4286 215.058C46.604 215.102 46.7696 215.169 46.9252 215.259C47.0808 215.349 47.1966 215.444 47.2728 215.546C47.3489 215.647 47.3887 215.748 47.392 215.849C47.392 215.949 47.3539 216.047 47.2777 216.145C47.2049 216.24 47.0973 216.329 46.955 216.411L46.667 216.578C46.5246 216.66 46.3707 216.722 46.2051 216.764C46.0396 216.806 45.8708 216.827 45.6986 216.827C45.5198 216.827 45.3427 216.805 45.1673 216.761C44.9984 216.717 44.8362 216.65 44.6806 216.56C44.525 216.471 44.4075 216.376 44.328 216.277C44.2552 216.177 44.2205 216.077 44.2238 215.976C44.2205 215.874 44.2536 215.775 44.3231 215.677C44.3959 215.582 44.5035 215.493 44.6459 215.411L44.9339 215.245ZM50.5333 218.477C50.6757 218.395 50.8296 218.333 50.9952 218.291C51.1673 218.249 51.3395 218.228 51.5116 218.228C51.6838 218.228 51.8559 218.249 52.0281 218.291C52.2035 218.335 52.369 218.402 52.5246 218.492C52.6802 218.582 52.7961 218.677 52.8722 218.778C52.9484 218.88 52.9881 218.981 52.9914 219.082C52.9914 219.182 52.9534 219.28 52.8772 219.378C52.8044 219.473 52.6968 219.562 52.5544 219.644L52.2664 219.811C52.1241 219.893 51.9701 219.955 51.8046 219.997C51.6391 220.039 51.4702 220.06 51.2981 220.06C51.1193 220.06 50.9422 220.038 50.7667 219.994C50.5979 219.95 50.4357 219.883 50.2801 219.793C50.1245 219.704 50.007 219.609 49.9275 219.509C49.8547 219.41 49.8199 219.31 49.8232 219.208C49.8199 219.107 49.853 219.008 49.9225 218.91C49.9954 218.815 50.103 218.726 50.2453 218.644L50.5333 218.477ZM56.1328 221.71C56.2752 221.628 56.4291 221.566 56.5946 221.524C56.7668 221.482 56.9389 221.461 57.1111 221.461C57.2832 221.461 57.4554 221.482 57.6275 221.524C57.803 221.568 57.9685 221.635 58.1241 221.725C58.2797 221.814 58.3956 221.91 58.4717 222.011C58.5479 222.113 58.5876 222.214 58.5909 222.315C58.5909 222.415 58.5528 222.513 58.4767 222.61C58.4039 222.706 58.2963 222.795 58.1539 222.877L57.8659 223.043C57.7235 223.126 57.5696 223.188 57.4041 223.23C57.2385 223.272 57.0697 223.293 56.8975 223.293C56.7188 223.293 56.5417 223.271 56.3662 223.227C56.1974 223.183 56.0352 223.116 55.8796 223.026C55.724 222.936 55.6064 222.842 55.527 222.742C55.4541 222.643 55.4194 222.543 55.4227 222.441C55.4194 222.34 55.4525 222.241 55.522 222.143C55.5948 222.048 55.7024 221.959 55.8448 221.877L56.1328 221.71ZM61.7323 224.943C61.8746 224.861 62.0286 224.799 62.1941 224.757C62.3663 224.715 62.5384 224.694 62.7105 224.694C62.8827 224.694 63.0548 224.715 63.227 224.757C63.4025 224.801 63.568 224.868 63.7236 224.957C63.8792 225.047 63.995 225.143 64.0712 225.244C64.1473 225.345 64.1871 225.447 64.1904 225.548C64.1904 225.647 64.1523 225.746 64.0762 225.843C64.0033 225.939 63.8957 226.028 63.7534 226.11L63.4654 226.276C63.323 226.358 63.1691 226.421 63.0035 226.463C62.838 226.505 62.6692 226.526 62.497 226.526C62.3182 226.526 62.1411 226.504 61.9657 226.46C61.7968 226.416 61.6346 226.349 61.479 226.259C61.3234 226.169 61.2059 226.075 61.1264 225.975C61.0536 225.876 61.0189 225.775 61.0222 225.674C61.0189 225.573 61.052 225.473 61.1215 225.376C61.1943 225.28 61.3019 225.192 61.4443 225.109L61.7323 224.943ZM78.5307 234.642C78.673 234.559 78.827 234.497 78.9925 234.455C79.1647 234.413 79.3368 234.392 79.509 234.392C79.6811 234.392 79.8533 234.413 80.0254 234.455C80.2009 234.499 80.3664 234.566 80.522 234.656C80.6776 234.746 80.7934 234.841 80.8696 234.943C80.9457 235.044 80.9855 235.145 80.9888 235.247C80.9888 235.346 80.9507 235.444 80.8746 235.542C80.8017 235.637 80.6941 235.726 80.5518 235.809L80.2638 235.975C80.1214 236.057 79.9675 236.119 79.8019 236.161C79.6364 236.203 79.4676 236.224 79.2954 236.224C79.1167 236.224 78.9395 236.202 78.7641 236.158C78.5952 236.114 78.433 236.047 78.2774 235.958C78.1218 235.868 78.0043 235.773 77.9249 235.674C77.852 235.574 77.8173 235.474 77.8206 235.373C77.8173 235.271 77.8504 235.172 77.9199 235.075C77.9927 234.979 78.1003 234.89 78.2427 234.808L78.5307 234.642ZM84.1302 237.874C84.2725 237.792 84.4264 237.73 84.592 237.688C84.7641 237.646 84.9363 237.625 85.1084 237.625C85.2806 237.625 85.4527 237.646 85.6249 237.688C85.8003 237.732 85.9659 237.799 86.1214 237.889C86.277 237.979 86.3929 238.074 86.4691 238.176C86.5452 238.277 86.5849 238.378 86.5882 238.479C86.5882 238.579 86.5502 238.677 86.474 238.775C86.4012 238.87 86.2936 238.959 86.1512 239.041L85.8632 239.208C85.7209 239.29 85.5669 239.352 85.4014 239.394C85.2359 239.436 85.067 239.457 84.8949 239.457C84.7161 239.457 84.539 239.435 84.3635 239.391C84.1947 239.347 84.0325 239.28 83.8769 239.19C83.7213 239.101 83.6038 239.006 83.5243 238.907C83.4515 238.807 83.4167 238.707 83.42 238.606C83.4167 238.504 83.4498 238.405 83.5194 238.307C83.5922 238.212 83.6998 238.123 83.8421 238.041L84.1302 237.874ZM89.7296 241.107C89.872 241.025 90.0259 240.963 90.1914 240.921C90.3636 240.879 90.5357 240.858 90.7079 240.858C90.88 240.858 91.0522 240.879 91.2243 240.921C91.3998 240.965 91.5653 241.032 91.7209 241.122C91.8765 241.212 91.9924 241.307 92.0685 241.408C92.1447 241.51 92.1844 241.611 92.1877 241.712C92.1877 241.812 92.1496 241.91 92.0735 242.008C92.0007 242.103 91.8931 242.192 91.7507 242.274L91.4627 242.441C91.3203 242.523 91.1664 242.585 91.0009 242.627C90.8353 242.669 90.6665 242.69 90.4944 242.69C90.3156 242.69 90.1385 242.668 89.963 242.624C89.7942 242.58 89.632 242.513 89.4764 242.423C89.3208 242.333 89.2032 242.239 89.1238 242.139C89.051 242.04 89.0162 241.94 89.0195 241.838C89.0162 241.737 89.0493 241.638 89.1188 241.54C89.1917 241.445 89.2992 241.356 89.4416 241.274L89.7296 241.107ZM95.3291 244.34C95.4714 244.258 95.6254 244.196 95.7909 244.154C95.9631 244.112 96.1352 244.091 96.3074 244.091C96.4795 244.091 96.6517 244.112 96.8238 244.154C96.9993 244.198 97.1648 244.265 97.3204 244.355C97.476 244.444 97.5919 244.54 97.668 244.641C97.7441 244.743 97.7839 244.844 97.7872 244.945C97.7872 245.045 97.7491 245.143 97.673 245.24C97.6001 245.336 97.4925 245.425 97.3502 245.507L97.0622 245.673C96.9198 245.756 96.7659 245.818 96.6003 245.86C96.4348 245.902 96.266 245.923 96.0938 245.923C95.9151 245.923 95.7379 245.901 95.5625 245.857C95.3936 245.813 95.2314 245.746 95.0758 245.656C94.9202 245.566 94.8027 245.472 94.7233 245.372C94.6504 245.273 94.6157 245.173 94.619 245.071C94.6157 244.97 94.6488 244.871 94.7183 244.773C94.7911 244.678 94.8987 244.589 95.0411 244.506L95.3291 244.34ZM112.127 254.039C112.27 253.957 112.424 253.894 112.589 253.852C112.761 253.81 112.934 253.789 113.106 253.789C113.278 253.789 113.45 253.81 113.622 253.852C113.798 253.896 113.963 253.963 114.119 254.053C114.274 254.143 114.39 254.239 114.466 254.34C114.543 254.441 114.582 254.542 114.586 254.644C114.586 254.743 114.548 254.842 114.471 254.939C114.399 255.035 114.291 255.123 114.149 255.206L113.861 255.372C113.718 255.454 113.564 255.516 113.399 255.558C113.233 255.6 113.064 255.621 112.892 255.621C112.713 255.621 112.536 255.599 112.361 255.555C112.192 255.511 112.03 255.445 111.874 255.355C111.719 255.265 111.601 255.17 111.522 255.071C111.449 254.972 111.414 254.871 111.417 254.77C111.414 254.669 111.447 254.569 111.517 254.472C111.59 254.376 111.697 254.287 111.839 254.205L112.127 254.039ZM117.727 257.272C117.869 257.189 118.023 257.127 118.189 257.085C118.361 257.043 118.533 257.022 118.705 257.022C118.877 257.022 119.05 257.043 119.222 257.085C119.397 257.129 119.563 257.196 119.718 257.286C119.874 257.376 119.99 257.471 120.066 257.573C120.142 257.674 120.182 257.775 120.185 257.877C120.185 257.976 120.147 258.074 120.071 258.172C119.998 258.267 119.89 258.356 119.748 258.439L119.46 258.605C119.318 258.687 119.164 258.749 118.998 258.791C118.833 258.833 118.664 258.854 118.492 258.854C118.313 258.854 118.136 258.832 117.96 258.788C117.792 258.744 117.629 258.677 117.474 258.588C117.318 258.498 117.201 258.403 117.121 258.304C117.048 258.204 117.014 258.104 117.017 258.003C117.014 257.901 117.047 257.802 117.116 257.705C117.189 257.609 117.297 257.52 117.439 257.438L117.727 257.272ZM123.326 260.504C123.469 260.422 123.623 260.36 123.788 260.318C123.96 260.276 124.133 260.255 124.305 260.255C124.477 260.255 124.649 260.276 124.821 260.318C124.997 260.362 125.162 260.429 125.318 260.519C125.473 260.609 125.589 260.704 125.665 260.806C125.741 260.907 125.781 261.008 125.785 261.109C125.785 261.209 125.746 261.307 125.67 261.405C125.597 261.5 125.49 261.589 125.348 261.671L125.059 261.838C124.917 261.92 124.763 261.982 124.598 262.024C124.432 262.066 124.263 262.087 124.091 262.087C123.912 262.087 123.735 262.065 123.56 262.021C123.391 261.977 123.229 261.91 123.073 261.82C122.918 261.731 122.8 261.636 122.721 261.537C122.648 261.437 122.613 261.337 122.616 261.236C122.613 261.134 122.646 261.035 122.716 260.937C122.788 260.842 122.896 260.753 123.038 260.671L123.326 260.504ZM128.926 263.737C129.068 263.655 129.222 263.593 129.388 263.551C129.56 263.509 129.732 263.488 129.904 263.488C130.076 263.488 130.248 263.509 130.421 263.551C130.596 263.595 130.762 263.662 130.917 263.752C131.073 263.842 131.189 263.937 131.265 264.038C131.341 264.14 131.381 264.241 131.384 264.342C131.384 264.442 131.346 264.54 131.27 264.638C131.197 264.733 131.089 264.822 130.947 264.904L130.659 265.07C130.517 265.153 130.363 265.215 130.197 265.257C130.032 265.299 129.863 265.32 129.691 265.32C129.512 265.32 129.335 265.298 129.159 265.254C128.99 265.21 128.828 265.143 128.673 265.053C128.517 264.963 128.4 264.869 128.32 264.769C128.247 264.67 128.212 264.57 128.216 264.468C128.212 264.367 128.246 264.268 128.315 264.17C128.388 264.075 128.496 263.986 128.638 263.904L128.926 263.737ZM146.782 275.773L147.79 276.355L147.04 276.787L146.032 276.205L144.354 277.174L143.435 276.644L145.114 275.675L141.816 273.771L142.357 273.459L150.606 272.435L151.584 273L146.782 275.773ZM143.584 273.926L145.863 275.242L149.444 273.175L149.017 273.25L143.584 273.926ZM150.182 276.353L154.149 274.481L157.859 276.623L156.965 277.139L154.03 275.445L151.9 276.439C152.125 276.474 152.368 276.53 152.63 276.609C152.891 276.687 153.153 276.802 153.414 276.953C153.749 277.146 153.99 277.352 154.139 277.572C154.288 277.792 154.351 278.015 154.328 278.243C154.302 278.472 154.189 278.701 153.99 278.931C153.792 279.16 153.51 279.38 153.146 279.59C152.802 279.789 152.436 279.947 152.049 280.063C151.661 280.18 151.269 280.246 150.872 280.261C150.468 280.276 150.062 280.237 149.655 280.144C149.251 280.048 148.857 279.889 148.473 279.668C148.179 279.498 147.942 279.313 147.763 279.114C147.584 278.916 147.477 278.71 147.44 278.498C147.401 278.284 147.44 278.066 147.56 277.844C147.682 277.624 147.894 277.408 148.195 277.196L149.069 277.701C148.715 277.97 148.554 278.237 148.588 278.501C148.624 278.766 148.836 279.011 149.223 279.235C149.442 279.361 149.673 279.451 149.918 279.504C150.167 279.556 150.422 279.573 150.683 279.556C150.938 279.539 151.195 279.488 151.453 279.404C151.714 279.322 151.969 279.209 152.218 279.066C152.443 278.936 152.62 278.795 152.749 278.644C152.881 278.495 152.959 278.343 152.982 278.188C153.002 278.035 152.964 277.883 152.868 277.732C152.772 277.581 152.608 277.439 152.377 277.305C152.224 277.217 152.08 277.148 151.944 277.096C151.815 277.044 151.686 277.004 151.557 276.976C151.428 276.947 151.296 276.926 151.16 276.912C151.027 276.901 150.883 276.892 150.728 276.887L150.182 276.353ZM156.263 284.05L151.525 281.315L152.186 280.934L157.186 280.782C157.633 280.768 158.019 280.75 158.343 280.727C158.668 280.704 158.951 280.673 159.193 280.633C159.431 280.594 159.636 280.547 159.808 280.489C159.984 280.43 160.144 280.358 160.29 280.274C160.469 280.171 160.606 280.057 160.702 279.933C160.805 279.809 160.859 279.682 160.866 279.552C160.869 279.42 160.825 279.289 160.732 279.159C160.646 279.029 160.504 278.907 160.305 278.792C160.063 278.653 159.818 278.551 159.57 278.488C159.325 278.427 159.082 278.399 158.84 278.405C158.592 278.411 158.347 278.449 158.105 278.52C157.867 278.592 157.635 278.694 157.41 278.824L156.486 278.29C156.791 278.114 157.13 277.98 157.504 277.886C157.882 277.791 158.272 277.743 158.676 277.743C159.077 277.741 159.481 277.789 159.888 277.886C160.298 277.985 160.689 278.142 161.06 278.356C161.401 278.553 161.656 278.76 161.825 278.976C162 279.192 162.093 279.406 162.103 279.618C162.113 279.83 162.045 280.035 161.899 280.234C161.757 280.435 161.541 280.618 161.253 280.785C161.038 280.909 160.788 281.011 160.504 281.091C160.222 281.17 159.918 281.233 159.59 281.281C159.259 281.327 158.91 281.36 158.542 281.381C158.181 281.402 157.81 281.417 157.43 281.427L153.383 281.521L157.013 283.617L156.263 284.05ZM168.72 283.49L159.012 285.637L158.048 285.081L167.459 283.094L163.546 280.835L164.35 280.371L169.237 283.192L168.72 283.49Z" fill="white"/>
</g>
<g clip-path="url(#clip3_36752_92631)">
<rect width="27.9499" height="21.4999" rx="3.76248" transform="matrix(0.866025 0.5 -0.866025 0.5 78 193.572)" fill="#F7F6F9"/>
<rect x="-1.53851e-08" y="0.258118" width="32.8086" height="9.15872" transform="matrix(0.866025 0.5 -0.866025 0.5 70.7743 195.316)" stroke="#929DB6" stroke-width="0.516237"/>
<path d="M78.1406 199.941C77.9641 201.05 77.1406 202.131 75.6702 202.98C74.1998 203.829 72.3274 204.305 70.4068 204.407" stroke="#929DB6" stroke-width="0.516237"/>
<path d="M69.1543 210.503C69.3934 209.694 70.0984 208.883 71.2489 208.219C72.2364 207.649 73.4109 207.268 74.6103 207.084" stroke="#929DB6" stroke-width="0.516237"/>
<path d="M92.4277 201.368C92.1886 202.177 91.4836 202.988 90.3331 203.652C89.3456 204.223 88.1711 204.603 86.9717 204.787" stroke="#929DB6" stroke-width="0.516237"/>
<path d="M83.4414 211.931C83.618 210.822 84.4414 209.741 85.9118 208.892C87.3822 208.043 89.2546 207.567 91.1752 207.466" stroke="#929DB6" stroke-width="0.516237"/>
</g>
<rect x="1.53851e-08" y="-0.258118" width="28.4661" height="22.0161" rx="4.0206" transform="matrix(0.866025 0.5 -0.866025 0.5 77.7765 193.443)" stroke="#040842" stroke-width="0.516237"/>
<path d="M196.731 275.693C196.991 275.543 197.258 275.424 197.532 275.336C197.811 275.248 198.087 275.194 198.359 275.173C198.629 275.151 198.89 275.164 199.141 275.212C199.397 275.259 199.63 275.344 199.841 275.466C200.031 275.576 200.163 275.691 200.237 275.811C200.315 275.932 200.348 276.06 200.335 276.194L202.093 275.179L202.85 275.616L197.985 278.424L197.298 278.028L197.621 277.801C197.376 277.815 197.141 277.8 196.915 277.755C196.691 277.709 196.48 277.628 196.281 277.514C196.072 277.393 195.928 277.26 195.848 277.113C195.769 276.966 195.75 276.813 195.791 276.656C195.829 276.5 195.921 276.343 196.069 276.184C196.219 276.025 196.418 275.874 196.665 275.731L196.731 275.693ZM197.422 276.168C197.27 276.256 197.141 276.347 197.035 276.442C196.93 276.537 196.859 276.632 196.823 276.726C196.783 276.822 196.783 276.916 196.823 277.007C196.865 277.097 196.956 277.183 197.095 277.263C197.266 277.362 197.445 277.422 197.631 277.444C197.818 277.465 198.011 277.458 198.207 277.422L199.68 276.572C199.739 276.46 199.749 276.35 199.711 276.243C199.678 276.136 199.576 276.033 199.407 275.936C199.266 275.854 199.115 275.801 198.954 275.777C198.796 275.754 198.635 275.754 198.47 275.779C198.301 275.8 198.133 275.843 197.966 275.905C197.802 275.966 197.642 276.041 197.488 276.13L197.422 276.168ZM200.525 279.964C200.272 279.818 200.082 279.659 199.955 279.489C199.831 279.319 199.768 279.148 199.768 278.975C199.766 278.803 199.824 278.635 199.943 278.472C200.065 278.309 200.243 278.159 200.478 278.024L200.608 277.949C200.876 277.794 201.161 277.678 201.463 277.602C201.765 277.525 202.067 277.485 202.368 277.481C202.67 277.477 202.96 277.508 203.236 277.572C203.517 277.637 203.768 277.733 203.99 277.861C204.237 278.004 204.413 278.154 204.519 278.313C204.627 278.47 204.671 278.629 204.652 278.788C204.631 278.949 204.55 279.108 204.408 279.265C204.267 279.423 204.073 279.572 203.828 279.713L203.502 279.902L201.127 278.53L201.111 278.54C200.984 278.64 200.895 278.733 200.842 278.819C200.789 278.906 200.765 278.997 200.769 279.092C200.769 279.189 200.803 279.284 200.87 279.377C200.94 279.471 201.044 279.557 201.181 279.637C201.369 279.745 201.58 279.826 201.814 279.878C202.051 279.929 202.289 279.946 202.53 279.929L202.543 280.39C202.264 280.419 201.941 280.403 201.574 280.342C201.208 280.283 200.859 280.157 200.525 279.964ZM203.372 278.214C203.265 278.152 203.144 278.106 203.011 278.075C202.883 278.045 202.746 278.029 202.603 278.029C202.457 278.031 202.308 278.047 202.156 278.079C202.004 278.11 201.851 278.157 201.697 278.22L203.309 279.15L203.36 279.121C203.459 279.064 203.539 278.997 203.6 278.92C203.664 278.842 203.7 278.763 203.708 278.682C203.717 278.604 203.693 278.525 203.638 278.444C203.588 278.364 203.499 278.287 203.372 278.214ZM207.575 282.023C207.417 282.114 207.254 282.195 207.087 282.264C206.921 282.334 206.754 282.391 206.587 282.436C206.391 282.491 206.191 282.528 205.988 282.548C205.786 282.567 205.586 282.565 205.39 282.542C205.231 282.524 205.076 282.49 204.924 282.442C204.772 282.395 204.628 282.332 204.49 282.253C204.351 282.173 204.241 282.09 204.161 282.005C204.081 281.919 204.028 281.831 204.003 281.741C203.99 281.695 203.982 281.649 203.977 281.602C203.977 281.556 203.982 281.508 203.99 281.46L203.581 281.655L202.897 281.26L207.762 278.452L208.519 278.889L206.745 279.913C206.845 279.907 206.943 279.906 207.04 279.911C207.137 279.916 207.233 279.926 207.328 279.942C207.453 279.963 207.573 279.994 207.689 280.037C207.809 280.08 207.926 280.133 208.037 280.198C208.185 280.283 208.3 280.373 208.383 280.467C208.469 280.561 208.526 280.657 208.554 280.756C208.579 280.839 208.581 280.924 208.56 281.012C208.543 281.099 208.509 281.187 208.459 281.275C208.385 281.396 208.278 281.516 208.139 281.635C208.002 281.756 207.836 281.872 207.642 281.984L207.575 282.023ZM206.885 281.547C206.982 281.491 207.069 281.433 207.148 281.374C207.23 281.314 207.301 281.255 207.36 281.196C207.427 281.123 207.476 281.05 207.505 280.977C207.539 280.904 207.543 280.828 207.518 280.75C207.503 280.698 207.472 280.647 207.423 280.597C207.375 280.547 207.308 280.497 207.224 280.449C207.12 280.389 207.012 280.344 206.901 280.313C206.791 280.282 206.679 280.263 206.565 280.258C206.485 280.253 206.402 280.255 206.318 280.262C206.238 280.269 206.157 280.282 206.077 280.299L204.658 281.118C204.624 281.171 204.601 281.225 204.589 281.279C204.58 281.332 204.582 281.386 204.595 281.44C204.612 281.498 204.646 281.557 204.696 281.615C204.751 281.674 204.826 281.73 204.921 281.785C205.008 281.835 205.096 281.874 205.187 281.902C205.28 281.929 205.373 281.947 205.466 281.957C205.593 281.969 205.719 281.966 205.846 281.946C205.977 281.927 206.106 281.895 206.232 281.851C206.329 281.819 206.428 281.781 206.527 281.736C206.626 281.691 206.723 281.641 206.818 281.586L206.885 281.547ZM210.381 281.624L212.199 282.674L209.399 284.29L210.406 284.872L209.779 285.234L206.954 283.603L207.581 283.241L208.636 283.85L210.805 282.597L209.751 281.988L210.381 281.624ZM212.253 281.681C212.314 281.646 212.381 281.619 212.452 281.602C212.526 281.584 212.602 281.575 212.68 281.577C212.754 281.578 212.827 281.588 212.899 281.608C212.975 281.627 213.047 281.657 213.114 281.696C213.228 281.761 213.291 281.831 213.301 281.906C213.316 281.98 213.283 282.047 213.203 282.105C213.125 282.167 213.028 282.205 212.912 282.219C212.798 282.231 212.685 282.218 212.573 282.18C212.488 282.178 212.409 282.162 212.335 282.134C212.261 282.106 212.199 282.064 212.148 282.008C212.096 281.951 212.079 281.894 212.098 281.836C212.121 281.779 212.173 281.727 212.253 281.681ZM216.459 284.168L215.623 284.65L216.912 285.395L216.345 285.722L215.056 284.978L213.418 285.923C213.292 285.996 213.2 286.066 213.143 286.133C213.09 286.2 213.067 286.264 213.073 286.323C213.077 286.384 213.107 286.443 213.162 286.499C213.217 286.555 213.29 286.609 213.38 286.662C213.446 286.7 213.516 286.737 213.592 286.773C213.669 286.81 213.745 286.844 213.821 286.876C213.892 286.907 213.961 286.936 214.026 286.962C214.096 286.987 214.154 287.009 214.201 287.026L213.76 287.375C213.672 287.363 213.576 287.341 213.472 287.311C213.373 287.28 213.271 287.244 213.165 287.203C213.059 287.162 212.954 287.115 212.848 287.064C212.743 287.015 212.642 286.963 212.547 286.909C212.374 286.809 212.238 286.703 212.139 286.592C212.044 286.481 211.995 286.367 211.993 286.249C211.989 286.131 212.035 286.011 212.132 285.886C212.232 285.763 212.391 285.638 212.611 285.512L214.296 284.539L213.466 284.06L214.033 283.733L214.862 284.212L215.699 283.729L216.459 284.168Z" fill="white"/>
<g opacity="0.3">
<g filter="url(#filter7_f_36752_92631)">
<ellipse cx="52.752" cy="657.801" rx="241.926" ry="55.3025" transform="rotate(-14.6997 52.752 657.801)" fill="url(#paint10_linear_36752_92631)"/>
</g>
<g filter="url(#filter8_f_36752_92631)">
<ellipse cx="73.889" cy="676.489" rx="255.87" ry="65.8838" transform="rotate(-19.2507 73.889 676.489)" fill="url(#paint11_linear_36752_92631)"/>
</g>
</g>
</g>
<defs>
<filter id="filter0_f_36752_92631" x="-201.684" y="-121.626" width="668.871" height="362.854" filterUnits="userSpaceOnUse" color-interpolation-filters="sRGB">
<feFlood flood-opacity="0" result="BackgroundImageFix"/>
<feBlend mode="normal" in="SourceGraphic" in2="BackgroundImageFix" result="shape"/>
<feGaussianBlur stdDeviation="50" result="effect1_foregroundBlur_36752_92631"/>
</filter>
<filter id="filter1_f_36752_92631" x="-188.664" y="-126.33" width="685.105" height="409.639" filterUnits="userSpaceOnUse" color-interpolation-filters="sRGB">
<feFlood flood-opacity="0" result="BackgroundImageFix"/>
<feBlend mode="normal" in="SourceGraphic" in2="BackgroundImageFix" result="shape"/>
<feGaussianBlur stdDeviation="50" result="effect1_foregroundBlur_36752_92631"/>
</filter>
<filter id="filter2_ddd_36752_92631" x="1.01435" y="285.126" width="260.725" height="188.423" filterUnits="userSpaceOnUse" color-interpolation-filters="sRGB">
<feFlood flood-opacity="0" result="BackgroundImageFix"/>
<feColorMatrix in="SourceAlpha" type="matrix" values="0 0 0 0 0 0 0 0 0 0 0 0 0 0 0 0 0 0 127 0" result="hardAlpha"/>
<feOffset dy="10.0753"/>
<feGaussianBlur stdDeviation="3.32486"/>
<feComposite in2="hardAlpha" operator="out"/>
<feColorMatrix type="matrix" values="0 0 0 0 0.853194 0 0 0 0 0.864891 0 0 0 0 0.923377 0 0 0 0.29 0"/>
<feBlend mode="normal" in2="BackgroundImageFix" result="effect1_dropShadow_36752_92631"/>
<feColorMatrix in="SourceAlpha" type="matrix" values="0 0 0 0 0 0 0 0 0 0 0 0 0 0 0 0 0 0 127 0" result="hardAlpha"/>
<feOffset dy="1.34338"/>
<feGaussianBlur stdDeviation="1.10829"/>
<feComposite in2="hardAlpha" operator="out"/>
<feColorMatrix type="matrix" values="0 0 0 0 0.828127 0 0 0 0 0.836497 0 0 0 0 0.893001 0 0 0 0.65 0"/>
<feBlend mode="normal" in2="effect1_dropShadow_36752_92631" result="effect2_dropShadow_36752_92631"/>
<feColorMatrix in="SourceAlpha" type="matrix" values="0 0 0 0 0 0 0 0 0 0 0 0 0 0 0 0 0 0 127 0" result="hardAlpha"/>
<feOffset dy="4.70182"/>
<feGaussianBlur stdDeviation="1.84714"/>
<feComposite in2="hardAlpha" operator="out"/>
<feColorMatrix type="matrix" values="0 0 0 0 0.655449 0 0 0 0 0.670296 0 0 0 0 0.763089 0 0 0 0.38 0"/>
<feBlend mode="normal" in2="effect2_dropShadow_36752_92631" result="effect3_dropShadow_36752_92631"/>
<feBlend mode="normal" in="SourceGraphic" in2="effect3_dropShadow_36752_92631" result="shape"/>
</filter>
<filter id="filter3_i_36752_92631" x="7.67578" y="285.327" width="247.402" height="143.51" filterUnits="userSpaceOnUse" color-interpolation-filters="sRGB">
<feFlood flood-opacity="0" result="BackgroundImageFix"/>
<feBlend mode="normal" in="SourceGraphic" in2="BackgroundImageFix" result="shape"/>
<feColorMatrix in="SourceAlpha" type="matrix" values="0 0 0 0 0 0 0 0 0 0 0 0 0 0 0 0 0 0 127 0" result="hardAlpha"/>
<feOffset dy="-0.671688"/>
<feGaussianBlur stdDeviation="1.71281"/>
<feComposite in2="hardAlpha" operator="arithmetic" k2="-1" k3="1"/>
<feColorMatrix type="matrix" values="0 0 0 0 0.854564 0 0 0 0 0.862508 0 0 0 0 0.915467 0 0 0 1 0"/>
<feBlend mode="normal" in2="shape" result="effect1_innerShadow_36752_92631"/>
</filter>
<filter id="filter4_i_36752_92631" x="53.0039" y="312.168" width="156.746" height="90.498" filterUnits="userSpaceOnUse" color-interpolation-filters="sRGB">
<feFlood flood-opacity="0" result="BackgroundImageFix"/>
<feBlend mode="normal" in="SourceGraphic" in2="BackgroundImageFix" result="shape"/>
<feColorMatrix in="SourceAlpha" type="matrix" values="0 0 0 0 0 0 0 0 0 0 0 0 0 0 0 0 0 0 127 0" result="hardAlpha"/>
<feOffset/>
<feGaussianBlur stdDeviation="0.671688"/>
<feComposite in2="hardAlpha" operator="arithmetic" k2="-1" k3="1"/>
<feColorMatrix type="matrix" values="0 0 0 0 0.101335 0 0 0 0 0.170772 0 0 0 0 0.587397 0 0 0 1 0"/>
<feBlend mode="normal" in2="shape" result="effect1_innerShadow_36752_92631"/>
</filter>
<filter id="filter5_i_36752_92631" x="3.95117" y="282.042" width="254.852" height="147.832" filterUnits="userSpaceOnUse" color-interpolation-filters="sRGB">
<feFlood flood-opacity="0" result="BackgroundImageFix"/>
<feBlend mode="normal" in="SourceGraphic" in2="BackgroundImageFix" result="shape"/>
<feColorMatrix in="SourceAlpha" type="matrix" values="0 0 0 0 0 0 0 0 0 0 0 0 0 0 0 0 0 0 127 0" result="hardAlpha"/>
<feOffset dy="0.691914"/>
<feGaussianBlur stdDeviation="1.76438"/>
<feComposite in2="hardAlpha" operator="arithmetic" k2="-1" k3="1"/>
<feColorMatrix type="matrix" values="0 0 0 0 0.854564 0 0 0 0 0.862508 0 0 0 0 0.915467 0 0 0 0.34 0"/>
<feBlend mode="normal" in2="shape" result="effect1_innerShadow_36752_92631"/>
</filter>
<filter id="filter6_i_36752_92631" x="51.7188" y="309.621" width="159.316" height="91.9824" filterUnits="userSpaceOnUse" color-interpolation-filters="sRGB">
<feFlood flood-opacity="0" result="BackgroundImageFix"/>
<feBlend mode="normal" in="SourceGraphic" in2="BackgroundImageFix" result="shape"/>
<feColorMatrix in="SourceAlpha" type="matrix" values="0 0 0 0 0 0 0 0 0 0 0 0 0 0 0 0 0 0 127 0" result="hardAlpha"/>
<feOffset/>
<feGaussianBlur stdDeviation="0.691914"/>
<feComposite in2="hardAlpha" operator="arithmetic" k2="-1" k3="1"/>
<feColorMatrix type="matrix" values="0 0 0 0 0.101335 0 0 0 0 0.170772 0 0 0 0 0.587397 0 0 0 0.19 0"/>
<feBlend mode="normal" in2="shape" result="effect1_innerShadow_36752_92631"/>
</filter>
<filter id="filter7_f_36752_92631" x="-281.684" y="476.374" width="668.871" height="362.854" filterUnits="userSpaceOnUse" color-interpolation-filters="sRGB">
<feFlood flood-opacity="0" result="BackgroundImageFix"/>
<feBlend mode="normal" in="SourceGraphic" in2="BackgroundImageFix" result="shape"/>
<feGaussianBlur stdDeviation="50" result="effect1_foregroundBlur_36752_92631"/>
</filter>
<filter id="filter8_f_36752_92631" x="-268.664" y="471.67" width="685.105" height="409.639" filterUnits="userSpaceOnUse" color-interpolation-filters="sRGB">
<feFlood flood-opacity="0" result="BackgroundImageFix"/>
<feBlend mode="normal" in="SourceGraphic" in2="BackgroundImageFix" result="shape"/>
<feGaussianBlur stdDeviation="50" result="effect1_foregroundBlur_36752_92631"/>
</filter>
<linearGradient id="paint0_linear_36752_92631" x1="128" y1="1.58101e-05" x2="128" y2="640" gradientUnits="userSpaceOnUse">
<stop stop-color="#ECF2FF"/>
<stop offset="1" stop-color="#F8F4FF"/>
</linearGradient>
<linearGradient id="paint1_linear_36752_92631" x1="234.827" y1="52.7987" x2="229.247" y2="86.898" gradientUnits="userSpaceOnUse">
<stop stop-color="#176CFF"/>
<stop offset="1" stop-color="#176CFF" stop-opacity="0"/>
</linearGradient>
<linearGradient id="paint2_linear_36752_92631" x1="264.523" y1="70.2005" x2="254.812" y2="111.469" gradientUnits="userSpaceOnUse">
<stop stop-color="#B796FF"/>
<stop offset="1" stop-color="#B796FF" stop-opacity="0"/>
</linearGradient>
<linearGradient id="paint3_linear_36752_92631" x1="258.998" y1="369.732" x2="8.12215" y2="369.732" gradientUnits="userSpaceOnUse">
<stop stop-color="#DDDEE9"/>
<stop offset="0.272719" stop-color="#EAEBF3"/>
<stop offset="0.847985" stop-color="#F9FAFD"/>
<stop offset="1" stop-color="#EAEBF3"/>
</linearGradient>
<linearGradient id="paint4_linear_36752_92631" x1="-30.0315" y1="18.9434" x2="48.9748" y2="18.9434" gradientUnits="userSpaceOnUse">
<stop offset="1" stop-color="white"/>
</linearGradient>
<linearGradient id="paint5_linear_36752_92631" x1="262.841" y1="368.296" x2="4.41071" y2="368.296" gradientUnits="userSpaceOnUse">
<stop stop-color="#DDDEE9"/>
<stop offset="0.272719" stop-color="#EAEBF3"/>
<stop offset="0.847985" stop-color="#F9FAFD"/>
<stop offset="1" stop-color="#EAEBF3"/>
</linearGradient>
<linearGradient id="paint6_linear_36752_92631" x1="-17.7894" y1="32.6602" x2="50.4495" y2="100.899" gradientUnits="userSpaceOnUse">
<stop stop-color="#F9FAFD"/>
<stop offset="1" stop-color="white"/>
</linearGradient>
<linearGradient id="paint7_linear_36752_92631" x1="21.901" y1="131.497" x2="116.39" y2="37.0074" gradientUnits="userSpaceOnUse">
<stop stop-color="#A4B1D9"/>
<stop offset="1" stop-color="#040A36"/>
</linearGradient>
<linearGradient id="paint8_linear_36752_92631" x1="100.839" y1="0" x2="100.839" y2="131.326" gradientUnits="userSpaceOnUse">
<stop stop-color="#000670"/>
<stop offset="1" stop-color="#010548"/>
</linearGradient>
<linearGradient id="paint9_linear_36752_92631" x1="21.8725" y1="131.326" x2="96.5139" y2="18.4144" gradientUnits="userSpaceOnUse">
<stop stop-color="#0A0D3A"/>
<stop offset="1" stop-color="#172E72"/>
</linearGradient>
<linearGradient id="paint10_linear_36752_92631" x1="154.827" y1="650.799" x2="149.247" y2="684.898" gradientUnits="userSpaceOnUse">
<stop stop-color="#CDBCFF"/>
<stop offset="1" stop-color="#CDBCFF" stop-opacity="0"/>
</linearGradient>
<linearGradient id="paint11_linear_36752_92631" x1="184.523" y1="668.2" x2="174.812" y2="709.469" gradientUnits="userSpaceOnUse">
<stop stop-color="#2563EB"/>
<stop offset="1" stop-color="#B796FF" stop-opacity="0"/>
</linearGradient>
<clipPath id="clip0_36752_92631">
<rect width="256" height="640" rx="16" fill="white"/>
</clipPath>
<clipPath id="clip1_36752_92631">
<rect width="51.6297" height="30.6383" fill="white" transform="matrix(0.866025 0.5 -0.866025 0.5 122.285 336.851)"/>
</clipPath>
<clipPath id="clip2_36752_92631">
<rect width="53.1844" height="31.5609" fill="white" transform="matrix(0.866025 0.5 -0.866025 0.5 122.014 334.426)"/>
</clipPath>
<clipPath id="clip3_36752_92631">
<rect width="27.9499" height="21.4999" rx="3.76248" transform="matrix(0.866025 0.5 -0.866025 0.5 78 193.572)" fill="white"/>
</clipPath>
</defs>
</svg>
