<svg width="24" height="17" viewBox="0 0 24 17" fill="none" xmlns="http://www.w3.org/2000/svg">
<rect width="24" height="16.125" rx="4" fill="#01326F"/>
<path d="M14.1557 4.08301H9.72656V12.0429H14.1557V4.08301Z" fill="#FF5F00"/>
<path d="M10.0063 8.0636C10.0055 7.2969 10.1792 6.54006 10.5141 5.8504C10.8491 5.16074 11.3366 4.55634 11.9397 4.08296C11.193 3.49609 10.2962 3.13115 9.3518 3.02985C8.40745 2.92855 7.45365 3.09498 6.59941 3.51011C5.74517 3.92524 5.02496 4.57233 4.52108 5.37742C4.01721 6.18251 3.75 7.11312 3.75 8.06289C3.75 9.01266 4.01721 9.94327 4.52108 10.7484C5.02496 11.5535 5.74517 12.2005 6.59941 12.6157C7.45365 13.0308 8.40745 13.1972 9.3518 13.0959C10.2962 12.9946 11.193 12.6297 11.9397 12.0428C11.3368 11.5696 10.8494 10.9654 10.5144 10.276C10.1795 9.58662 10.0057 8.83006 10.0063 8.0636Z" fill="#EB001B"/>
<path d="M20.1319 8.0632C20.1318 9.01304 19.8646 9.94371 19.3606 10.7488C18.8566 11.5539 18.1363 12.201 17.282 12.6161C16.4276 13.0312 15.4737 13.1975 14.5293 13.096C13.5849 12.9946 12.6881 12.6295 11.9414 12.0424C12.5441 11.5688 13.0313 10.9644 13.3664 10.275C13.7014 9.58556 13.8755 8.82904 13.8755 8.0625C13.8755 7.29596 13.7014 6.53944 13.3664 5.85C13.0313 5.16056 12.5441 4.55622 11.9414 4.08257C12.6881 3.49552 13.5849 3.1304 14.5293 3.02896C15.4737 2.92751 16.4276 3.09383 17.282 3.5089C18.1363 3.92398 18.8566 4.57105 19.3606 5.37617C19.8646 6.18129 20.1318 7.11196 20.1319 8.0618V8.0632Z" fill="#F79E1B"/>
</svg>
