<svg xmlns="http://www.w3.org/2000/svg" width="24" height="24" viewBox="0 0 24 24" fill="none">
  <path d="M12 3L12.3354 2.32918C12.1243 2.22361 11.8757 2.22361 11.6646 2.32918L12 3ZM20 7H20.75C20.75 6.71592 20.5895 6.45622 20.3354 6.32918L20 7ZM4 7L3.66459 6.32918C3.4105 6.45622 3.25 6.71592 3.25 7H4ZM20 17L20.3354 17.6708C20.5895 17.5438 20.75 17.2841 20.75 17H20ZM12 21L11.6646 21.6708C11.8757 21.7764 12.1243 21.7764 12.3354 21.6708L12 21ZM4 17H3.25C3.25 17.2841 3.4105 17.5438 3.66459 17.6708L4 17ZM9.02275 4.01866C8.6686 3.80384 8.20735 3.91679 7.99253 4.27095C7.77772 4.6251 7.89067 5.08635 8.24483 5.30117L8.63379 4.65991L9.02275 4.01866ZM15.8779 9.05396H16.6279V8.63169L16.2669 8.4127L15.8779 9.05396ZM15.1279 14.2397C15.1279 14.6539 15.4637 14.9897 15.8779 14.9897C16.2921 14.9897 16.6279 14.6539 16.6279 14.2397H15.8779H15.1279ZM6.92537 14.4373C6.55898 14.2441 6.10534 14.3845 5.91213 14.7509C5.71893 15.1173 5.85932 15.5709 6.22572 15.7641L6.57555 15.1007L6.92537 14.4373ZM7.34786 16.3728C7.71018 16.5735 8.16663 16.4426 8.36738 16.0803C8.56813 15.7179 8.43716 15.2615 8.07484 15.0607L7.71135 15.7168L7.34786 16.3728ZM12 3L11.6646 3.67082L19.6646 7.67082L20 7L20.3354 6.32918L12.3354 2.32918L12 3ZM20 7L19.6646 6.32918L11.6646 10.3292L12 11L12.3354 11.6708L20.3354 7.67082L20 7ZM12 11L12.3354 10.3292L4.33541 6.32918L4 7L3.66459 7.67082L11.6646 11.6708L12 11ZM4 7L4.33541 7.67082L12.3354 3.67082L12 3L11.6646 2.32918L3.66459 6.32918L4 7ZM20 17L19.6646 16.3292L11.6646 20.3292L12 21L12.3354 21.6708L20.3354 17.6708L20 17ZM12 21L12.3354 20.3292L4.33541 16.3292L4 17L3.66459 17.6708L11.6646 21.6708L12 21ZM4 17H4.75V7H4H3.25V17H4ZM20 17H20.75V7H20H19.25V17H20ZM12 11H11.25V21H12H12.75V11H12ZM8.63379 4.65991L8.24483 5.30117L15.489 9.69521L15.8779 9.05396L16.2669 8.4127L9.02275 4.01866L8.63379 4.65991ZM15.8779 9.05396H15.1279V14.2397H15.8779H16.6279V9.05396H15.8779ZM6.57555 15.1007L6.22572 15.7641C6.46812 15.8919 6.74824 16.0438 6.96923 16.1646C7.07941 16.2249 7.17425 16.277 7.2415 16.3141C7.27511 16.3326 7.30181 16.3473 7.32005 16.3574C7.32917 16.3625 7.33618 16.3663 7.34088 16.3689C7.34323 16.3702 7.345 16.3712 7.34617 16.3719C7.34676 16.3722 7.3472 16.3724 7.34748 16.3726C7.34762 16.3727 7.34772 16.3727 7.34779 16.3728C7.34782 16.3728 7.34784 16.3728 7.34785 16.3728C7.34786 16.3728 7.34786 16.3728 7.34787 16.3728C7.34787 16.3728 7.34786 16.3728 7.71135 15.7168C8.07484 15.0607 8.07483 15.0607 8.07482 15.0607C8.07482 15.0607 8.0748 15.0607 8.07479 15.0607C8.07477 15.0607 8.07473 15.0607 8.07468 15.0606C8.07459 15.0606 8.07446 15.0605 8.07429 15.0604C8.07396 15.0602 8.07346 15.06 8.07282 15.0596C8.07154 15.0589 8.06965 15.0579 8.06718 15.0565C8.06225 15.0538 8.055 15.0498 8.04563 15.0446C8.02688 15.0342 7.99962 15.0192 7.96541 15.0003C7.89699 14.9626 7.80064 14.9096 7.6887 14.8485C7.46546 14.7264 7.17768 14.5703 6.92537 14.4373L6.57555 15.1007Z" fill="currentColor"/>
</svg>