<svg width="18" height="18" viewBox="0 0 18 18" fill="none" xmlns="http://www.w3.org/2000/svg">
<path d="M15.9975 4.84648C16.3308 4.65242 16.749 4.89288 16.749 5.27858V11.9291C16.749 12.1956 16.6077 12.4421 16.3776 12.5766L8.46328 17.2035C8.12996 17.3984 7.71094 17.158 7.71094 16.7719V10.5333C7.71094 9.99937 7.99478 9.50572 8.45623 9.23707L15.9975 4.84648Z" fill="url(#paint0_linear_6983_25705)" fill-opacity="0.91"/>
<path opacity="0.4" d="M12.808 2.90995C13.1414 2.7159 13.5596 2.95635 13.5596 3.34206V9.5443C13.5596 10.0764 13.2777 10.5687 12.8188 10.8381L5.27453 15.265C4.94121 15.4605 4.52148 15.2202 4.52148 14.8337V8.59683C4.52148 8.06288 4.80533 7.56918 5.26677 7.30052L12.808 2.90995Z" fill="url(#paint1_linear_6983_25705)" fill-opacity="0.91"/>
<path opacity="0.4" d="M9.61663 0.972946C9.94999 0.778881 10.3682 1.01934 10.3682 1.40505V7.60729C10.3682 8.13941 10.0863 8.6317 9.62734 8.90101L2.08313 13.3279C1.7498 13.5235 1.33008 13.2832 1.33008 12.8967V6.65982C1.33008 6.12587 1.61392 5.63216 2.07536 5.36352L9.61663 0.972946Z" fill="url(#paint2_linear_6983_25705)" fill-opacity="0.91"/>
<defs>
<linearGradient id="paint0_linear_6983_25705" x1="5.87353" y1="20.3749" x2="19.0733" y2="4.40888" gradientUnits="userSpaceOnUse">
<stop stop-color="#0295C9"/>
<stop offset="1" stop-color="#0CD2E1"/>
</linearGradient>
<linearGradient id="paint1_linear_6983_25705" x1="12.1245" y1="11.6252" x2="11.8745" y2="3.12518" gradientUnits="userSpaceOnUse">
<stop stop-color="#00A1D3"/>
<stop offset="1" stop-color="#00DBEC"/>
</linearGradient>
<linearGradient id="paint2_linear_6983_25705" x1="8.9331" y1="9.68822" x2="8.6831" y2="1.18824" gradientUnits="userSpaceOnUse">
<stop stop-color="#00A1D3"/>
<stop offset="1" stop-color="#00DBEC"/>
</linearGradient>
</defs>
</svg>
