<svg width="18" height="18" viewBox="0 0 18 18" fill="none" xmlns="http://www.w3.org/2000/svg">
<path d="M6.35392 13.4865C6.68724 13.6823 7.10728 13.442 7.10728 13.0554L7.10728 7.70824C7.10728 7.44286 6.96704 7.19723 6.73848 7.06234L2.75414 4.71079C2.42083 4.51407 2 4.75435 2 5.14139V10.9274L6.35392 13.4865Z" fill="#FFCD49"/>
<path opacity="0.8" d="M2 10.9352V5.11904C2 4.85255 2.14142 4.60607 2.37147 4.47158L8.83958 0.6902C9.17293 0.495332 9.59197 0.735739 9.59197 1.12185V5.65274C9.59197 6.18669 9.30811 6.68039 8.84664 6.94904L2 10.9352Z" fill="url(#paint0_linear_7113_52014)"/>
<path d="M11.2767 4.12048C10.9435 3.92457 10.5234 4.16491 10.5234 4.55154V9.89871C10.5234 10.1641 10.6637 10.4097 10.8922 10.5446L14.8766 12.8962C15.2098 13.0929 15.6307 12.8526 15.6307 12.4656V6.67954L11.2767 4.12048Z" fill="#FFCD49"/>
<path opacity="0.8" d="M15.631 6.67188V12.488C15.631 12.7545 15.4896 13.001 15.2595 13.1355L8.79142 16.9168C8.45808 17.1118 8.03906 16.8713 8.03906 16.4852V11.9543C8.03906 11.4203 8.3229 10.9267 8.78435 10.658L15.631 6.67188Z" fill="url(#paint1_linear_7113_52014)"/>
<defs>
<linearGradient id="paint0_linear_7113_52014" x1="2" y1="11.3671" x2="9.59197" y2="1.08604" gradientUnits="userSpaceOnUse">
<stop stop-color="#FB9131"/>
<stop offset="1" stop-color="#FBC734"/>
</linearGradient>
<linearGradient id="paint1_linear_7113_52014" x1="15.631" y1="6.23993" x2="8.03906" y2="16.521" gradientUnits="userSpaceOnUse">
<stop stop-color="#FB9131"/>
<stop offset="1" stop-color="#FBC734"/>
</linearGradient>
</defs>
</svg>
