<svg xmlns="http://www.w3.org/2000/svg" width="59" height="22" viewBox="0 0 59 22" fill="none">
  <path d="M49.0149 15.5658L50.911 10.686C50.8879 10.7383 51.3015 9.67913 51.5423 9.02351L51.8689 10.5301L52.9693 15.563H49.0117V15.5658H49.0149ZM11.5564 13.786L12.0496 16.2088L16.7013 4.31749H21.7424L14.2524 21.7315H9.22275L5.1113 6.98601C5.04534 6.74311 4.8883 6.53372 4.67367 6.40201C3.19221 5.63636 1.6228 5.05561 0 4.67242L0.0638636 4.30482H7.72453C8.76417 4.34691 9.60175 4.67241 9.88025 5.78199L11.5543 13.7954V13.786H11.5564ZM23.6395 4.16977H28.399L25.4215 21.6174H20.6682L23.6395 4.16453V4.16977ZM54.8874 4.31749H51.2167C50.0744 4.31749 49.2138 4.63158 48.7155 5.7644L41.6568 21.7556H46.6509L47.6496 19.1328L53.7451 19.1394C53.8885 19.7529 54.3293 21.7556 54.3293 21.7556H58.7339L54.8874 4.31749ZM42.6954 4.73701C41.3312 4.2397 39.8885 3.9899 38.4353 4.00005C33.7375 4.00005 30.4197 6.36641 30.3956 9.76372C30.3663 12.2597 32.7534 13.6658 34.5594 14.5C36.4125 15.3577 37.0313 15.8979 37.0261 16.6643C37.0145 17.8295 35.5456 18.3583 34.1804 18.3583C32.3042 18.3583 31.2792 18.0965 29.7025 17.4422L29.1183 17.169L28.4524 21.0804C29.5947 21.5556 31.653 21.9642 33.7784 21.9998C38.7734 21.9998 42.0379 19.647 42.0766 16.0329C42.1175 14.0383 40.8255 12.5329 38.1065 11.288C36.4534 10.4798 35.4284 9.93961 35.4284 9.12088C35.4284 8.39533 36.3068 7.62068 38.1421 7.62068C39.3629 7.59126 40.5763 7.8195 41.7029 8.29263L42.1437 8.48935L42.8106 4.71011L42.6954 4.73701Z" fill="white"/>
</svg>