<svg xmlns="http://www.w3.org/2000/svg" width="24" height="16" viewBox="0 0 24 16" fill="none">
  <rect width="24" height="16" rx="1.2" fill="url(#paint0_linear_33456_57407)"/>
  <path d="M12.309 7.05319C12.2987 7.85657 13.0305 8.30493 13.5818 8.57147C14.1483 8.84499 14.3385 9.02036 14.3364 9.26492C14.3321 9.63926 13.8845 9.80444 13.4656 9.81088C12.7349 9.82214 12.3101 9.61512 11.9722 9.45852L11.709 10.6808C12.0479 10.8358 12.6754 10.9709 13.3262 10.9768C14.8536 10.9768 15.853 10.2287 15.8584 9.06863C15.8644 7.59647 13.8061 7.51495 13.8202 6.8569C13.8251 6.65739 14.0169 6.44448 14.4374 6.39031C14.6455 6.36296 15.2201 6.34204 15.8714 6.63969L16.127 5.45714C15.7768 5.33057 15.3266 5.20936 14.7661 5.20936C13.3283 5.20936 12.3171 5.9677 12.309 7.05319ZM18.5836 5.31126C18.3047 5.31126 18.0696 5.47269 17.9647 5.72047L15.7827 10.8899H17.3091L17.6129 10.057H19.4781L19.6543 10.8899H20.9996L19.8257 5.31126H18.5836ZM18.7971 6.81828L19.2376 8.9131H18.0312L18.7971 6.81828ZM10.4583 5.31126L9.25517 10.8899H10.7096L11.9122 5.31126H10.4583ZM8.3066 5.31126L6.79266 9.10831L6.18028 5.87975C6.1084 5.51935 5.82464 5.31126 5.50953 5.31126H3.03459L3 5.47323C3.50807 5.58263 4.08532 5.75908 4.43502 5.94786C4.64906 6.06317 4.71013 6.16399 4.7804 6.43804L5.9403 10.8899H7.47747L9.83404 5.31126H8.3066Z" fill="white"/>
  <defs>
    <linearGradient id="paint0_linear_33456_57407" x1="10.7812" y1="16" x2="15.6708" y2="0.32624" gradientUnits="userSpaceOnUse">
      <stop stop-color="#222357"/>
      <stop offset="1" stop-color="#254AA5"/>
    </linearGradient>
  </defs>
</svg>