<svg width="196" height="44" viewBox="0 0 196 44" fill="none" xmlns="http://www.w3.org/2000/svg">
<rect x="0.5" width="44" height="44" rx="10" fill="url(#paint0_linear_6378_100973)"/>
<path d="M14.5211 22.2729C14.5211 23.1002 14.0118 23.8421 13.2397 24.1394L8.73242 25.8749V16.1935C8.73242 14.4098 9.68261 12.7612 11.226 11.8671L18.6031 7.5933C20.3395 6.58732 22.5466 7.62216 22.8838 9.60044L14.5211 16.089V22.2729Z" fill="url(#paint1_linear_6378_100973)"/>
<path d="M14.4844 10.6446C14.4839 12.2688 14.522 16.7053 14.522 16.7053L23.3653 11.3538V8.1178C23.3653 6.54981 21.643 5.59165 20.3107 6.4184L15.482 9.41479C14.7766 9.80461 14.4846 10.0262 14.4844 10.6446Z" fill="url(#paint2_linear_6378_100973)"/>
<path d="M27.8631 29.1848C28.5865 28.7835 29.4823 28.8691 30.1167 29.4L33.8207 32.4998L25.103 37.3351C23.6988 38.114 21.986 38.0859 20.6082 37.2612L13.0459 32.7354C11.3239 31.7049 11.1584 29.2729 12.7248 28.0184L22.4552 32.1843L27.8631 29.1848Z" fill="url(#paint3_linear_6378_100973)"/>
<path d="M17.7133 34.8574C19.134 34.07 22.9951 31.8848 22.9951 31.8848L13.5463 26.3114L12.1807 27.0689C10.1347 28.2037 10.1174 31.1397 12.1499 32.2985L16.154 34.5815C16.8371 35.0093 17.1725 35.1572 17.7133 34.8574Z" fill="url(#paint4_linear_6378_100973)"/>
<path d="M26.1617 13.7403C25.4395 13.3368 25.0403 12.5304 25.1573 11.7114L25.8404 6.93005L34.5433 11.792C35.9451 12.5752 36.8236 14.0458 36.8486 15.6514L36.9862 24.4634C37.0176 26.4699 35.0377 27.892 33.1462 27.2216L31.5604 16.7563L26.1617 13.7403Z" fill="url(#paint5_linear_6378_100973)"/>
<path d="M36.3313 19.3799C34.9136 18.5873 31.022 16.4568 31.022 16.4568L31.2632 27.4243L32.6264 28.1859C34.6689 29.327 37.1735 27.7948 37.0876 25.4568L36.9183 20.8506C36.9221 20.0447 36.8711 19.6817 36.3313 19.3799Z" fill="url(#paint6_linear_6378_100973)"/>
<path d="M22.8372 27.502L22.8225 21.9022L27.6931 19.0913L27.7095 24.6881L22.8372 27.502Z" fill="#7D95DD"/>
<path d="M22.8376 27.5006L17.9984 24.6868L17.9791 19.0883L22.823 21.9008L22.8376 27.5006Z" fill="#E7EAFF"/>
<path d="M22.8239 21.901L17.98 19.0886L22.8553 16.2763L27.6945 19.0901L22.8239 21.901Z" fill="#B7D6FF"/>
<path d="M67.4858 18.5653H71.0227C70.9716 15.4545 68.4148 13.3068 64.5284 13.3068C60.7017 13.3068 57.8977 15.4205 57.9148 18.5909C57.9062 21.1648 59.7216 22.6392 62.6705 23.3466L64.571 23.8239C66.4716 24.2841 67.5284 24.8295 67.5369 26.0057C67.5284 27.2841 66.3182 28.1534 64.4432 28.1534C62.5256 28.1534 61.1449 27.267 61.0256 25.5199H57.4545C57.5483 29.2955 60.25 31.2472 64.4858 31.2472C68.7472 31.2472 71.2528 29.2102 71.2614 26.0142C71.2528 23.108 69.0625 21.5653 66.0284 20.8835L64.4602 20.5085C62.9432 20.1591 61.6733 19.5966 61.6989 18.3438C61.6989 17.2188 62.696 16.392 64.5028 16.392C66.267 16.392 67.3494 17.1932 67.4858 18.5653ZM73.7436 13.5455V31H77.3232V19.5966H77.468L81.9851 30.9148H84.4226L88.9396 19.6392H89.0845V31H92.6641V13.5455H88.1129L83.3061 25.2727H83.1016L78.2947 13.5455H73.7436ZM98.7131 31L100.009 27.0199H106.307L107.602 31H111.557L105.54 13.5455H100.784L94.7585 31H98.7131ZM100.946 24.1392L103.094 17.5341H103.23L105.378 24.1392H100.946ZM113.658 31H117.348V24.8125H120.041L123.348 31H127.422L123.714 24.2159C125.7 23.3636 126.8 21.6335 126.8 19.2472C126.8 15.7784 124.507 13.5455 120.544 13.5455H113.658V31ZM117.348 21.8466V16.5625H119.837C121.967 16.5625 122.999 17.5085 122.999 19.2472C122.999 20.9773 121.967 21.8466 119.854 21.8466H117.348ZM128.743 16.5881H134.087V31H137.734V16.5881H143.078V13.5455H128.743V16.5881Z" fill="#1F2937"/>
<path d="M150.614 31H152.727V23.1932H162.034V31H164.148V13.5455H162.034V21.3182H152.727V13.5455H150.614V31ZM176.357 25.6477C176.357 28.1023 174.482 29.2273 172.982 29.2273C171.311 29.2273 170.118 28 170.118 26.0909V17.9091H168.107V26.2273C168.107 29.5682 169.879 31.1705 172.334 31.1705C174.311 31.1705 175.607 30.1136 176.22 28.7841H176.357V31H178.368V17.9091H176.357V25.6477ZM182.325 31H184.268V28.9886H184.506C184.95 29.7045 185.802 31.2727 188.325 31.2727C191.597 31.2727 193.881 28.6477 193.881 24.4886C193.881 20.3636 191.597 17.7386 188.29 17.7386C185.734 17.7386 184.95 19.3068 184.506 19.9886H184.336V13.5455H182.325V31ZM184.302 24.4545C184.302 21.5227 185.597 19.5455 188.052 19.5455C190.609 19.5455 191.87 21.6932 191.87 24.4545C191.87 27.25 190.575 29.4659 188.052 29.4659C185.631 29.4659 184.302 27.4205 184.302 24.4545Z" fill="#1F2937"/>
<defs>
<linearGradient id="paint0_linear_6378_100973" x1="44.5" y1="12.8027" x2="-1.72664" y2="18.8305" gradientUnits="userSpaceOnUse">
<stop stop-color="#22356C"/>
<stop offset="1" stop-color="#212641"/>
</linearGradient>
<linearGradient id="paint1_linear_6378_100973" x1="15.8081" y1="5.51662" x2="15.8081" y2="25.267" gradientUnits="userSpaceOnUse">
<stop stop-color="#E9EAFF"/>
<stop offset="1" stop-color="#BADBFF"/>
</linearGradient>
<linearGradient id="paint2_linear_6378_100973" x1="20.4475" y1="3.03389" x2="17.1294" y2="16.0974" gradientUnits="userSpaceOnUse">
<stop stop-color="#E9EAFF"/>
<stop offset="1" stop-color="#8DA5E5"/>
</linearGradient>
<linearGradient id="paint3_linear_6378_100973" x1="12.5856" y1="36.1869" x2="29.8571" y2="26.607" gradientUnits="userSpaceOnUse">
<stop stop-color="#E9EAFF"/>
<stop offset="1" stop-color="#BADBFF"/>
</linearGradient>
<linearGradient id="paint4_linear_6378_100973" x1="8.16552" y1="33.3343" x2="21.1988" y2="29.8995" gradientUnits="userSpaceOnUse">
<stop stop-color="#E9EAFF"/>
<stop offset="1" stop-color="#8DA5E5"/>
</linearGradient>
<linearGradient id="paint5_linear_6378_100973" x1="40.1623" y1="23.0362" x2="22.9202" y2="13.4036" gradientUnits="userSpaceOnUse">
<stop stop-color="#E9EAFF"/>
<stop offset="1" stop-color="#BADBFF"/>
</linearGradient>
<linearGradient id="paint6_linear_6378_100973" x1="40.0672" y1="28.2975" x2="30.281" y2="19.0296" gradientUnits="userSpaceOnUse">
<stop stop-color="#E9EAFF"/>
<stop offset="1" stop-color="#8DA5E5"/>
</linearGradient>
</defs>
</svg>
