<svg width="65" height="12" viewBox="0 0 65 12" fill="none" xmlns="http://www.w3.org/2000/svg">
<path d="M28.556 4.69919C28.2769 4.36385 27.9133 4.1059 27.5056 3.94744C26.9805 3.75213 26.4222 3.66 25.864 3.67474C25.2286 3.67106 24.5896 3.71896 23.9616 3.81478C23.4915 3.88479 23.0251 3.98429 22.566 4.10958V11.9293H24.4206V5.41041C24.5455 5.3883 24.7328 5.3625 24.9899 5.33302C25.2323 5.30354 25.4784 5.2888 25.7281 5.28512C26.0035 5.27775 26.2753 5.32197 26.5324 5.41409C26.7454 5.49516 26.9254 5.64257 27.0539 5.8305C27.1935 6.05529 27.289 6.30956 27.3294 6.5712C27.3918 6.93602 27.4175 7.30453 27.4138 7.67672V11.9182H29.2722V7.38191C29.2758 6.87706 29.2207 6.37221 29.1106 5.87841C29.0151 5.45094 28.8278 5.04559 28.556 4.69919Z" fill="black"/>
<path d="M0.938354 2.94137H4.19596V11.9255H6.1351V2.94137H9.3927V1.26099H0.938354V2.94137Z" fill="black"/>
<path d="M55.7671 3.76314C55.6019 3.73735 55.4366 3.71524 55.275 3.7005C55.1134 3.68576 54.9702 3.67839 54.849 3.67839C54.2467 3.6747 53.648 3.73366 53.0604 3.85527C52.605 3.95108 52.157 4.07637 51.7162 4.23483V11.9329H53.5709V5.45827C53.7288 5.41036 53.8904 5.3772 54.0557 5.3514C54.2724 5.31087 54.4891 5.28876 54.7094 5.28876C55.0253 5.28507 55.3411 5.31455 55.6533 5.37351C55.87 5.41405 56.083 5.46932 56.2923 5.53565L56.6118 3.95476C56.52 3.9216 56.3988 3.88843 56.2446 3.85527C56.0866 3.81842 55.9324 3.78894 55.7671 3.76314Z" fill="black"/>
<path d="M13.5363 3.76314C13.371 3.73735 13.2058 3.71524 13.0442 3.7005C12.8826 3.68576 12.7393 3.67839 12.6181 3.67839C12.0158 3.6747 11.4172 3.73366 10.8296 3.85527C10.3742 3.95108 9.92613 4.07637 9.48541 4.23483V11.9329H11.3401V5.45827C11.498 5.41036 11.6596 5.3772 11.8249 5.3514C12.0415 5.31087 12.2582 5.28876 12.4786 5.28876C12.7944 5.28507 13.1103 5.31455 13.4224 5.37351C13.6391 5.41405 13.8521 5.46932 14.0615 5.53565L14.381 3.95476C14.2892 3.9216 14.168 3.88843 14.0137 3.85527C13.8558 3.81842 13.6979 3.78894 13.5363 3.76314Z" fill="black"/>
<path d="M20.499 4.54452C20.2272 4.2534 19.882 4.0323 19.5074 3.90332C19.0189 3.74118 18.5084 3.66379 17.9979 3.67853C17.5315 3.67485 17.0614 3.71907 16.6024 3.80014C16.2681 3.85541 15.9339 3.93648 15.6034 4.03967L15.5593 4.05441L15.7981 5.62424L15.8605 5.60213C16.1323 5.51001 16.4151 5.43999 16.6942 5.39945C17.0651 5.33681 17.4471 5.30733 17.8253 5.31101C18.0787 5.30364 18.3285 5.34049 18.5672 5.42525C18.9234 5.55423 19.1879 5.85272 19.2797 6.22122C19.3274 6.40916 19.3531 6.60815 19.3531 6.80346V7.03194C19.1438 6.98403 18.9308 6.94718 18.7178 6.92138C18.5084 6.89559 18.2991 6.88453 18.0898 6.88453C18.0824 6.88453 18.0787 6.88453 18.0714 6.88453C17.6637 6.88453 17.2561 6.92875 16.8594 7.00982C16.4885 7.08353 16.1359 7.22724 15.8127 7.42992C15.5153 7.62523 15.2655 7.89055 15.0929 8.20378C14.9056 8.56123 14.8138 8.95922 14.8285 9.36089C14.8138 9.76994 14.8909 10.1827 15.0562 10.5622C15.2031 10.8755 15.4308 11.1518 15.7099 11.3582C16.0147 11.5719 16.3489 11.7193 16.7125 11.8004C17.1349 11.8925 17.5646 11.9404 17.9943 11.9368C18.0273 11.9368 18.0567 11.9368 18.0898 11.9368C18.6884 11.9368 19.2944 11.8925 19.8893 11.8078C20.4586 11.723 20.8699 11.653 21.1417 11.5904L21.1858 11.5793V6.81452C21.1894 6.38705 21.138 5.95958 21.0278 5.54317C20.9324 5.17467 20.7524 4.82827 20.499 4.54452ZM19.3495 8.40278V10.3116C18.9528 10.3743 18.5488 10.4038 18.1485 10.3927H18.0934C17.6784 10.3853 17.3479 10.3043 17.1018 10.1569C16.8558 10.0058 16.7272 9.72203 16.7272 9.31667C16.7199 9.1361 16.7676 8.95922 16.8668 8.80445C16.9623 8.6681 17.0908 8.55755 17.2377 8.48753C17.4067 8.40646 17.5829 8.35487 17.7702 8.32908C18.1669 8.27012 18.5709 8.27012 18.9712 8.32908C19.0924 8.34382 19.2209 8.36961 19.3495 8.40278Z" fill="black"/>
<path d="M49.6541 4.54452C49.3823 4.2534 49.0371 4.0323 48.6625 3.90332C48.1741 3.74118 47.6636 3.66379 47.1531 3.67853C46.6866 3.67485 46.2165 3.71538 45.7538 3.79645C45.4196 3.85173 45.0854 3.9328 44.7585 4.03598L44.7145 4.05072L44.9495 5.62056L45.0119 5.59845C45.2837 5.50632 45.5628 5.4363 45.8456 5.39577C46.2165 5.33312 46.5985 5.30364 46.9768 5.30733C47.2302 5.29996 47.4799 5.33681 47.7186 5.42156C48.0749 5.55054 48.3393 5.84903 48.4311 6.21754C48.4789 6.40547 48.5046 6.60447 48.5046 6.79978V7.02825C48.2952 6.98034 48.0822 6.94349 47.8692 6.9177C47.6562 6.8919 47.4469 6.88085 47.2412 6.88085C47.2375 6.88085 47.2375 6.88085 47.2339 6.88085C46.8225 6.88085 46.4075 6.92507 46.0072 7.00982C45.6363 7.08353 45.2837 7.22724 44.9605 7.42992C44.663 7.62523 44.4133 7.89055 44.2407 8.20378C44.0534 8.56123 43.9616 8.95922 43.9763 9.36089C43.9652 9.76994 44.0424 10.1863 44.2113 10.5622C44.3582 10.8755 44.5859 11.1518 44.865 11.3582C45.1699 11.5719 45.5077 11.7193 45.8677 11.8004C46.2863 11.8925 46.7197 11.9404 47.1494 11.9368C47.1824 11.9368 47.2118 11.9368 47.2449 11.9368C47.8435 11.9368 48.4495 11.8925 49.0445 11.8078C49.6137 11.723 50.0251 11.653 50.2968 11.5904L50.3409 11.5793V6.81452C50.3446 6.38705 50.2931 5.9559 50.183 5.54317C50.0838 5.17467 49.9039 4.82827 49.6541 4.54452ZM48.5009 8.40278V10.3116C48.1043 10.3743 47.7003 10.4038 47.3 10.3927H47.2449C46.8299 10.3853 46.4993 10.3043 46.2533 10.1569C46.0072 10.0058 45.8787 9.72203 45.8787 9.31667C45.8713 9.1361 45.9191 8.95922 46.0182 8.80445C46.1137 8.6681 46.2423 8.55755 46.3892 8.48753C46.5581 8.40646 46.7344 8.35487 46.9217 8.32908C47.3183 8.27012 47.7223 8.27012 48.1226 8.32908C48.2475 8.34382 48.376 8.36961 48.5009 8.40278Z" fill="black"/>
<path d="M36.0888 8.70825C35.997 8.45398 35.8464 8.21814 35.6554 8.0302C35.4351 7.81647 35.1853 7.63958 34.9136 7.50692C34.561 7.33004 34.1974 7.17158 33.8301 7.03523C33.6135 6.96153 33.4005 6.87678 33.1874 6.77728C33.0405 6.71095 32.8973 6.62619 32.7688 6.53038C32.6806 6.46405 32.6072 6.37561 32.5594 6.2798C32.5154 6.1803 32.497 6.06975 32.497 5.9592C32.4896 5.73809 32.6108 5.53542 32.8055 5.4396C33.0699 5.31063 33.3674 5.24798 33.6686 5.25904C34.0211 5.25535 34.3737 5.2922 34.7189 5.36959C34.9723 5.42855 35.2221 5.50962 35.4608 5.6128L35.5195 5.6386L35.8684 4.07245L35.8244 4.05771C35.5195 3.95084 35.2037 3.86977 34.8879 3.81081C34.4582 3.72605 34.0175 3.68183 33.5804 3.68552C32.677 3.68552 31.9534 3.89925 31.4246 4.31566C30.8921 4.73576 30.624 5.31431 30.624 6.04027C30.6129 6.36824 30.6717 6.68884 30.7966 6.99101C30.9068 7.24528 31.0684 7.47007 31.274 7.65432C31.487 7.84595 31.7294 8.0044 31.9865 8.1297C32.2766 8.27341 32.5815 8.39871 32.8826 8.50926C33.4078 8.70457 33.7861 8.88882 34.0138 9.05465C34.2158 9.18362 34.3333 9.40473 34.3333 9.64794V9.65163C34.3517 9.87273 34.2341 10.0828 34.0395 10.186C33.8338 10.2965 33.4923 10.3518 33.0332 10.3518C33.0222 10.3518 33.0148 10.3518 33.0038 10.3518C32.5925 10.3518 32.1811 10.3002 31.7845 10.197C31.4613 10.1123 31.1455 10.0091 30.8406 9.89116L30.7819 9.86536L30.4514 11.472L30.4954 11.4868C30.7819 11.5937 31.0757 11.6895 31.3732 11.7632C31.858 11.8774 32.3574 11.9364 32.8569 11.9364C32.912 11.9364 32.9671 11.9364 33.0222 11.9327H33.0258C34.0432 11.9327 34.8364 11.7374 35.391 11.3504C35.9492 10.9598 36.232 10.3776 36.232 9.62215C36.232 9.30892 36.188 9.00306 36.0888 8.70825Z" fill="black"/>
<path d="M42.7878 9.95766C42.5748 10.0461 42.3177 10.1198 42.0276 10.1788C41.7375 10.2377 41.4363 10.2672 41.1351 10.2672C40.3382 10.2672 39.7653 10.0461 39.4347 9.61495C39.1005 9.17643 38.9279 8.57208 38.9279 7.81664C38.9279 7.03172 39.1079 6.41632 39.4641 5.98885C39.8167 5.56507 40.3382 5.34765 41.0176 5.34765C41.3078 5.34765 41.5832 5.37713 41.8403 5.43609C42.0974 5.49506 42.3324 5.56876 42.5344 5.6572L42.5932 5.68299L43.0045 4.10579L42.9604 4.08736C42.3067 3.81835 41.6016 3.68201 40.8707 3.68201C40.2758 3.68201 39.7285 3.78887 39.2511 3.99892C38.7737 4.20897 38.3623 4.50377 38.0281 4.87228C37.6939 5.24079 37.4332 5.68299 37.2569 6.18785C37.0769 6.6927 36.9888 7.23809 36.9888 7.81664C36.9888 8.40257 37.0696 8.95533 37.2275 9.45649C37.3854 9.96135 37.6315 10.4036 37.9547 10.7684C38.2779 11.1332 38.6929 11.4243 39.1887 11.627C39.6808 11.8334 40.2684 11.9365 40.9332 11.9365C41.3592 11.9365 41.7779 11.896 42.1782 11.8186C42.5785 11.7375 42.887 11.6491 43.0853 11.5459L43.122 11.5275L42.8539 9.93555L42.7878 9.95766Z" fill="black"/>
<path d="M64.0581 11.3874V10.8347L64.0618 0.0632324L62.163 0.380148V4.07626C61.9464 3.97308 61.7223 3.88464 61.4946 3.81462C61.1678 3.71881 60.8262 3.67091 60.4883 3.67828C59.9742 3.66722 59.4747 3.76672 59.0009 3.97308C58.5786 4.1647 58.1966 4.45582 57.9028 4.81696C57.587 5.20389 57.3593 5.64241 57.2197 6.12147C57.0581 6.67054 56.981 7.24173 56.9883 7.81291C56.981 8.39515 57.0728 8.97002 57.2638 9.52278C57.4364 10.0092 57.7045 10.4477 58.0607 10.8236C58.4096 11.1847 58.843 11.4685 59.3131 11.6491C59.8236 11.8407 60.3561 11.9365 60.8997 11.9365C60.9254 11.9365 60.9511 11.9365 60.9768 11.9365C61.546 11.9365 62.119 11.8923 62.6772 11.8038C63.1289 11.7338 63.5807 11.6343 64.0177 11.5053L64.0581 11.4943V11.3874ZM62.1594 10.1492C62.0125 10.1787 61.8619 10.2045 61.7113 10.2193C61.4726 10.2451 61.2265 10.2598 60.9841 10.2561C60.3451 10.2561 59.8346 10.035 59.4747 9.60017C59.1184 9.1727 58.9348 8.57204 58.9275 7.82028H58.9311V7.76501C58.9311 7.01694 59.078 6.41628 59.3682 5.98144C59.6583 5.55397 60.1211 5.33655 60.7528 5.33655C60.7564 5.33655 60.7638 5.33655 60.7674 5.33655C61.0429 5.33655 61.311 5.38446 61.5718 5.47658C61.7811 5.5466 61.9794 5.64241 62.163 5.76033V10.1492H62.1594Z" fill="black"/>
</svg>
